<?xml version="1.0" encoding="UTF-8" standalone="no"?>
<!DOCTYPE svg PUBLIC "-//W3C//DTD SVG 1.1//EN"
 "http://www.w3.org/Graphics/SVG/1.1/DTD/svg11.dtd">
<!-- Generated by graphviz version 2.43.0 (0)
 -->
<!-- Pages: 1 -->
<svg width="4776pt" height="836pt"
 viewBox="0.00 0.00 4776.00 836.00" xmlns="http://www.w3.org/2000/svg" xmlns:xlink="http://www.w3.org/1999/xlink">
<g id="graph0" class="graph" transform="scale(1 1) rotate(0) translate(4 832)">
<polygon fill="white" stroke="transparent" points="-4,4 -4,-832 4772,-832 4772,4 -4,4"/>
<!-- CHECK_DESIGN -->
<g id="node1" class="node">
<title>CHECK_DESIGN</title>
<ellipse fill="none" stroke="black" cx="2213" cy="-810" rx="89.08" ry="18"/>
<text text-anchor="middle" x="2213" y="-806.3" font-family="Times,serif" font-size="14.00">CHECK_DESIGN</text>
</g>
<!-- TRIMGALORE -->
<g id="node2" class="node">
<title>TRIMGALORE</title>
<ellipse fill="none" stroke="black" cx="2161" cy="-738" rx="76.89" ry="18"/>
<text text-anchor="middle" x="2161" y="-734.3" font-family="Times,serif" font-size="14.00">TRIMGALORE</text>
</g>
<!-- CHECK_DESIGN&#45;&gt;TRIMGALORE -->
<g id="edge1" class="edge">
<title>CHECK_DESIGN&#45;&gt;TRIMGALORE</title>
<path fill="none" stroke="black" d="M2200.41,-792.05C2194.15,-783.63 2186.46,-773.28 2179.55,-763.97"/>
<polygon fill="black" stroke="black" points="2182.24,-761.73 2173.47,-755.79 2176.63,-765.9 2182.24,-761.73"/>
</g>
<!-- FASTQC -->
<g id="node3" class="node">
<title>FASTQC</title>
<ellipse fill="none" stroke="black" cx="4653" cy="-666" rx="48.99" ry="18"/>
<text text-anchor="middle" x="4653" y="-662.3" font-family="Times,serif" font-size="14.00">FASTQC</text>
</g>
<!-- CHECK_DESIGN&#45;&gt;FASTQC -->
<g id="edge2" class="edge">
<title>CHECK_DESIGN&#45;&gt;FASTQC</title>
<path fill="none" stroke="black" d="M2274.23,-796.87C2286.37,-794.89 2299.05,-793.12 2311,-792 2437.07,-780.14 4477.99,-815.07 4590,-756 4615.12,-742.75 4632.44,-714.47 4642.46,-693.32"/>
<polygon fill="black" stroke="black" points="4645.66,-694.74 4646.56,-684.18 4639.28,-691.87 4645.66,-694.74"/>
</g>
<!-- PLOTPROFILE -->
<g id="node4" class="node">
<title>PLOTPROFILE</title>
<ellipse fill="none" stroke="black" cx="727" cy="-234" rx="79.09" ry="18"/>
<text text-anchor="middle" x="727" y="-230.3" font-family="Times,serif" font-size="14.00">PLOTPROFILE</text>
</g>
<!-- CHECK_DESIGN&#45;&gt;PLOTPROFILE -->
<g id="edge3" class="edge">
<title>CHECK_DESIGN&#45;&gt;PLOTPROFILE</title>
<path fill="none" stroke="black" d="M2124.3,-808.02C1745.83,-803.68 283.67,-785.05 246,-756 60.58,-612.99 280.85,-397.18 488,-288 536.27,-262.56 596.22,-249.31 644.01,-242.42"/>
<polygon fill="black" stroke="black" points="644.58,-245.87 654.01,-241.04 643.63,-238.94 644.58,-245.87"/>
</g>
<!-- BWA_MEM -->
<g id="node5" class="node">
<title>BWA_MEM</title>
<ellipse fill="none" stroke="black" cx="2081" cy="-666" rx="62.29" ry="18"/>
<text text-anchor="middle" x="2081" y="-662.3" font-family="Times,serif" font-size="14.00">BWA_MEM</text>
</g>
<!-- CHECK_DESIGN&#45;&gt;BWA_MEM -->
<g id="edge4" class="edge">
<title>CHECK_DESIGN&#45;&gt;BWA_MEM</title>
<path fill="none" stroke="black" d="M2142.62,-798.93C2116.96,-791.48 2090.48,-778.53 2075,-756 2062.58,-737.93 2065.73,-712.63 2071.03,-693.62"/>
<polygon fill="black" stroke="black" points="2074.38,-694.65 2074.02,-684.06 2067.7,-692.56 2074.38,-694.65"/>
</g>
<!-- SORT_BAM -->
<g id="node6" class="node">
<title>SORT_BAM</title>
<ellipse fill="none" stroke="black" cx="2184" cy="-594" rx="63.89" ry="18"/>
<text text-anchor="middle" x="2184" y="-590.3" font-family="Times,serif" font-size="14.00">SORT_BAM</text>
</g>
<!-- CHECK_DESIGN&#45;&gt;SORT_BAM -->
<g id="edge5" class="edge">
<title>CHECK_DESIGN&#45;&gt;SORT_BAM</title>
<path fill="none" stroke="black" d="M2227.4,-792.1C2234.83,-782.26 2243.12,-769.22 2247,-756 2251.5,-740.65 2250.7,-735.57 2247,-720 2238.23,-683.1 2216.74,-644.74 2201.3,-620.41"/>
<polygon fill="black" stroke="black" points="2204.09,-618.29 2195.71,-611.8 2198.22,-622.1 2204.09,-618.29"/>
</g>
<!-- MERGED_BAM -->
<g id="node7" class="node">
<title>MERGED_BAM</title>
<ellipse fill="none" stroke="black" cx="1909" cy="-522" rx="81.79" ry="18"/>
<text text-anchor="middle" x="1909" y="-518.3" font-family="Times,serif" font-size="14.00">MERGED_BAM</text>
</g>
<!-- CHECK_DESIGN&#45;&gt;MERGED_BAM -->
<g id="edge6" class="edge">
<title>CHECK_DESIGN&#45;&gt;MERGED_BAM</title>
<path fill="none" stroke="black" d="M2160.48,-795.33C2130.56,-786.39 2092.98,-773.17 2062,-756 2017.2,-731.17 2006.06,-722.26 1972,-684 1946.91,-655.81 1940.96,-647.06 1927,-612 1919.09,-592.14 1914.51,-568.34 1911.95,-550.36"/>
<polygon fill="black" stroke="black" points="1915.4,-549.72 1910.64,-540.25 1908.45,-550.62 1915.4,-549.72"/>
</g>
<!-- MERGED_BAM_FILTER -->
<g id="node8" class="node">
<title>MERGED_BAM_FILTER</title>
<ellipse fill="none" stroke="black" cx="2491" cy="-450" rx="120.78" ry="18"/>
<text text-anchor="middle" x="2491" y="-446.3" font-family="Times,serif" font-size="14.00">MERGED_BAM_FILTER</text>
</g>
<!-- CHECK_DESIGN&#45;&gt;MERGED_BAM_FILTER -->
<g id="edge7" class="edge">
<title>CHECK_DESIGN&#45;&gt;MERGED_BAM_FILTER</title>
<path fill="none" stroke="black" d="M2274.5,-796.95C2286.56,-794.97 2299.14,-793.19 2311,-792 2591.04,-763.88 3302.13,-816.5 3577,-756 3656.34,-738.54 3700.28,-751.82 3745,-684 3813.34,-580.36 3685.88,-600.88 3578,-576 3409.57,-537.15 2962.05,-602.77 2801,-540 2777.78,-530.95 2780.48,-514.76 2758,-504 2727.81,-489.55 2649.26,-474.86 2585.13,-464.62"/>
<polygon fill="black" stroke="black" points="2585.39,-461.12 2574.97,-463.02 2584.3,-468.03 2585.39,-461.12"/>
</g>
<!-- PRESEQ -->
<g id="node9" class="node">
<title>PRESEQ</title>
<ellipse fill="none" stroke="black" cx="593" cy="-450" rx="51.19" ry="18"/>
<text text-anchor="middle" x="593" y="-446.3" font-family="Times,serif" font-size="14.00">PRESEQ</text>
</g>
<!-- CHECK_DESIGN&#45;&gt;PRESEQ -->
<g id="edge8" class="edge">
<title>CHECK_DESIGN&#45;&gt;PRESEQ</title>
<path fill="none" stroke="black" d="M2123.85,-809.15C1781.89,-809.36 569.88,-806.53 506,-756 473.87,-730.58 482,-707.97 482,-667 482,-667 482,-667 482,-593 482,-541.3 528.24,-497.18 561.03,-472.4"/>
<polygon fill="black" stroke="black" points="563.46,-474.96 569.46,-466.22 559.32,-469.31 563.46,-474.96"/>
</g>
<!-- MERGED_BAM_REMOVE_ORPHAN -->
<g id="node10" class="node">
<title>MERGED_BAM_REMOVE_ORPHAN</title>
<ellipse fill="none" stroke="black" cx="2207" cy="-378" rx="176.57" ry="18"/>
<text text-anchor="middle" x="2207" y="-374.3" font-family="Times,serif" font-size="14.00">MERGED_BAM_REMOVE_ORPHAN</text>
</g>
<!-- CHECK_DESIGN&#45;&gt;MERGED_BAM_REMOVE_ORPHAN -->
<g id="edge9" class="edge">
<title>CHECK_DESIGN&#45;&gt;MERGED_BAM_REMOVE_ORPHAN</title>
<path fill="none" stroke="black" d="M2136.05,-800.9C2094.29,-793.82 2043.16,-780.6 2003,-756 1884.52,-683.43 1740.56,-619.36 1818,-504 1851.13,-454.65 2007.6,-416.34 2111.72,-395.77"/>
<polygon fill="black" stroke="black" points="2112.48,-399.19 2121.63,-393.83 2111.14,-392.32 2112.48,-399.19"/>
</g>
<!-- PICARD_METRICS -->
<g id="node11" class="node">
<title>PICARD_METRICS</title>
<ellipse fill="none" stroke="black" cx="1096" cy="-306" rx="97.48" ry="18"/>
<text text-anchor="middle" x="1096" y="-302.3" font-family="Times,serif" font-size="14.00">PICARD_METRICS</text>
</g>
<!-- CHECK_DESIGN&#45;&gt;PICARD_METRICS -->
<g id="edge10" class="edge">
<title>CHECK_DESIGN&#45;&gt;PICARD_METRICS</title>
<path fill="none" stroke="black" d="M2124.12,-808.84C1792.26,-807.88 636.55,-801.3 478,-756 404.2,-734.91 330,-743.76 330,-667 330,-667 330,-667 330,-593 330,-486.33 419.85,-492.06 508,-432 689.07,-308.63 771.81,-352.87 989,-324 997.83,-322.83 1007.06,-321.5 1016.23,-320.13"/>
<polygon fill="black" stroke="black" points="1016.78,-323.59 1026.14,-318.62 1015.73,-316.67 1016.78,-323.59"/>
</g>
<!-- PHANTOMPEAKQUALTOOLS -->
<g id="node12" class="node">
<title>PHANTOMPEAKQUALTOOLS</title>
<ellipse fill="none" stroke="black" cx="2815" cy="-306" rx="146.77" ry="18"/>
<text text-anchor="middle" x="2815" y="-302.3" font-family="Times,serif" font-size="14.00">PHANTOMPEAKQUALTOOLS</text>
</g>
<!-- CHECK_DESIGN&#45;&gt;PHANTOMPEAKQUALTOOLS -->
<g id="edge11" class="edge">
<title>CHECK_DESIGN&#45;&gt;PHANTOMPEAKQUALTOOLS</title>
<path fill="none" stroke="black" d="M2274.5,-796.93C2286.56,-794.96 2299.14,-793.18 2311,-792 2906.93,-732.66 3063,-824.1 3658,-756 3817.08,-737.79 3909.72,-808.02 4011,-684 4156.8,-505.45 3243.02,-364.33 2922.86,-320.89"/>
<polygon fill="black" stroke="black" points="2923.02,-317.38 2912.64,-319.51 2922.08,-324.31 2923.02,-317.38"/>
</g>
<!-- BIGWIG -->
<g id="node13" class="node">
<title>BIGWIG</title>
<ellipse fill="none" stroke="black" cx="932" cy="-306" rx="48.19" ry="18"/>
<text text-anchor="middle" x="932" y="-302.3" font-family="Times,serif" font-size="14.00">BIGWIG</text>
</g>
<!-- CHECK_DESIGN&#45;&gt;BIGWIG -->
<g id="edge12" class="edge">
<title>CHECK_DESIGN&#45;&gt;BIGWIG</title>
<path fill="none" stroke="black" d="M2124.26,-808.24C1749.05,-804.81 310.6,-789.5 278,-756 126.96,-600.77 358.67,-434.61 562,-360 674.41,-318.75 710.58,-341.75 829,-324 845.25,-321.56 862.9,-318.72 878.93,-316.07"/>
<polygon fill="black" stroke="black" points="879.91,-319.45 889.2,-314.36 878.76,-312.55 879.91,-319.45"/>
</g>
<!-- PLOTFINGERPRINT -->
<g id="node14" class="node">
<title>PLOTFINGERPRINT</title>
<ellipse fill="none" stroke="black" cx="1354" cy="-306" rx="104.78" ry="18"/>
<text text-anchor="middle" x="1354" y="-302.3" font-family="Times,serif" font-size="14.00">PLOTFINGERPRINT</text>
</g>
<!-- CHECK_DESIGN&#45;&gt;PLOTFINGERPRINT -->
<g id="edge13" class="edge">
<title>CHECK_DESIGN&#45;&gt;PLOTFINGERPRINT</title>
<path fill="none" stroke="black" d="M2126.41,-805.65C1852.79,-793.08 1015.15,-738.72 852,-540 802.4,-479.59 914.38,-448.25 941,-432 1008.6,-390.73 1028.64,-384.34 1104,-360 1158.01,-342.55 1220.48,-329.31 1269.46,-320.42"/>
<polygon fill="black" stroke="black" points="1270.15,-323.85 1279.38,-318.65 1268.92,-316.96 1270.15,-323.85"/>
</g>
<!-- MACS2 -->
<g id="node15" class="node">
<title>MACS2</title>
<ellipse fill="none" stroke="black" cx="3365" cy="-306" rx="45.49" ry="18"/>
<text text-anchor="middle" x="3365" y="-302.3" font-family="Times,serif" font-size="14.00">MACS2</text>
</g>
<!-- CHECK_DESIGN&#45;&gt;MACS2 -->
<g id="edge14" class="edge">
<title>CHECK_DESIGN&#45;&gt;MACS2</title>
<path fill="none" stroke="black" d="M2274.5,-796.9C2286.56,-794.93 2299.14,-793.16 2311,-792 2647.04,-759.05 3497.99,-817.46 3830,-756 3923.72,-738.65 3977.07,-761.89 4032,-684 4120.23,-558.88 4056.71,-417.94 3915,-360 3826.46,-323.8 3542.07,-311.84 3420.72,-308.32"/>
<polygon fill="black" stroke="black" points="3420.63,-304.81 3410.53,-308.03 3420.43,-311.81 3420.63,-304.81"/>
</g>
<!-- MACS2_ANNOTATE -->
<g id="node16" class="node">
<title>MACS2_ANNOTATE</title>
<ellipse fill="none" stroke="black" cx="1943" cy="-234" rx="102.88" ry="18"/>
<text text-anchor="middle" x="1943" y="-230.3" font-family="Times,serif" font-size="14.00">MACS2_ANNOTATE</text>
</g>
<!-- CHECK_DESIGN&#45;&gt;MACS2_ANNOTATE -->
<g id="edge15" class="edge">
<title>CHECK_DESIGN&#45;&gt;MACS2_ANNOTATE</title>
<path fill="none" stroke="black" d="M2124.15,-808.79C1763.68,-807.65 425.84,-800.44 348,-756 307.42,-732.83 292,-713.73 292,-667 292,-667 292,-667 292,-593 292,-434.5 415.87,-421.39 562,-360 693.6,-304.71 733.61,-307.61 875,-288 1220.5,-240.07 1634.14,-233.95 1829.79,-234.08"/>
<polygon fill="black" stroke="black" points="1830.08,-237.58 1840.09,-234.09 1830.09,-230.58 1830.08,-237.58"/>
</g>
<!-- MACS2_QC -->
<g id="node17" class="node">
<title>MACS2_QC</title>
<ellipse fill="none" stroke="black" cx="1831" cy="-162" rx="63.89" ry="18"/>
<text text-anchor="middle" x="1831" y="-158.3" font-family="Times,serif" font-size="14.00">MACS2_QC</text>
</g>
<!-- CHECK_DESIGN&#45;&gt;MACS2_QC -->
<g id="edge16" class="edge">
<title>CHECK_DESIGN&#45;&gt;MACS2_QC</title>
<path fill="none" stroke="black" d="M2123.95,-808.81C1746.24,-807.75 292.06,-800.75 206,-756 162.31,-733.28 140,-716.25 140,-667 140,-667 140,-667 140,-521 140,-416.53 102.51,-366.89 171,-288 248.77,-198.43 310.81,-234.37 428,-216 687.79,-175.29 1506.26,-165.55 1757.16,-163.5"/>
<polygon fill="black" stroke="black" points="1757.29,-167 1767.26,-163.42 1757.23,-160 1757.29,-167"/>
</g>
<!-- CONSENSUS_PEAKS -->
<g id="node18" class="node">
<title>CONSENSUS_PEAKS</title>
<ellipse fill="none" stroke="black" cx="3710" cy="-234" rx="111.28" ry="18"/>
<text text-anchor="middle" x="3710" y="-230.3" font-family="Times,serif" font-size="14.00">CONSENSUS_PEAKS</text>
</g>
<!-- CHECK_DESIGN&#45;&gt;CONSENSUS_PEAKS -->
<g id="edge17" class="edge">
<title>CHECK_DESIGN&#45;&gt;CONSENSUS_PEAKS</title>
<path fill="none" stroke="black" d="M2274.23,-796.93C2286.37,-794.95 2299.06,-793.16 2311,-792 2489.76,-774.6 3753.7,-803.16 3927,-756 3990.36,-738.76 4013.19,-733.78 4056,-684 4172.96,-547.99 4130.69,-382.14 3978,-288 3962.43,-278.4 3868.33,-261.13 3795.99,-248.91"/>
<polygon fill="black" stroke="black" points="3796.37,-245.43 3785.93,-247.23 3795.21,-252.33 3796.37,-245.43"/>
</g>
<!-- CONSENSUS_PEAKS_ANNOTATE -->
<g id="node19" class="node">
<title>CONSENSUS_PEAKS_ANNOTATE</title>
<ellipse fill="none" stroke="black" cx="4046" cy="-162" rx="168.97" ry="18"/>
<text text-anchor="middle" x="4046" y="-158.3" font-family="Times,serif" font-size="14.00">CONSENSUS_PEAKS_ANNOTATE</text>
</g>
<!-- CHECK_DESIGN&#45;&gt;CONSENSUS_PEAKS_ANNOTATE -->
<g id="edge18" class="edge">
<title>CHECK_DESIGN&#45;&gt;CONSENSUS_PEAKS_ANNOTATE</title>
<path fill="none" stroke="black" d="M2274.23,-796.91C2286.37,-794.93 2299.05,-793.15 2311,-792 3080.92,-717.69 3281.99,-839.19 4051,-756 4254.12,-734.03 4502,-871.31 4502,-667 4502,-667 4502,-667 4502,-377 4502,-241.08 4366.69,-270.09 4242,-216 4207.27,-200.93 4167.18,-189.18 4132.35,-180.61"/>
<polygon fill="black" stroke="black" points="4132.74,-177.11 4122.19,-178.17 4131.1,-183.91 4132.74,-177.11"/>
</g>
<!-- CONSENSUS_PEAKS_COUNTS -->
<g id="node20" class="node">
<title>CONSENSUS_PEAKS_COUNTS</title>
<ellipse fill="none" stroke="black" cx="3158" cy="-162" rx="157.07" ry="18"/>
<text text-anchor="middle" x="3158" y="-158.3" font-family="Times,serif" font-size="14.00">CONSENSUS_PEAKS_COUNTS</text>
</g>
<!-- CHECK_DESIGN&#45;&gt;CONSENSUS_PEAKS_COUNTS -->
<g id="edge19" class="edge">
<title>CHECK_DESIGN&#45;&gt;CONSENSUS_PEAKS_COUNTS</title>
<path fill="none" stroke="black" d="M2274.23,-796.92C2286.37,-794.94 2299.05,-793.16 2311,-792 2496.29,-774.04 3808.63,-812.49 3986,-756 4149.15,-704.04 4205.96,-679.67 4305,-540 4333.19,-500.24 4342.65,-477.03 4324,-432 4278.57,-322.31 4208.76,-333.26 4099,-288 4010.89,-251.67 3990.28,-235.59 3897,-216 3789.62,-193.45 3497.13,-177.42 3313.97,-169.23"/>
<polygon fill="black" stroke="black" points="3314.11,-165.73 3303.97,-168.79 3313.8,-172.73 3314.11,-165.73"/>
</g>
<!-- CONSENSUS_PEAKS_DESEQ2 -->
<g id="node21" class="node">
<title>CONSENSUS_PEAKS_DESEQ2</title>
<ellipse fill="none" stroke="black" cx="3384" cy="-90" rx="155.97" ry="18"/>
<text text-anchor="middle" x="3384" y="-86.3" font-family="Times,serif" font-size="14.00">CONSENSUS_PEAKS_DESEQ2</text>
</g>
<!-- CHECK_DESIGN&#45;&gt;CONSENSUS_PEAKS_DESEQ2 -->
<g id="edge20" class="edge">
<title>CHECK_DESIGN&#45;&gt;CONSENSUS_PEAKS_DESEQ2</title>
<path fill="none" stroke="black" d="M2274.23,-796.89C2286.37,-794.91 2299.05,-793.14 2311,-792 2747.76,-750.38 3851.92,-826.25 4285,-756 4390.73,-738.85 4445.08,-765.15 4515,-684 4677.51,-495.39 4597.62,-235.3 4366,-144 4328.34,-129.15 3807.35,-107.21 3539.96,-96.84"/>
<polygon fill="black" stroke="black" points="3539.9,-93.33 3529.77,-96.44 3539.63,-100.33 3539.9,-93.33"/>
</g>
<!-- IGV -->
<g id="node22" class="node">
<title>IGV</title>
<ellipse fill="none" stroke="black" cx="3804" cy="-18" rx="27.9" ry="18"/>
<text text-anchor="middle" x="3804" y="-14.3" font-family="Times,serif" font-size="14.00">IGV</text>
</g>
<!-- CHECK_DESIGN&#45;&gt;IGV -->
<g id="edge21" class="edge">
<title>CHECK_DESIGN&#45;&gt;IGV</title>
<path fill="none" stroke="black" d="M2274.23,-796.86C2286.37,-794.89 2299.05,-793.12 2311,-792 2441.89,-779.73 4555.65,-806.56 4677,-756 4729.22,-734.24 4768,-723.57 4768,-667 4768,-667 4768,-667 4768,-161 4768,-101.17 4722.3,-94.85 4667,-72 4590.12,-40.23 3999.39,-23.74 3842.28,-19.89"/>
<polygon fill="black" stroke="black" points="3842.23,-16.39 3832.14,-19.64 3842.06,-23.39 3842.23,-16.39"/>
</g>
<!-- MULTIQC -->
<g id="node23" class="node">
<title>MULTIQC</title>
<ellipse fill="none" stroke="black" cx="1891" cy="-18" rx="56.59" ry="18"/>
<text text-anchor="middle" x="1891" y="-14.3" font-family="Times,serif" font-size="14.00">MULTIQC</text>
</g>
<!-- CHECK_DESIGN&#45;&gt;MULTIQC -->
<g id="edge22" class="edge">
<title>CHECK_DESIGN&#45;&gt;MULTIQC</title>
<path fill="none" stroke="black" d="M2274.23,-796.87C2286.37,-794.89 2299.05,-793.12 2311,-792 2438.79,-779.99 4500.22,-799.43 4621,-756 4679.85,-734.84 4730,-729.54 4730,-667 4730,-667 4730,-667 4730,-305 4730,-46.43 4163.88,-76.57 4117,-72 3682.39,-29.63 2281.22,-20.77 1957.97,-19.27"/>
<polygon fill="black" stroke="black" points="1957.84,-15.77 1947.82,-19.22 1957.8,-22.77 1957.84,-15.77"/>
</g>
<!-- TRIMGALORE&#45;&gt;PLOTPROFILE -->
<g id="edge23" class="edge">
<title>TRIMGALORE&#45;&gt;PLOTPROFILE</title>
<path fill="none" stroke="black" d="M2084.64,-736.33C1772.09,-733.35 603.61,-719.84 534,-684 403.35,-616.72 409.46,-494.8 468,-360 498.35,-290.12 584.53,-259.13 649.21,-245.5"/>
<polygon fill="black" stroke="black" points="650.28,-248.86 659.39,-243.46 648.9,-242 650.28,-248.86"/>
</g>
<!-- TRIMGALORE&#45;&gt;BWA_MEM -->
<g id="edge24" class="edge">
<title>TRIMGALORE&#45;&gt;BWA_MEM</title>
<path fill="none" stroke="black" d="M2142.04,-720.41C2131.6,-711.28 2118.5,-699.81 2107.1,-689.84"/>
<polygon fill="black" stroke="black" points="2109.38,-687.18 2099.55,-683.23 2104.77,-692.45 2109.38,-687.18"/>
</g>
<!-- TRIMGALORE&#45;&gt;SORT_BAM -->
<g id="edge25" class="edge">
<title>TRIMGALORE&#45;&gt;SORT_BAM</title>
<path fill="none" stroke="black" d="M2163.77,-719.87C2167.69,-695.67 2174.9,-651.21 2179.56,-622.39"/>
<polygon fill="black" stroke="black" points="2183.07,-622.62 2181.22,-612.19 2176.16,-621.5 2183.07,-622.62"/>
</g>
<!-- TRIMGALORE&#45;&gt;MERGED_BAM -->
<g id="edge26" class="edge">
<title>TRIMGALORE&#45;&gt;MERGED_BAM</title>
<path fill="none" stroke="black" d="M2102.7,-726.22C2072.6,-718.4 2036.7,-705.33 2010,-684 1964.6,-647.73 1933.86,-585.17 1919.1,-549.65"/>
<polygon fill="black" stroke="black" points="1922.19,-547.94 1915.2,-539.98 1915.7,-550.56 1922.19,-547.94"/>
</g>
<!-- TRIMGALORE&#45;&gt;MERGED_BAM_FILTER -->
<g id="edge27" class="edge">
<title>TRIMGALORE&#45;&gt;MERGED_BAM_FILTER</title>
<path fill="none" stroke="black" d="M2219.41,-726.18C2250.81,-718.28 2288.92,-705.15 2318,-684 2395.95,-627.3 2454.01,-525.21 2478.38,-477.25"/>
<polygon fill="black" stroke="black" points="2481.59,-478.65 2482.93,-468.14 2475.33,-475.52 2481.59,-478.65"/>
</g>
<!-- TRIMGALORE&#45;&gt;PRESEQ -->
<g id="edge28" class="edge">
<title>TRIMGALORE&#45;&gt;PRESEQ</title>
<path fill="none" stroke="black" d="M2084.42,-736.88C1781.11,-736.1 677.72,-730.06 620,-684 558.79,-635.15 574.31,-528.2 585.82,-478.01"/>
<polygon fill="black" stroke="black" points="589.24,-478.75 588.18,-468.2 582.44,-477.1 589.24,-478.75"/>
</g>
<!-- TRIMGALORE&#45;&gt;MERGED_BAM_REMOVE_ORPHAN -->
<g id="edge29" class="edge">
<title>TRIMGALORE&#45;&gt;MERGED_BAM_REMOVE_ORPHAN</title>
<path fill="none" stroke="black" d="M2194.89,-721.74C2237.18,-700.1 2304,-656.23 2304,-595 2304,-595 2304,-595 2304,-521 2304,-472.7 2265.26,-428.73 2236.74,-402.91"/>
<polygon fill="black" stroke="black" points="2238.83,-400.09 2229.01,-396.12 2234.22,-405.35 2238.83,-400.09"/>
</g>
<!-- TRIMGALORE&#45;&gt;PICARD_METRICS -->
<g id="edge30" class="edge">
<title>TRIMGALORE&#45;&gt;PICARD_METRICS</title>
<path fill="none" stroke="black" d="M2084.24,-737.42C1806.92,-738.49 866.71,-738.05 744,-684 610.32,-625.12 441.59,-545.94 533,-432 548.35,-412.87 870.2,-349.76 1020.24,-321.23"/>
<polygon fill="black" stroke="black" points="1021.13,-324.62 1030.3,-319.32 1019.83,-317.75 1021.13,-324.62"/>
</g>
<!-- TRIMGALORE&#45;&gt;PHANTOMPEAKQUALTOOLS -->
<g id="edge31" class="edge">
<title>TRIMGALORE&#45;&gt;PHANTOMPEAKQUALTOOLS</title>
<path fill="none" stroke="black" d="M2236.44,-734.73C2476.97,-726.49 3210,-693.32 3210,-595 3210,-595 3210,-595 3210,-521 3210,-445.95 2986.79,-362.81 2875.95,-326.15"/>
<polygon fill="black" stroke="black" points="2876.83,-322.75 2866.23,-322.95 2874.64,-329.4 2876.83,-322.75"/>
</g>
<!-- TRIMGALORE&#45;&gt;BIGWIG -->
<g id="edge32" class="edge">
<title>TRIMGALORE&#45;&gt;BIGWIG</title>
<path fill="none" stroke="black" d="M2084.52,-736.38C1778.27,-733.63 653.76,-721.05 588,-684 485.62,-626.32 429.88,-519.78 508,-432 557.51,-376.37 775.66,-333.24 878.28,-315.64"/>
<polygon fill="black" stroke="black" points="879.16,-319.04 888.43,-313.91 877.99,-312.14 879.16,-319.04"/>
</g>
<!-- TRIMGALORE&#45;&gt;PLOTFINGERPRINT -->
<g id="edge33" class="edge">
<title>TRIMGALORE&#45;&gt;PLOTFINGERPRINT</title>
<path fill="none" stroke="black" d="M2093.33,-729.34C2061.16,-725.97 2022.14,-722.27 1987,-720 1923.82,-715.92 892.05,-729.47 848,-684 756.99,-590.06 888.21,-499.9 1000,-432 1041.81,-406.61 1057.85,-412.2 1104,-396 1172.2,-372.06 1250.7,-344.03 1301.27,-325.92"/>
<polygon fill="black" stroke="black" points="1302.45,-329.22 1310.68,-322.55 1300.09,-322.63 1302.45,-329.22"/>
</g>
<!-- TRIMGALORE&#45;&gt;MACS2 -->
<g id="edge34" class="edge">
<title>TRIMGALORE&#45;&gt;MACS2</title>
<path fill="none" stroke="black" d="M2237.7,-737.48C2519.36,-738.8 3486.85,-739.23 3613,-684 3633.66,-674.96 3747.41,-560.85 3756,-540 3774.29,-495.62 3783.06,-471.65 3756,-432 3717.05,-374.94 3512.82,-332.61 3416,-315.43"/>
<polygon fill="black" stroke="black" points="3416.59,-311.98 3406.14,-313.7 3415.39,-318.87 3416.59,-311.98"/>
</g>
<!-- TRIMGALORE&#45;&gt;MACS2_ANNOTATE -->
<g id="edge35" class="edge">
<title>TRIMGALORE&#45;&gt;MACS2_ANNOTATE</title>
<path fill="none" stroke="black" d="M2093.32,-729.45C2061.15,-726.11 2022.13,-722.39 1987,-720 1935.25,-716.48 1089.96,-721.38 1054,-684 965.8,-592.33 1228.45,-294.85 1240,-288 1265.17,-273.06 1645.39,-250.85 1835.89,-240.58"/>
<polygon fill="black" stroke="black" points="1836.13,-244.07 1845.93,-240.04 1835.76,-237.08 1836.13,-244.07"/>
</g>
<!-- TRIMGALORE&#45;&gt;MACS2_QC -->
<g id="edge36" class="edge">
<title>TRIMGALORE&#45;&gt;MACS2_QC</title>
<path fill="none" stroke="black" d="M2084.43,-736.55C1764.71,-734.43 549.74,-723.75 479,-684 445.69,-665.28 444.91,-647.97 432,-612 372.32,-445.66 334.62,-331.93 468,-216 516.94,-173.46 1480.14,-164.92 1757.1,-163.34"/>
<polygon fill="black" stroke="black" points="1757.46,-166.83 1767.44,-163.28 1757.42,-159.83 1757.46,-166.83"/>
</g>
<!-- TRIMGALORE&#45;&gt;CONSENSUS_PEAKS -->
<g id="edge37" class="edge">
<title>TRIMGALORE&#45;&gt;CONSENSUS_PEAKS</title>
<path fill="none" stroke="black" d="M2238.02,-737.46C2524.4,-738.72 3517.9,-739.05 3648,-684 3726.86,-650.63 3748.16,-620.98 3776,-540 3812.46,-433.94 3811.23,-389.25 3763,-288 3757.76,-277.01 3749.27,-266.97 3740.61,-258.65"/>
<polygon fill="black" stroke="black" points="3742.79,-255.91 3733.02,-251.81 3738.1,-261.11 3742.79,-255.91"/>
</g>
<!-- TRIMGALORE&#45;&gt;CONSENSUS_PEAKS_ANNOTATE -->
<g id="edge38" class="edge">
<title>TRIMGALORE&#45;&gt;CONSENSUS_PEAKS_ANNOTATE</title>
<path fill="none" stroke="black" d="M2237.59,-736.88C2528.37,-736.09 3554.49,-730.03 3693,-684 3852.7,-630.93 3911.13,-608.34 4004,-468 4062.05,-380.27 4055.67,-247.16 4049.61,-190.3"/>
<polygon fill="black" stroke="black" points="4053.08,-189.83 4048.46,-180.29 4046.13,-190.62 4053.08,-189.83"/>
</g>
<!-- TRIMGALORE&#45;&gt;CONSENSUS_PEAKS_COUNTS -->
<g id="edge39" class="edge">
<title>TRIMGALORE&#45;&gt;CONSENSUS_PEAKS_COUNTS</title>
<path fill="none" stroke="black" d="M2237.41,-735.54C2499.23,-729.73 3348.19,-703.89 3424,-612 3486.08,-536.75 3255.53,-270.42 3180.71,-187.7"/>
<polygon fill="black" stroke="black" points="3183.08,-185.11 3173.77,-180.06 3177.9,-189.81 3183.08,-185.11"/>
</g>
<!-- TRIMGALORE&#45;&gt;CONSENSUS_PEAKS_DESEQ2 -->
<g id="edge40" class="edge">
<title>TRIMGALORE&#45;&gt;CONSENSUS_PEAKS_DESEQ2</title>
<path fill="none" stroke="black" d="M2237.52,-736.32C2535.46,-733.42 3608.87,-720.51 3757,-684 3870.83,-655.94 3903.16,-630.23 3978,-540 4110.27,-380.52 4365.82,-295.05 4224,-144 4201.11,-119.62 3781.16,-103 3543.91,-95.51"/>
<polygon fill="black" stroke="black" points="3543.91,-92.01 3533.8,-95.2 3543.69,-99.01 3543.91,-92.01"/>
</g>
<!-- TRIMGALORE&#45;&gt;IGV -->
<g id="edge41" class="edge">
<title>TRIMGALORE&#45;&gt;IGV</title>
<path fill="none" stroke="black" d="M2237.48,-736.4C2543.04,-733.74 3667.16,-721.5 3822,-684 4011.84,-638.03 4616,-502.32 4616,-307 4616,-307 4616,-307 4616,-161 4616,-81.43 4003.22,-32.95 3842.31,-21.59"/>
<polygon fill="black" stroke="black" points="3842.17,-18.07 3831.95,-20.86 3841.68,-25.05 3842.17,-18.07"/>
</g>
<!-- TRIMGALORE&#45;&gt;MULTIQC -->
<g id="edge42" class="edge">
<title>TRIMGALORE&#45;&gt;MULTIQC</title>
<path fill="none" stroke="black" d="M2084.19,-737.29C1770.61,-738.1 596.64,-737.51 440,-684 318.15,-642.37 0,-435.76 0,-307 0,-307 0,-307 0,-161 0,-118.5 0.22,-96.43 35,-72 109.58,-19.62 1501.03,-18.42 1824.31,-18.86"/>
<polygon fill="black" stroke="black" points="1824.45,-22.36 1834.46,-18.87 1824.46,-15.36 1824.45,-22.36"/>
</g>
<!-- FASTQC&#45;&gt;MULTIQC -->
<g id="edge43" class="edge">
<title>FASTQC&#45;&gt;MULTIQC</title>
<path fill="none" stroke="black" d="M4653.2,-647.95C4653.49,-621.29 4654,-568.12 4654,-523 4654,-523 4654,-523 4654,-305 4654,-198.99 4575.19,-186.35 4478,-144 4240.81,-40.65 2339.14,-22.1 1957.54,-19.4"/>
<polygon fill="black" stroke="black" points="1957.51,-15.9 1947.49,-19.34 1957.46,-22.9 1957.51,-15.9"/>
</g>
<!-- PLOTPROFILE&#45;&gt;MULTIQC -->
<g id="edge66" class="edge">
<title>PLOTPROFILE&#45;&gt;MULTIQC</title>
<path fill="none" stroke="black" d="M751.92,-216.67C805.48,-182.55 936.66,-104.23 1059,-72 1203.1,-34.04 1653.69,-22.86 1824.48,-19.93"/>
<polygon fill="black" stroke="black" points="1824.65,-23.43 1834.59,-19.76 1824.53,-16.43 1824.65,-23.43"/>
</g>
<!-- BWA_MEM&#45;&gt;PLOTPROFILE -->
<g id="edge83" class="edge">
<title>BWA_MEM&#45;&gt;PLOTPROFILE</title>
<path fill="none" stroke="black" d="M2018.76,-664.3C1843.32,-661.84 1347.34,-651.49 1190,-612 1004.84,-565.53 978.76,-498.99 800,-432 746.66,-412.01 711.15,-441.58 677,-396 669.17,-385.55 668.99,-315.29 680,-288 684.37,-277.17 691.96,-267.09 699.79,-258.68"/>
<polygon fill="black" stroke="black" points="702.39,-261.03 706.95,-251.46 697.42,-256.09 702.39,-261.03"/>
</g>
<!-- BWA_MEM&#45;&gt;SORT_BAM -->
<g id="edge84" class="edge">
<title>BWA_MEM&#45;&gt;SORT_BAM</title>
<path fill="none" stroke="black" d="M2104.37,-649.12C2118.6,-639.45 2136.95,-626.98 2152.45,-616.44"/>
<polygon fill="black" stroke="black" points="2154.42,-619.34 2160.72,-610.82 2150.48,-613.55 2154.42,-619.34"/>
</g>
<!-- BWA_MEM&#45;&gt;MERGED_BAM -->
<g id="edge85" class="edge">
<title>BWA_MEM&#45;&gt;MERGED_BAM</title>
<path fill="none" stroke="black" d="M2061.27,-648.71C2030.72,-623.49 1971.85,-574.89 1936.94,-546.07"/>
<polygon fill="black" stroke="black" points="1938.97,-543.2 1929.03,-539.54 1934.51,-548.6 1938.97,-543.2"/>
</g>
<!-- BWA_MEM&#45;&gt;MERGED_BAM_FILTER -->
<g id="edge86" class="edge">
<title>BWA_MEM&#45;&gt;MERGED_BAM_FILTER</title>
<path fill="none" stroke="black" d="M2129.56,-654.68C2165.77,-645.97 2215.86,-631.75 2257,-612 2337.44,-573.39 2421.06,-508.93 2463.19,-474.45"/>
<polygon fill="black" stroke="black" points="2465.56,-477.03 2471.05,-467.97 2461.11,-471.63 2465.56,-477.03"/>
</g>
<!-- BWA_MEM&#45;&gt;PRESEQ -->
<g id="edge87" class="edge">
<title>BWA_MEM&#45;&gt;PRESEQ</title>
<path fill="none" stroke="black" d="M2018.63,-664.25C1823.63,-661.51 1227.29,-650.17 1038,-612 881.79,-580.5 706.85,-504.32 631.22,-469.24"/>
<polygon fill="black" stroke="black" points="632.61,-466.03 622.07,-464.97 629.65,-472.37 632.61,-466.03"/>
</g>
<!-- BWA_MEM&#45;&gt;MERGED_BAM_REMOVE_ORPHAN -->
<g id="edge88" class="edge">
<title>BWA_MEM&#45;&gt;MERGED_BAM_REMOVE_ORPHAN</title>
<path fill="none" stroke="black" d="M2086.01,-648.03C2091.51,-629.95 2100.91,-600.59 2111,-576 2136.71,-513.31 2173.11,-442.51 2192.88,-405.22"/>
<polygon fill="black" stroke="black" points="2196.15,-406.52 2197.76,-396.05 2189.97,-403.23 2196.15,-406.52"/>
</g>
<!-- BWA_MEM&#45;&gt;PICARD_METRICS -->
<g id="edge89" class="edge">
<title>BWA_MEM&#45;&gt;PICARD_METRICS</title>
<path fill="none" stroke="black" d="M2019.15,-663.28C1853.58,-658.28 1408.79,-642.19 1350,-612 1286.49,-579.39 1159.4,-399.77 1113.25,-332.47"/>
<polygon fill="black" stroke="black" points="1116.07,-330.39 1107.54,-324.11 1110.29,-334.34 1116.07,-330.39"/>
</g>
<!-- BWA_MEM&#45;&gt;PHANTOMPEAKQUALTOOLS -->
<g id="edge90" class="edge">
<title>BWA_MEM&#45;&gt;PHANTOMPEAKQUALTOOLS</title>
<path fill="none" stroke="black" d="M2142.15,-661.95C2349.25,-650.99 3014.77,-610.52 3077,-540 3087.59,-528 3084.23,-518.28 3077,-504 3040.39,-431.67 2994.73,-444.81 2930,-396 2900.74,-373.93 2867.68,-348.27 2844.55,-330.19"/>
<polygon fill="black" stroke="black" points="2846.53,-327.3 2836.5,-323.89 2842.21,-332.81 2846.53,-327.3"/>
</g>
<!-- BWA_MEM&#45;&gt;BIGWIG -->
<g id="edge91" class="edge">
<title>BWA_MEM&#45;&gt;BIGWIG</title>
<path fill="none" stroke="black" d="M2019.06,-663.5C1845.65,-658.93 1363.77,-643.52 1300,-612 1204.57,-564.83 1223.85,-500.06 1142,-432 1087.29,-386.51 1014.15,-346.98 970.19,-325.12"/>
<polygon fill="black" stroke="black" points="971.53,-321.88 961.01,-320.6 968.43,-328.16 971.53,-321.88"/>
</g>
<!-- BWA_MEM&#45;&gt;PLOTFINGERPRINT -->
<g id="edge92" class="edge">
<title>BWA_MEM&#45;&gt;PLOTFINGERPRINT</title>
<path fill="none" stroke="black" d="M2018.72,-664.8C1855.51,-663.67 1424.87,-656.45 1380,-612 1304.67,-537.38 1330.97,-393.81 1346.24,-334.09"/>
<polygon fill="black" stroke="black" points="1349.66,-334.84 1348.84,-324.27 1342.9,-333.04 1349.66,-334.84"/>
</g>
<!-- BWA_MEM&#45;&gt;MACS2 -->
<g id="edge93" class="edge">
<title>BWA_MEM&#45;&gt;MACS2</title>
<path fill="none" stroke="black" d="M2143.38,-665.02C2414.19,-664.4 3478.24,-654.67 3566,-540 3594.43,-502.86 3629.59,-457.5 3545,-360 3514.3,-324.61 3461.29,-312.26 3420.72,-308.23"/>
<polygon fill="black" stroke="black" points="3420.96,-304.73 3410.69,-307.37 3420.36,-311.71 3420.96,-304.73"/>
</g>
<!-- BWA_MEM&#45;&gt;MACS2_ANNOTATE -->
<g id="edge94" class="edge">
<title>BWA_MEM&#45;&gt;MACS2_ANNOTATE</title>
<path fill="none" stroke="black" d="M2028.2,-656.23C1929.94,-638.72 1725.24,-596.23 1684,-540 1601.57,-427.63 1807.38,-304.08 1900.3,-255.87"/>
<polygon fill="black" stroke="black" points="1902.15,-258.86 1909.45,-251.18 1898.96,-252.63 1902.15,-258.86"/>
</g>
<!-- BWA_MEM&#45;&gt;MACS2_QC -->
<g id="edge95" class="edge">
<title>BWA_MEM&#45;&gt;MACS2_QC</title>
<path fill="none" stroke="black" d="M2019.31,-663.18C1838.44,-657.54 1317.66,-639.12 1246,-612 1050.77,-538.12 966.8,-511.47 875,-324 867.96,-309.63 864.45,-300.02 875,-288 933.33,-221.55 1546.6,-179.64 1759.04,-167.03"/>
<polygon fill="black" stroke="black" points="1759.38,-170.51 1769.15,-166.43 1758.96,-163.52 1759.38,-170.51"/>
</g>
<!-- BWA_MEM&#45;&gt;CONSENSUS_PEAKS -->
<g id="edge96" class="edge">
<title>BWA_MEM&#45;&gt;CONSENSUS_PEAKS</title>
<path fill="none" stroke="black" d="M2143.23,-663.88C2390.8,-659.26 3298.42,-640.51 3424,-612 3580.85,-576.39 3667.9,-602.56 3756,-468 3798.79,-402.65 3753.05,-306.42 3726.39,-260.8"/>
<polygon fill="black" stroke="black" points="3729.32,-258.9 3721.18,-252.12 3723.32,-262.5 3729.32,-258.9"/>
</g>
<!-- BWA_MEM&#45;&gt;CONSENSUS_PEAKS_ANNOTATE -->
<g id="edge97" class="edge">
<title>BWA_MEM&#45;&gt;CONSENSUS_PEAKS_ANNOTATE</title>
<path fill="none" stroke="black" d="M2143.43,-665.45C2385.61,-666.75 3262.9,-667.47 3535,-612 3761.11,-565.91 3804.3,-487.64 3967,-324 3996.98,-293.85 4011.57,-290.32 4030,-252 4039.33,-232.6 4043.26,-208.46 4044.89,-190.21"/>
<polygon fill="black" stroke="black" points="4048.38,-190.46 4045.61,-180.23 4041.4,-189.95 4048.38,-190.46"/>
</g>
<!-- BWA_MEM&#45;&gt;CONSENSUS_PEAKS_COUNTS -->
<g id="edge98" class="edge">
<title>BWA_MEM&#45;&gt;CONSENSUS_PEAKS_COUNTS</title>
<path fill="none" stroke="black" d="M2143.39,-665.51C2279.76,-665.64 2614.19,-660.47 2889,-612 3001.61,-592.14 3057.26,-622.92 3136,-540 3183.43,-490.05 3167.82,-268.12 3160.7,-190.18"/>
<polygon fill="black" stroke="black" points="3164.18,-189.8 3159.76,-180.17 3157.21,-190.45 3164.18,-189.8"/>
</g>
<!-- BWA_MEM&#45;&gt;CONSENSUS_PEAKS_DESEQ2 -->
<g id="edge99" class="edge">
<title>BWA_MEM&#45;&gt;CONSENSUS_PEAKS_DESEQ2</title>
<path fill="none" stroke="black" d="M2143.39,-665.51C2279.76,-665.64 2614.19,-660.47 2889,-612 3001.61,-592.14 3046.72,-611.45 3136,-540 3210.73,-480.2 3334.82,-204.23 3372.69,-117.3"/>
<polygon fill="black" stroke="black" points="3375.9,-118.68 3376.67,-108.12 3369.48,-115.9 3375.9,-118.68"/>
</g>
<!-- BWA_MEM&#45;&gt;IGV -->
<g id="edge100" class="edge">
<title>BWA_MEM&#45;&gt;IGV</title>
<path fill="none" stroke="black" d="M2143.52,-664.24C2412.8,-660.79 3466.61,-645.26 3611,-612 3687.78,-594.31 3701.16,-572.37 3773,-540 3983.71,-445.07 4099.99,-503.14 4246,-324 4316.76,-237.18 4338.35,-139.54 4249,-72 4185.36,-23.9 3938.14,-18.85 3842.28,-18.75"/>
<polygon fill="black" stroke="black" points="3842.16,-15.25 3832.16,-18.75 3842.16,-22.25 3842.16,-15.25"/>
</g>
<!-- BWA_MEM&#45;&gt;MULTIQC -->
<g id="edge101" class="edge">
<title>BWA_MEM&#45;&gt;MULTIQC</title>
<path fill="none" stroke="black" d="M2018.66,-664.52C1828.69,-662.6 1259.05,-653.46 1079,-612 878.7,-565.88 852.17,-482.8 653,-432 497.19,-392.26 448.71,-436.14 293,-396 176.71,-366.02 76,-355.09 76,-235 76,-235 76,-235 76,-161 76,-118.33 76.98,-96.38 112,-72 183.46,-22.25 1508.67,-19.02 1824.05,-18.96"/>
<polygon fill="black" stroke="black" points="1824.4,-22.46 1834.4,-18.96 1824.4,-15.46 1824.4,-22.46"/>
</g>
<!-- SORT_BAM&#45;&gt;PLOTPROFILE -->
<g id="edge102" class="edge">
<title>SORT_BAM&#45;&gt;PLOTPROFILE</title>
<path fill="none" stroke="black" d="M2120.49,-592.55C1982.44,-590.76 1644.98,-582.06 1366,-540 1161.76,-509.21 1116.46,-472.85 914,-432 865.87,-422.29 727.77,-433.44 696,-396 663.37,-357.54 690.75,-295.21 710.71,-260.46"/>
<polygon fill="black" stroke="black" points="713.73,-262.23 715.83,-251.84 707.72,-258.65 713.73,-262.23"/>
</g>
<!-- SORT_BAM&#45;&gt;MERGED_BAM -->
<g id="edge103" class="edge">
<title>SORT_BAM&#45;&gt;MERGED_BAM</title>
<path fill="none" stroke="black" d="M2138.28,-581.36C2092.32,-569.66 2021.18,-551.55 1970.33,-538.61"/>
<polygon fill="black" stroke="black" points="1971,-535.17 1960.45,-536.1 1969.28,-541.95 1971,-535.17"/>
</g>
<!-- SORT_BAM&#45;&gt;MERGED_BAM_FILTER -->
<g id="edge104" class="edge">
<title>SORT_BAM&#45;&gt;MERGED_BAM_FILTER</title>
<path fill="none" stroke="black" d="M2215.7,-578.34C2270.63,-552.93 2383.66,-500.65 2446.46,-471.6"/>
<polygon fill="black" stroke="black" points="2448.11,-474.69 2455.72,-467.32 2445.17,-468.34 2448.11,-474.69"/>
</g>
<!-- SORT_BAM&#45;&gt;PRESEQ -->
<g id="edge105" class="edge">
<title>SORT_BAM&#45;&gt;PRESEQ</title>
<path fill="none" stroke="black" d="M2120.36,-592.94C1950.3,-592.14 1471.29,-585.66 1076,-540 917.53,-521.69 732.71,-482.61 644.7,-462.89"/>
<polygon fill="black" stroke="black" points="645.23,-459.43 634.71,-460.65 643.7,-466.26 645.23,-459.43"/>
</g>
<!-- SORT_BAM&#45;&gt;MERGED_BAM_REMOVE_ORPHAN -->
<g id="edge106" class="edge">
<title>SORT_BAM&#45;&gt;MERGED_BAM_REMOVE_ORPHAN</title>
<path fill="none" stroke="black" d="M2185.84,-575.85C2189.82,-538.83 2199.24,-451.18 2204.06,-406.39"/>
<polygon fill="black" stroke="black" points="2207.56,-406.55 2205.15,-396.23 2200.6,-405.8 2207.56,-406.55"/>
</g>
<!-- SORT_BAM&#45;&gt;PICARD_METRICS -->
<g id="edge107" class="edge">
<title>SORT_BAM&#45;&gt;PICARD_METRICS</title>
<path fill="none" stroke="black" d="M2120.28,-593.52C2012.91,-592.98 1789.86,-585.8 1608,-540 1449.26,-500.02 1417.21,-465.49 1269,-396 1222.26,-374.09 1169.66,-346.61 1134.87,-328.03"/>
<polygon fill="black" stroke="black" points="1136.45,-324.91 1125.98,-323.27 1133.14,-331.08 1136.45,-324.91"/>
</g>
<!-- SORT_BAM&#45;&gt;PHANTOMPEAKQUALTOOLS -->
<g id="edge108" class="edge">
<title>SORT_BAM&#45;&gt;PHANTOMPEAKQUALTOOLS</title>
<path fill="none" stroke="black" d="M2245.2,-588.84C2361.53,-577.77 2616.18,-537.81 2765,-396 2783.36,-378.51 2796.81,-352.77 2805.11,-333.47"/>
<polygon fill="black" stroke="black" points="2808.42,-334.62 2808.98,-324.04 2801.94,-331.96 2808.42,-334.62"/>
</g>
<!-- SORT_BAM&#45;&gt;BIGWIG -->
<g id="edge109" class="edge">
<title>SORT_BAM&#45;&gt;BIGWIG</title>
<path fill="none" stroke="black" d="M2119.88,-593.67C1996.25,-593.74 1716.91,-587.98 1488,-540 1346.03,-510.24 1320.1,-469.61 1180,-432 1096.99,-409.72 1061.41,-443.84 990,-396 967.48,-380.92 951.71,-353.82 942.35,-333.48"/>
<polygon fill="black" stroke="black" points="945.47,-331.88 938.27,-324.11 939.06,-334.68 945.47,-331.88"/>
</g>
<!-- SORT_BAM&#45;&gt;PLOTFINGERPRINT -->
<g id="edge110" class="edge">
<title>SORT_BAM&#45;&gt;PLOTFINGERPRINT</title>
<path fill="none" stroke="black" d="M2121.48,-590.3C2005.72,-584.66 1762.63,-569.61 1684,-540 1555.08,-491.46 1429.73,-380.24 1378.36,-331.1"/>
<polygon fill="black" stroke="black" points="1380.67,-328.47 1371.04,-324.04 1375.81,-333.5 1380.67,-328.47"/>
</g>
<!-- SORT_BAM&#45;&gt;MACS2 -->
<g id="edge111" class="edge">
<title>SORT_BAM&#45;&gt;MACS2</title>
<path fill="none" stroke="black" d="M2247.69,-592.49C2438.98,-590.52 3006.35,-581.25 3186,-540 3346.74,-503.09 3436.77,-533.4 3528,-396 3558.52,-350.04 3475.43,-325.76 3416.96,-314.71"/>
<polygon fill="black" stroke="black" points="3417.55,-311.26 3407.09,-312.92 3416.3,-318.15 3417.55,-311.26"/>
</g>
<!-- SORT_BAM&#45;&gt;MACS2_ANNOTATE -->
<g id="edge112" class="edge">
<title>SORT_BAM&#45;&gt;MACS2_ANNOTATE</title>
<path fill="none" stroke="black" d="M2167.9,-576.43C2136.8,-543.83 2067.44,-468.26 2021,-396 1992.24,-351.25 1967.05,-294.31 1953.52,-261.52"/>
<polygon fill="black" stroke="black" points="1956.72,-260.1 1949.71,-252.16 1950.24,-262.75 1956.72,-260.1"/>
</g>
<!-- SORT_BAM&#45;&gt;MACS2_QC -->
<g id="edge113" class="edge">
<title>SORT_BAM&#45;&gt;MACS2_QC</title>
<path fill="none" stroke="black" d="M2120.3,-593.36C2026.02,-592.37 1856.34,-584.3 1818,-540 1729.94,-438.27 1791.6,-257 1819.38,-189.39"/>
<polygon fill="black" stroke="black" points="1822.72,-190.48 1823.37,-179.9 1816.27,-187.77 1822.72,-190.48"/>
</g>
<!-- SORT_BAM&#45;&gt;CONSENSUS_PEAKS -->
<g id="edge114" class="edge">
<title>SORT_BAM&#45;&gt;CONSENSUS_PEAKS</title>
<path fill="none" stroke="black" d="M2247.83,-592.51C2453.4,-590.55 3096.58,-581.18 3300,-540 3390.96,-521.59 3418.88,-519.63 3496,-468 3583.47,-409.44 3659.91,-307.98 3692.81,-260.67"/>
<polygon fill="black" stroke="black" points="3695.84,-262.44 3698.62,-252.22 3690.07,-258.47 3695.84,-262.44"/>
</g>
<!-- SORT_BAM&#45;&gt;CONSENSUS_PEAKS_ANNOTATE -->
<g id="edge115" class="edge">
<title>SORT_BAM&#45;&gt;CONSENSUS_PEAKS_ANNOTATE</title>
<path fill="none" stroke="black" d="M2247.8,-592.51C2462.82,-590.48 3159.8,-580.84 3380,-540 3638.62,-492.04 3722.03,-483.75 3931,-324 3967.71,-295.94 3979.37,-289.76 4006,-252 4019.59,-232.72 4030.23,-208.09 4037.11,-189.63"/>
<polygon fill="black" stroke="black" points="4040.45,-190.68 4040.54,-180.08 4033.86,-188.31 4040.45,-190.68"/>
</g>
<!-- SORT_BAM&#45;&gt;CONSENSUS_PEAKS_COUNTS -->
<g id="edge116" class="edge">
<title>SORT_BAM&#45;&gt;CONSENSUS_PEAKS_COUNTS</title>
<path fill="none" stroke="black" d="M2247.49,-591.73C2451.75,-587.35 3080.39,-571.35 3110,-540 3208.91,-435.27 3043.46,-348.07 3101,-216 3105.98,-204.58 3114.76,-194.51 3123.96,-186.3"/>
<polygon fill="black" stroke="black" points="3126.27,-188.94 3131.72,-179.86 3121.79,-183.56 3126.27,-188.94"/>
</g>
<!-- SORT_BAM&#45;&gt;CONSENSUS_PEAKS_DESEQ2 -->
<g id="edge117" class="edge">
<title>SORT_BAM&#45;&gt;CONSENSUS_PEAKS_DESEQ2</title>
<path fill="none" stroke="black" d="M2247.31,-591.6C2446.45,-586.88 3048.57,-570.16 3077,-540 3200.46,-409 2873.55,-279.54 2992,-144 3008.83,-124.74 3138.77,-109.95 3244.51,-100.95"/>
<polygon fill="black" stroke="black" points="3244.99,-104.42 3254.66,-100.1 3244.4,-97.45 3244.99,-104.42"/>
</g>
<!-- SORT_BAM&#45;&gt;IGV -->
<g id="edge118" class="edge">
<title>SORT_BAM&#45;&gt;IGV</title>
<path fill="none" stroke="black" d="M2247.76,-592.21C2474.74,-589.1 3242.93,-576.11 3486,-540 3737.64,-502.61 3810,-504.72 4040,-396 4188.93,-325.6 4347.27,-176.59 4220,-72 4162.78,-24.98 3933.78,-19.22 3842.16,-18.84"/>
<polygon fill="black" stroke="black" points="3841.96,-15.34 3831.95,-18.82 3841.94,-22.34 3841.96,-15.34"/>
</g>
<!-- SORT_BAM&#45;&gt;MULTIQC -->
<g id="edge119" class="edge">
<title>SORT_BAM&#45;&gt;MULTIQC</title>
<path fill="none" stroke="black" d="M2121.35,-590.55C2024.67,-585.78 1844.54,-572.69 1790,-540 1680.49,-474.37 1622,-434.67 1622,-307 1622,-307 1622,-307 1622,-161 1622,-68.58 1747.72,-36.16 1827.27,-24.89"/>
<polygon fill="black" stroke="black" points="1827.76,-28.36 1837.21,-23.56 1826.83,-21.42 1827.76,-28.36"/>
</g>
<!-- MERGED_BAM&#45;&gt;PLOTPROFILE -->
<g id="edge120" class="edge">
<title>MERGED_BAM&#45;&gt;PLOTPROFILE</title>
<path fill="none" stroke="black" d="M1830.18,-516.76C1718.12,-510.06 1506.52,-494.95 1328,-468 1308.91,-465.12 1005.93,-403.17 988,-396 897.26,-359.68 802.45,-292.66 756.06,-257.65"/>
<polygon fill="black" stroke="black" points="758.06,-254.77 747.98,-251.5 753.82,-260.34 758.06,-254.77"/>
</g>
<!-- MERGED_BAM&#45;&gt;MERGED_BAM_FILTER -->
<g id="edge121" class="edge">
<title>MERGED_BAM&#45;&gt;MERGED_BAM_FILTER</title>
<path fill="none" stroke="black" d="M1978.91,-512.59C2081.26,-500.28 2272.46,-477.29 2390.05,-463.14"/>
<polygon fill="black" stroke="black" points="2390.63,-466.6 2400.14,-461.93 2389.8,-459.65 2390.63,-466.6"/>
</g>
<!-- MERGED_BAM&#45;&gt;PRESEQ -->
<g id="edge122" class="edge">
<title>MERGED_BAM&#45;&gt;PRESEQ</title>
<path fill="none" stroke="black" d="M1830.13,-516.8C1589.39,-504 867.43,-465.6 653.42,-454.21"/>
<polygon fill="black" stroke="black" points="653.49,-450.71 643.32,-453.68 653.12,-457.7 653.49,-450.71"/>
</g>
<!-- MERGED_BAM&#45;&gt;MERGED_BAM_REMOVE_ORPHAN -->
<g id="edge123" class="edge">
<title>MERGED_BAM&#45;&gt;MERGED_BAM_REMOVE_ORPHAN</title>
<path fill="none" stroke="black" d="M1934.08,-504.86C1964.17,-485.91 2016.51,-454.25 2064,-432 2090.68,-419.5 2121.19,-407.85 2147.15,-398.68"/>
<polygon fill="black" stroke="black" points="2148.58,-401.89 2156.86,-395.29 2146.27,-395.28 2148.58,-401.89"/>
</g>
<!-- MERGED_BAM&#45;&gt;PICARD_METRICS -->
<g id="edge124" class="edge">
<title>MERGED_BAM&#45;&gt;PICARD_METRICS</title>
<path fill="none" stroke="black" d="M1849.62,-509.55C1799.01,-499.51 1724.44,-484.04 1660,-468 1473.28,-421.54 1254.93,-355.95 1153.37,-324.78"/>
<polygon fill="black" stroke="black" points="1154.2,-321.38 1143.61,-321.79 1152.14,-328.07 1154.2,-321.38"/>
</g>
<!-- MERGED_BAM&#45;&gt;PHANTOMPEAKQUALTOOLS -->
<g id="edge125" class="edge">
<title>MERGED_BAM&#45;&gt;PHANTOMPEAKQUALTOOLS</title>
<path fill="none" stroke="black" d="M1962.63,-508.33C2117.08,-471.85 2563.2,-366.48 2740.79,-324.53"/>
<polygon fill="black" stroke="black" points="2741.64,-327.92 2750.57,-322.22 2740.03,-321.11 2741.64,-327.92"/>
</g>
<!-- MERGED_BAM&#45;&gt;BIGWIG -->
<g id="edge126" class="edge">
<title>MERGED_BAM&#45;&gt;BIGWIG</title>
<path fill="none" stroke="black" d="M1839.28,-512.54C1761.67,-502.87 1632.6,-486.04 1522,-468 1437.17,-454.16 1416.92,-445.23 1332,-432 1201.93,-411.74 1158.72,-448.49 1038,-396 1028.73,-391.97 985.89,-354.82 957.59,-329.81"/>
<polygon fill="black" stroke="black" points="959.84,-327.13 950.03,-323.11 955.2,-332.37 959.84,-327.13"/>
</g>
<!-- MERGED_BAM&#45;&gt;PLOTFINGERPRINT -->
<g id="edge127" class="edge">
<title>MERGED_BAM&#45;&gt;PLOTFINGERPRINT</title>
<path fill="none" stroke="black" d="M1867.17,-506.38C1837.26,-495.86 1796.08,-481.25 1760,-468 1675.23,-436.87 1653.98,-429.2 1570,-396 1511.62,-372.92 1444.86,-345.21 1401.21,-326.91"/>
<polygon fill="black" stroke="black" points="1402.29,-323.57 1391.72,-322.92 1399.58,-330.02 1402.29,-323.57"/>
</g>
<!-- MERGED_BAM&#45;&gt;MACS2 -->
<g id="edge128" class="edge">
<title>MERGED_BAM&#45;&gt;MACS2</title>
<path fill="none" stroke="black" d="M1989.48,-518.65C2121.82,-513.96 2393.44,-500.93 2621,-468 2887.94,-429.37 3202.12,-350.01 3318.56,-319.41"/>
<polygon fill="black" stroke="black" points="3319.78,-322.71 3328.56,-316.78 3317.99,-315.94 3319.78,-322.71"/>
</g>
<!-- MERGED_BAM&#45;&gt;MACS2_ANNOTATE -->
<g id="edge129" class="edge">
<title>MERGED_BAM&#45;&gt;MACS2_ANNOTATE</title>
<path fill="none" stroke="black" d="M1894.18,-504.17C1886.54,-494.35 1878,-481.31 1874,-468 1860.19,-422.03 1862.02,-406.48 1874,-360 1883.64,-322.59 1907.12,-284.4 1924.01,-260.24"/>
<polygon fill="black" stroke="black" points="1926.93,-262.18 1929.9,-252.01 1921.24,-258.11 1926.93,-262.18"/>
</g>
<!-- MERGED_BAM&#45;&gt;MACS2_QC -->
<g id="edge130" class="edge">
<title>MERGED_BAM&#45;&gt;MACS2_QC</title>
<path fill="none" stroke="black" d="M1889.07,-504.38C1878.98,-494.82 1867.51,-481.95 1861,-468 1816.99,-373.77 1822.7,-245.62 1827.86,-190.29"/>
<polygon fill="black" stroke="black" points="1831.35,-190.52 1828.87,-180.22 1824.39,-189.82 1831.35,-190.52"/>
</g>
<!-- MERGED_BAM&#45;&gt;CONSENSUS_PEAKS -->
<g id="edge131" class="edge">
<title>MERGED_BAM&#45;&gt;CONSENSUS_PEAKS</title>
<path fill="none" stroke="black" d="M1989.81,-519.06C2138.31,-514.77 2464.35,-502.03 2737,-468 2823.59,-457.19 2843.55,-443.85 2930,-432 3110.35,-407.28 3161.76,-441.59 3338,-396 3452.42,-366.4 3472.33,-334.46 3581,-288 3607.34,-276.74 3636.88,-264.57 3661.04,-254.73"/>
<polygon fill="black" stroke="black" points="3662.41,-257.95 3670.36,-250.95 3659.78,-251.47 3662.41,-257.95"/>
</g>
<!-- MERGED_BAM&#45;&gt;CONSENSUS_PEAKS_ANNOTATE -->
<g id="edge132" class="edge">
<title>MERGED_BAM&#45;&gt;CONSENSUS_PEAKS_ANNOTATE</title>
<path fill="none" stroke="black" d="M1989.37,-518.45C2165.2,-512.53 2597.13,-496.2 2958,-468 3109.49,-456.16 3146.88,-447.91 3298,-432 3450.88,-415.91 3495.78,-443.44 3642,-396 3794.2,-346.62 3952.18,-234.62 4016.3,-186.12"/>
<polygon fill="black" stroke="black" points="4018.53,-188.82 4024.37,-179.98 4014.29,-183.25 4018.53,-188.82"/>
</g>
<!-- MERGED_BAM&#45;&gt;CONSENSUS_PEAKS_COUNTS -->
<g id="edge133" class="edge">
<title>MERGED_BAM&#45;&gt;CONSENSUS_PEAKS_COUNTS</title>
<path fill="none" stroke="black" d="M1916.06,-503.99C1930.63,-471.04 1967.22,-398.36 2021,-360 2212.05,-223.72 2298.12,-258.05 2529,-216 2686.98,-187.23 2870.19,-174.03 2997.98,-168"/>
<polygon fill="black" stroke="black" points="2998.42,-171.49 3008.24,-167.53 2998.09,-164.49 2998.42,-171.49"/>
</g>
<!-- MERGED_BAM&#45;&gt;CONSENSUS_PEAKS_DESEQ2 -->
<g id="edge134" class="edge">
<title>MERGED_BAM&#45;&gt;CONSENSUS_PEAKS_DESEQ2</title>
<path fill="none" stroke="black" d="M1911.17,-503.67C1913.91,-485.29 1919.58,-455.68 1930,-432 1945.59,-396.57 1949.35,-384.88 1979,-360 2049.76,-300.63 2388.24,-170.47 2509,-144 2640.52,-115.17 3008.24,-100.87 3222.82,-94.79"/>
<polygon fill="black" stroke="black" points="3223.02,-98.29 3232.92,-94.51 3222.83,-91.29 3223.02,-98.29"/>
</g>
<!-- MERGED_BAM&#45;&gt;IGV -->
<g id="edge135" class="edge">
<title>MERGED_BAM&#45;&gt;IGV</title>
<path fill="none" stroke="black" d="M1989.86,-519.1C2186.15,-514.05 2683.67,-498.57 2847,-468 2897.98,-458.46 2907.14,-442.17 2958,-432 3151.7,-393.27 3207.5,-435.72 3401,-396 3499.51,-375.78 3771.29,-333.64 3830,-252 3875.28,-189.04 3838.76,-90.74 3817.12,-44.58"/>
<polygon fill="black" stroke="black" points="3820.13,-42.77 3812.63,-35.29 3813.83,-45.82 3820.13,-42.77"/>
</g>
<!-- MERGED_BAM&#45;&gt;MULTIQC -->
<g id="edge136" class="edge">
<title>MERGED_BAM&#45;&gt;MULTIQC</title>
<path fill="none" stroke="black" d="M1829.67,-517.48C1691.09,-510.9 1396.03,-494.88 1148,-468 1038.91,-456.18 263.16,-383.56 171,-324 131.55,-298.5 114,-281.97 114,-235 114,-235 114,-235 114,-161 114,-119.66 108.18,-97.12 141,-72 208.94,-20 1511.5,-18.47 1824.02,-18.86"/>
<polygon fill="black" stroke="black" points="1824.28,-22.36 1834.28,-18.87 1824.29,-15.36 1824.28,-22.36"/>
</g>
<!-- MERGED_BAM_FILTER&#45;&gt;PLOTPROFILE -->
<g id="edge137" class="edge">
<title>MERGED_BAM_FILTER&#45;&gt;PLOTPROFILE</title>
<path fill="none" stroke="black" d="M2384.92,-441.23C2289.26,-433.24 2144.98,-418.71 2021,-396 1925.57,-378.52 1693.85,-303.01 1598,-288 1315.16,-243.7 975.27,-235.92 816.69,-234.89"/>
<polygon fill="black" stroke="black" points="816.52,-231.39 806.5,-234.83 816.48,-238.38 816.52,-231.39"/>
</g>
<!-- MERGED_BAM_FILTER&#45;&gt;MERGED_BAM_REMOVE_ORPHAN -->
<g id="edge138" class="edge">
<title>MERGED_BAM_FILTER&#45;&gt;MERGED_BAM_REMOVE_ORPHAN</title>
<path fill="none" stroke="black" d="M2431.46,-434.33C2387.73,-423.55 2328.03,-408.83 2281.19,-397.29"/>
<polygon fill="black" stroke="black" points="2281.95,-393.87 2271.4,-394.87 2280.27,-400.66 2281.95,-393.87"/>
</g>
<!-- MERGED_BAM_FILTER&#45;&gt;PICARD_METRICS -->
<g id="edge139" class="edge">
<title>MERGED_BAM_FILTER&#45;&gt;PICARD_METRICS</title>
<path fill="none" stroke="black" d="M2374.67,-444.94C2223.73,-438.77 1952.42,-424.59 1722,-396 1632.37,-384.88 1611.29,-373.58 1522,-360 1459.19,-350.45 1291.08,-330.11 1185.79,-317.59"/>
<polygon fill="black" stroke="black" points="1186.15,-314.11 1175.81,-316.4 1185.32,-321.06 1186.15,-314.11"/>
</g>
<!-- MERGED_BAM_FILTER&#45;&gt;PHANTOMPEAKQUALTOOLS -->
<g id="edge140" class="edge">
<title>MERGED_BAM_FILTER&#45;&gt;PHANTOMPEAKQUALTOOLS</title>
<path fill="none" stroke="black" d="M2591.95,-439.99C2636.47,-432.73 2688.07,-419.64 2730,-396 2757.85,-380.3 2782.18,-352.55 2797.59,-332.2"/>
<polygon fill="black" stroke="black" points="2800.53,-334.11 2803.64,-323.99 2794.89,-329.97 2800.53,-334.11"/>
</g>
<!-- MERGED_BAM_FILTER&#45;&gt;BIGWIG -->
<g id="edge141" class="edge">
<title>MERGED_BAM_FILTER&#45;&gt;BIGWIG</title>
<path fill="none" stroke="black" d="M2373.57,-445.68C2190.47,-439.81 1825.98,-425.34 1518,-396 1282.23,-373.54 1221.62,-373.45 990,-324 985.84,-323.11 981.55,-322.08 977.27,-320.97"/>
<polygon fill="black" stroke="black" points="977.93,-317.53 967.37,-318.28 976.1,-324.28 977.93,-317.53"/>
</g>
<!-- MERGED_BAM_FILTER&#45;&gt;PLOTFINGERPRINT -->
<g id="edge142" class="edge">
<title>MERGED_BAM_FILTER&#45;&gt;PLOTFINGERPRINT</title>
<path fill="none" stroke="black" d="M2392.1,-439.6C2290.59,-429.7 2128.1,-413.21 1988,-396 1791.37,-371.85 1561.21,-338.18 1439.53,-319.96"/>
<polygon fill="black" stroke="black" points="1439.93,-316.48 1429.52,-318.46 1438.89,-323.41 1439.93,-316.48"/>
</g>
<!-- MERGED_BAM_FILTER&#45;&gt;MACS2 -->
<g id="edge143" class="edge">
<title>MERGED_BAM_FILTER&#45;&gt;MACS2</title>
<path fill="none" stroke="black" d="M2569.33,-436.27C2745.07,-407.72 3166.85,-339.19 3313.61,-315.35"/>
<polygon fill="black" stroke="black" points="3314.39,-318.77 3323.7,-313.71 3313.27,-311.86 3314.39,-318.77"/>
</g>
<!-- MERGED_BAM_FILTER&#45;&gt;MACS2_ANNOTATE -->
<g id="edge144" class="edge">
<title>MERGED_BAM_FILTER&#45;&gt;MACS2_ANNOTATE</title>
<path fill="none" stroke="black" d="M2477.78,-432.08C2460.61,-411.43 2428.62,-377.15 2393,-360 2302.54,-316.45 2266.84,-350.47 2170,-324 2104.24,-306.02 2031.38,-275.44 1986.38,-255.23"/>
<polygon fill="black" stroke="black" points="1987.77,-252.02 1977.22,-251.08 1984.88,-258.39 1987.77,-252.02"/>
</g>
<!-- MERGED_BAM_FILTER&#45;&gt;MACS2_QC -->
<g id="edge145" class="edge">
<title>MERGED_BAM_FILTER&#45;&gt;MACS2_QC</title>
<path fill="none" stroke="black" d="M2484.23,-431.75C2475.35,-411.41 2457.8,-378.11 2432,-360 2376.59,-321.11 2347.17,-348.35 2284,-324 2190.1,-287.81 2179.48,-250.64 2085,-216 2023.64,-193.5 1950.25,-179.48 1898.18,-171.56"/>
<polygon fill="black" stroke="black" points="1898.46,-168.06 1888.05,-170.05 1897.43,-174.98 1898.46,-168.06"/>
</g>
<!-- MERGED_BAM_FILTER&#45;&gt;CONSENSUS_PEAKS -->
<g id="edge146" class="edge">
<title>MERGED_BAM_FILTER&#45;&gt;CONSENSUS_PEAKS</title>
<path fill="none" stroke="black" d="M2551.14,-434.25C2573.86,-426.13 2598.45,-413.95 2616,-396 2652.13,-359.07 2616.99,-318.07 2659,-288 2677.77,-274.57 3322.25,-249.3 3592.55,-239.27"/>
<polygon fill="black" stroke="black" points="3592.92,-242.75 3602.78,-238.89 3592.66,-235.76 3592.92,-242.75"/>
</g>
<!-- MERGED_BAM_FILTER&#45;&gt;CONSENSUS_PEAKS_ANNOTATE -->
<g id="edge147" class="edge">
<title>MERGED_BAM_FILTER&#45;&gt;CONSENSUS_PEAKS_ANNOTATE</title>
<path fill="none" stroke="black" d="M2607.29,-444.92C2805.6,-437.43 3201.04,-420.02 3338,-396 3562.42,-356.64 3615.03,-327.51 3830,-252 3889.54,-231.09 3956.49,-202.72 3999.85,-183.69"/>
<polygon fill="black" stroke="black" points="4001.26,-186.89 4009,-179.65 3998.44,-180.48 4001.26,-186.89"/>
</g>
<!-- MERGED_BAM_FILTER&#45;&gt;CONSENSUS_PEAKS_COUNTS -->
<g id="edge148" class="edge">
<title>MERGED_BAM_FILTER&#45;&gt;CONSENSUS_PEAKS_COUNTS</title>
<path fill="none" stroke="black" d="M2527.27,-432.79C2544.28,-423.82 2563.87,-411.36 2578,-396 2614.33,-356.5 2589.94,-321.34 2632,-288 2696,-237.27 2916.05,-197.75 3050.41,-177.64"/>
<polygon fill="black" stroke="black" points="3050.96,-181.1 3060.34,-176.17 3049.93,-174.17 3050.96,-181.1"/>
</g>
<!-- MERGED_BAM_FILTER&#45;&gt;CONSENSUS_PEAKS_DESEQ2 -->
<g id="edge149" class="edge">
<title>MERGED_BAM_FILTER&#45;&gt;CONSENSUS_PEAKS_DESEQ2</title>
<path fill="none" stroke="black" d="M2508.84,-431.72C2518.63,-421.76 2530.65,-408.72 2540,-396 2572.77,-351.4 2564.64,-328.84 2602,-288 2639.7,-246.79 2654.54,-239.95 2705,-216 2872.21,-136.64 3084.75,-107.54 3227.1,-96.94"/>
<polygon fill="black" stroke="black" points="3227.5,-100.42 3237.22,-96.21 3227,-93.44 3227.5,-100.42"/>
</g>
<!-- MERGED_BAM_FILTER&#45;&gt;IGV -->
<g id="edge150" class="edge">
<title>MERGED_BAM_FILTER&#45;&gt;IGV</title>
<path fill="none" stroke="black" d="M2599.2,-441.85C2811.28,-426.63 3273.63,-387.16 3419,-324 3501.84,-288.01 3711.2,-102.74 3780.97,-39.89"/>
<polygon fill="black" stroke="black" points="3783.33,-42.48 3788.4,-33.18 3778.64,-37.28 3783.33,-42.48"/>
</g>
<!-- MERGED_BAM_FILTER&#45;&gt;MULTIQC -->
<g id="edge151" class="edge">
<title>MERGED_BAM_FILTER&#45;&gt;MULTIQC</title>
<path fill="none" stroke="black" d="M2487.32,-431.89C2482.92,-413.43 2474.55,-383.51 2462,-360 2423.7,-288.23 2413.48,-265.61 2349,-216 2220.23,-116.92 2034.05,-57.22 1943.89,-32.42"/>
<polygon fill="black" stroke="black" points="1944.73,-29.03 1934.16,-29.78 1942.9,-35.78 1944.73,-29.03"/>
</g>
<!-- PRESEQ&#45;&gt;MULTIQC -->
<g id="edge152" class="edge">
<title>PRESEQ&#45;&gt;MULTIQC</title>
<path fill="none" stroke="black" d="M542.49,-446.65C420.13,-440.56 115.16,-422.84 78,-396 42.84,-370.61 38,-350.37 38,-307 38,-307 38,-307 38,-161 38,-120.03 29.84,-97.38 62,-72 132.42,-16.42 1503.01,-17.66 1824.1,-18.72"/>
<polygon fill="black" stroke="black" points="1824.18,-22.22 1834.19,-18.76 1824.2,-15.22 1824.18,-22.22"/>
</g>
<!-- MERGED_BAM_REMOVE_ORPHAN&#45;&gt;PLOTPROFILE -->
<g id="edge153" class="edge">
<title>MERGED_BAM_REMOVE_ORPHAN&#45;&gt;PLOTPROFILE</title>
<path fill="none" stroke="black" d="M2141.62,-361.26C2053.33,-340.69 1890.8,-305.27 1750,-288 1406.71,-245.89 994.63,-237.17 816.38,-235.42"/>
<polygon fill="black" stroke="black" points="816.3,-231.92 806.26,-235.32 816.23,-238.91 816.3,-231.92"/>
</g>
<!-- MERGED_BAM_REMOVE_ORPHAN&#45;&gt;PICARD_METRICS -->
<g id="edge154" class="edge">
<title>MERGED_BAM_REMOVE_ORPHAN&#45;&gt;PICARD_METRICS</title>
<path fill="none" stroke="black" d="M2043.38,-371.17C1850.9,-363.58 1521.84,-348.34 1240,-324 1221.61,-322.41 1201.94,-320.34 1183.24,-318.19"/>
<polygon fill="black" stroke="black" points="1183.6,-314.71 1173.26,-317.03 1182.78,-321.66 1183.6,-314.71"/>
</g>
<!-- MERGED_BAM_REMOVE_ORPHAN&#45;&gt;PHANTOMPEAKQUALTOOLS -->
<g id="edge155" class="edge">
<title>MERGED_BAM_REMOVE_ORPHAN&#45;&gt;PHANTOMPEAKQUALTOOLS</title>
<path fill="none" stroke="black" d="M2319.23,-364.08C2428.2,-351.53 2592.73,-332.59 2701.97,-320.01"/>
<polygon fill="black" stroke="black" points="2702.51,-323.47 2712.04,-318.85 2701.7,-316.52 2702.51,-323.47"/>
</g>
<!-- MERGED_BAM_REMOVE_ORPHAN&#45;&gt;BIGWIG -->
<g id="edge156" class="edge">
<title>MERGED_BAM_REMOVE_ORPHAN&#45;&gt;BIGWIG</title>
<path fill="none" stroke="black" d="M2033.38,-374.6C1746.4,-369.76 1185.4,-356.4 990,-324 985.57,-323.27 981,-322.3 976.47,-321.21"/>
<polygon fill="black" stroke="black" points="977.21,-317.78 966.65,-318.63 975.43,-324.55 977.21,-317.78"/>
</g>
<!-- MERGED_BAM_REMOVE_ORPHAN&#45;&gt;PLOTFINGERPRINT -->
<g id="edge157" class="edge">
<title>MERGED_BAM_REMOVE_ORPHAN&#45;&gt;PLOTFINGERPRINT</title>
<path fill="none" stroke="black" d="M2074.19,-366.1C1903.56,-352.1 1611.04,-328.09 1456.53,-315.41"/>
<polygon fill="black" stroke="black" points="1456.36,-311.89 1446.11,-314.56 1455.79,-318.86 1456.36,-311.89"/>
</g>
<!-- MERGED_BAM_REMOVE_ORPHAN&#45;&gt;MACS2 -->
<g id="edge158" class="edge">
<title>MERGED_BAM_REMOVE_ORPHAN&#45;&gt;MACS2</title>
<path fill="none" stroke="black" d="M2354.54,-368.08C2613.75,-352.41 3139.57,-320.63 3310.2,-310.31"/>
<polygon fill="black" stroke="black" points="3310.44,-313.8 3320.21,-309.71 3310.01,-306.82 3310.44,-313.8"/>
</g>
<!-- MERGED_BAM_REMOVE_ORPHAN&#45;&gt;MACS2_ANNOTATE -->
<g id="edge159" class="edge">
<title>MERGED_BAM_REMOVE_ORPHAN&#45;&gt;MACS2_ANNOTATE</title>
<path fill="none" stroke="black" d="M2147.35,-361.05C2118.77,-352.17 2084.61,-339.72 2056,-324 2023.06,-305.9 1989.79,-278.32 1967.97,-258.66"/>
<polygon fill="black" stroke="black" points="1970.21,-255.97 1960.47,-251.81 1965.49,-261.14 1970.21,-255.97"/>
</g>
<!-- MERGED_BAM_REMOVE_ORPHAN&#45;&gt;MACS2_QC -->
<g id="edge160" class="edge">
<title>MERGED_BAM_REMOVE_ORPHAN&#45;&gt;MACS2_QC</title>
<path fill="none" stroke="black" d="M2178.56,-360.15C2163.75,-350.61 2145.9,-337.84 2132,-324 2090.23,-282.4 2103.92,-248.89 2055,-216 2010.04,-185.78 1949.89,-172.7 1903.24,-167.09"/>
<polygon fill="black" stroke="black" points="1903.53,-163.6 1893.2,-165.97 1902.75,-170.55 1903.53,-163.6"/>
</g>
<!-- MERGED_BAM_REMOVE_ORPHAN&#45;&gt;CONSENSUS_PEAKS -->
<g id="edge161" class="edge">
<title>MERGED_BAM_REMOVE_ORPHAN&#45;&gt;CONSENSUS_PEAKS</title>
<path fill="none" stroke="black" d="M2300.85,-362.72C2359.07,-353.22 2435.25,-339.64 2502,-324 2557.87,-310.91 2569.4,-297.47 2626,-288 2719.13,-272.43 3331,-248.75 3592.17,-239.2"/>
<polygon fill="black" stroke="black" points="3592.58,-242.69 3602.45,-238.83 3592.33,-235.7 3592.58,-242.69"/>
</g>
<!-- MERGED_BAM_REMOVE_ORPHAN&#45;&gt;CONSENSUS_PEAKS_ANNOTATE -->
<g id="edge162" class="edge">
<title>MERGED_BAM_REMOVE_ORPHAN&#45;&gt;CONSENSUS_PEAKS_ANNOTATE</title>
<path fill="none" stroke="black" d="M2300.68,-362.67C2344.29,-354.28 2396.29,-341.75 2441,-324 2470.26,-312.38 2471.99,-297.51 2502,-288 2753.32,-208.33 3525.35,-177.38 3873.07,-167.25"/>
<polygon fill="black" stroke="black" points="3873.34,-170.74 3883.23,-166.95 3873.13,-163.74 3873.34,-170.74"/>
</g>
<!-- MERGED_BAM_REMOVE_ORPHAN&#45;&gt;CONSENSUS_PEAKS_COUNTS -->
<g id="edge163" class="edge">
<title>MERGED_BAM_REMOVE_ORPHAN&#45;&gt;CONSENSUS_PEAKS_COUNTS</title>
<path fill="none" stroke="black" d="M2269.28,-361.1C2304.52,-351.52 2349.17,-338.41 2388,-324 2496.9,-283.58 2513.82,-246.16 2626,-216 2746.27,-183.67 2886.6,-170.67 2992.93,-165.62"/>
<polygon fill="black" stroke="black" points="2993.29,-169.1 3003.12,-165.15 2992.97,-162.11 2993.29,-169.1"/>
</g>
<!-- MERGED_BAM_REMOVE_ORPHAN&#45;&gt;CONSENSUS_PEAKS_DESEQ2 -->
<g id="edge164" class="edge">
<title>MERGED_BAM_REMOVE_ORPHAN&#45;&gt;CONSENSUS_PEAKS_DESEQ2</title>
<path fill="none" stroke="black" d="M2266.18,-361C2292.94,-352.31 2324.26,-340.02 2350,-324 2369.75,-311.71 2370.08,-302.83 2388,-288 2472.39,-218.18 2484.93,-181.07 2588,-144 2699.85,-103.77 3019.54,-93.66 3218.09,-91.37"/>
<polygon fill="black" stroke="black" points="3218.38,-94.87 3228.34,-91.26 3218.3,-87.87 3218.38,-94.87"/>
</g>
<!-- MERGED_BAM_REMOVE_ORPHAN&#45;&gt;IGV -->
<g id="edge165" class="edge">
<title>MERGED_BAM_REMOVE_ORPHAN&#45;&gt;IGV</title>
<path fill="none" stroke="black" d="M2238.56,-360.27C2276.75,-337.47 2336,-292.79 2336,-235 2336,-235 2336,-235 2336,-161 2336,-12.92 3534.68,-16.51 3765.72,-18.58"/>
<polygon fill="black" stroke="black" points="3765.95,-22.08 3775.99,-18.67 3766.02,-15.08 3765.95,-22.08"/>
</g>
<!-- MERGED_BAM_REMOVE_ORPHAN&#45;&gt;MULTIQC -->
<g id="edge166" class="edge">
<title>MERGED_BAM_REMOVE_ORPHAN&#45;&gt;MULTIQC</title>
<path fill="none" stroke="black" d="M2195.21,-359.99C2174.19,-330 2128.36,-266.13 2085,-216 2027.83,-149.91 1953.87,-78.19 1915.9,-42.27"/>
<polygon fill="black" stroke="black" points="1918.04,-39.48 1908.37,-35.17 1913.24,-44.57 1918.04,-39.48"/>
</g>
<!-- PICARD_METRICS&#45;&gt;MULTIQC -->
<g id="edge167" class="edge">
<title>PICARD_METRICS&#45;&gt;MULTIQC</title>
<path fill="none" stroke="black" d="M1120.59,-288.55C1186.4,-245.38 1373.27,-128.3 1546,-72 1640.32,-41.26 1755.08,-28.16 1825.58,-22.71"/>
<polygon fill="black" stroke="black" points="1825.94,-26.19 1835.65,-21.96 1825.42,-19.21 1825.94,-26.19"/>
</g>
<!-- PHANTOMPEAKQUALTOOLS&#45;&gt;MULTIQC -->
<g id="edge168" class="edge">
<title>PHANTOMPEAKQUALTOOLS&#45;&gt;MULTIQC</title>
<path fill="none" stroke="black" d="M2695.96,-295.36C2624.02,-287.44 2540.82,-273.87 2512,-252 2441.37,-198.4 2498.57,-122.93 2426,-72 2388.35,-45.58 2091.5,-28.42 1956.92,-21.93"/>
<polygon fill="black" stroke="black" points="1956.9,-18.42 1946.74,-21.44 1956.56,-25.42 1956.9,-18.42"/>
</g>
<!-- BIGWIG&#45;&gt;PLOTPROFILE -->
<g id="edge169" class="edge">
<title>BIGWIG&#45;&gt;PLOTPROFILE</title>
<path fill="none" stroke="black" d="M897.69,-293.28C865.15,-282.17 815.83,-265.33 778.56,-252.6"/>
<polygon fill="black" stroke="black" points="779.47,-249.22 768.87,-249.3 777.21,-255.84 779.47,-249.22"/>
</g>
<!-- BIGWIG&#45;&gt;IGV -->
<g id="edge170" class="edge">
<title>BIGWIG&#45;&gt;IGV</title>
<path fill="none" stroke="black" d="M967.74,-293.92C975.07,-291.82 982.76,-289.74 990,-288 1327.72,-207.06 1414.94,-198.01 1758,-144 2007.63,-104.7 2070.13,-92.54 2322,-72 2894.77,-25.3 3595.41,-19.74 3765.48,-19.09"/>
<polygon fill="black" stroke="black" points="3765.7,-22.59 3775.69,-19.05 3765.68,-15.59 3765.7,-22.59"/>
</g>
<!-- BIGWIG&#45;&gt;MULTIQC -->
<g id="edge171" class="edge">
<title>BIGWIG&#45;&gt;MULTIQC</title>
<path fill="none" stroke="black" d="M956.73,-290.5C1029.32,-248.69 1249.15,-127.38 1448,-72 1578.27,-35.72 1736.9,-24.27 1824.61,-20.66"/>
<polygon fill="black" stroke="black" points="1824.84,-24.16 1834.69,-20.27 1824.56,-17.16 1824.84,-24.16"/>
</g>
<!-- PLOTFINGERPRINT&#45;&gt;MULTIQC -->
<g id="edge172" class="edge">
<title>PLOTFINGERPRINT&#45;&gt;MULTIQC</title>
<path fill="none" stroke="black" d="M1366.67,-288.12C1400.46,-244.41 1497.75,-127.14 1608,-72 1676.89,-37.55 1765.37,-25.37 1824.91,-21.13"/>
<polygon fill="black" stroke="black" points="1825.19,-24.62 1834.94,-20.47 1824.73,-17.64 1825.19,-24.62"/>
</g>
<!-- MACS2&#45;&gt;MACS2_ANNOTATE -->
<g id="edge173" class="edge">
<title>MACS2&#45;&gt;MACS2_ANNOTATE</title>
<path fill="none" stroke="black" d="M3320.09,-302.79C3123.96,-293.13 2339.43,-254.51 2050.52,-240.29"/>
<polygon fill="black" stroke="black" points="2050.61,-236.79 2040.45,-239.8 2050.27,-243.78 2050.61,-236.79"/>
</g>
<!-- MACS2&#45;&gt;MACS2_QC -->
<g id="edge174" class="edge">
<title>MACS2&#45;&gt;MACS2_QC</title>
<path fill="none" stroke="black" d="M3321.15,-300.94C3106.48,-281.07 2165.91,-194 1900.79,-169.46"/>
<polygon fill="black" stroke="black" points="1900.81,-165.95 1890.53,-168.51 1900.16,-172.92 1900.81,-165.95"/>
</g>
<!-- MACS2&#45;&gt;CONSENSUS_PEAKS -->
<g id="edge175" class="edge">
<title>MACS2&#45;&gt;CONSENSUS_PEAKS</title>
<path fill="none" stroke="black" d="M3404.58,-296.97C3460.16,-285.69 3562.47,-264.93 3633.27,-250.57"/>
<polygon fill="black" stroke="black" points="3634.37,-253.92 3643.48,-248.5 3632.98,-247.06 3634.37,-253.92"/>
</g>
<!-- MACS2&#45;&gt;CONSENSUS_PEAKS_ANNOTATE -->
<g id="edge176" class="edge">
<title>MACS2&#45;&gt;CONSENSUS_PEAKS_ANNOTATE</title>
<path fill="none" stroke="black" d="M3398.12,-293.51C3427.46,-283.16 3471.36,-267.27 3509,-252 3545.51,-237.19 3552,-226.39 3590,-216 3684.66,-190.11 3793.75,-176.87 3881.49,-170.09"/>
<polygon fill="black" stroke="black" points="3881.83,-173.57 3891.54,-169.33 3881.31,-166.59 3881.83,-173.57"/>
</g>
<!-- MACS2&#45;&gt;CONSENSUS_PEAKS_COUNTS -->
<g id="edge177" class="edge">
<title>MACS2&#45;&gt;CONSENSUS_PEAKS_COUNTS</title>
<path fill="none" stroke="black" d="M3360.42,-287.76C3354.25,-267.75 3341.37,-235.07 3319,-216 3299.81,-199.64 3275.43,-188.3 3251.48,-180.44"/>
<polygon fill="black" stroke="black" points="3252.21,-177 3241.62,-177.39 3250.14,-183.69 3252.21,-177"/>
</g>
<!-- MACS2&#45;&gt;CONSENSUS_PEAKS_DESEQ2 -->
<g id="edge178" class="edge">
<title>MACS2&#45;&gt;CONSENSUS_PEAKS_DESEQ2</title>
<path fill="none" stroke="black" d="M3377.41,-288.32C3384.05,-278.34 3391.55,-265.09 3395,-252 3407.05,-206.24 3398.41,-150.78 3391.14,-118.33"/>
<polygon fill="black" stroke="black" points="3394.46,-117.19 3388.76,-108.26 3387.65,-118.8 3394.46,-117.19"/>
</g>
<!-- MACS2&#45;&gt;IGV -->
<g id="edge179" class="edge">
<title>MACS2&#45;&gt;IGV</title>
<path fill="none" stroke="black" d="M3378.76,-288.84C3415.35,-246.87 3519.77,-133.44 3630,-72 3673.93,-47.51 3730.56,-32.98 3767.07,-25.49"/>
<polygon fill="black" stroke="black" points="3768.13,-28.85 3777.26,-23.48 3766.77,-21.98 3768.13,-28.85"/>
</g>
<!-- MACS2&#45;&gt;MULTIQC -->
<g id="edge180" class="edge">
<title>MACS2&#45;&gt;MULTIQC</title>
<path fill="none" stroke="black" d="M3366.15,-287.96C3367.37,-254.94 3364.92,-182.16 3324,-144 3297.98,-119.74 3047.24,-76.86 3012,-72 2806.3,-43.64 2165.99,-25.76 1957.41,-20.57"/>
<polygon fill="black" stroke="black" points="1957.31,-17.07 1947.22,-20.32 1957.13,-24.07 1957.31,-17.07"/>
</g>
<!-- MACS2_ANNOTATE&#45;&gt;MACS2_QC -->
<g id="edge181" class="edge">
<title>MACS2_ANNOTATE&#45;&gt;MACS2_QC</title>
<path fill="none" stroke="black" d="M1916.74,-216.59C1901.25,-206.9 1881.48,-194.55 1864.82,-184.14"/>
<polygon fill="black" stroke="black" points="1866.28,-180.92 1855.94,-178.59 1862.57,-186.86 1866.28,-180.92"/>
</g>
<!-- MACS2_ANNOTATE&#45;&gt;MULTIQC -->
<g id="edge182" class="edge">
<title>MACS2_ANNOTATE&#45;&gt;MULTIQC</title>
<path fill="none" stroke="black" d="M1938.83,-215.85C1929.82,-178.75 1908.45,-90.81 1897.59,-46.1"/>
<polygon fill="black" stroke="black" points="1900.95,-45.12 1895.19,-36.23 1894.15,-46.78 1900.95,-45.12"/>
</g>
<!-- MACS2_QC&#45;&gt;MULTIQC -->
<g id="edge183" class="edge">
<title>MACS2_QC&#45;&gt;MULTIQC</title>
<path fill="none" stroke="black" d="M1838.24,-143.87C1848.55,-119.46 1867.58,-74.43 1879.75,-45.64"/>
<polygon fill="black" stroke="black" points="1883.07,-46.76 1883.74,-36.19 1876.62,-44.04 1883.07,-46.76"/>
</g>
<!-- CONSENSUS_PEAKS&#45;&gt;CONSENSUS_PEAKS_ANNOTATE -->
<g id="edge184" class="edge">
<title>CONSENSUS_PEAKS&#45;&gt;CONSENSUS_PEAKS_ANNOTATE</title>
<path fill="none" stroke="black" d="M3775.18,-219.42C3828.76,-208.26 3905.01,-192.37 3962.96,-180.3"/>
<polygon fill="black" stroke="black" points="3963.75,-183.71 3972.83,-178.24 3962.32,-176.86 3963.75,-183.71"/>
</g>
<!-- CONSENSUS_PEAKS&#45;&gt;CONSENSUS_PEAKS_COUNTS -->
<g id="edge185" class="edge">
<title>CONSENSUS_PEAKS&#45;&gt;CONSENSUS_PEAKS_COUNTS</title>
<path fill="none" stroke="black" d="M3625.56,-222.29C3530.18,-210.2 3374.57,-190.46 3269.33,-177.12"/>
<polygon fill="black" stroke="black" points="3269.66,-173.63 3259.3,-175.85 3268.78,-180.58 3269.66,-173.63"/>
</g>
<!-- CONSENSUS_PEAKS&#45;&gt;CONSENSUS_PEAKS_DESEQ2 -->
<g id="edge186" class="edge">
<title>CONSENSUS_PEAKS&#45;&gt;CONSENSUS_PEAKS_DESEQ2</title>
<path fill="none" stroke="black" d="M3660.4,-217.79C3630.13,-208.03 3590.86,-194.49 3557,-180 3509.4,-159.63 3456.77,-131.74 3422.2,-112.64"/>
<polygon fill="black" stroke="black" points="3423.83,-109.54 3413.39,-107.75 3420.43,-115.66 3423.83,-109.54"/>
</g>
<!-- CONSENSUS_PEAKS&#45;&gt;IGV -->
<g id="edge187" class="edge">
<title>CONSENSUS_PEAKS&#45;&gt;IGV</title>
<path fill="none" stroke="black" d="M3717.53,-215.85C3733.98,-178.41 3773.17,-89.19 3792.63,-44.88"/>
<polygon fill="black" stroke="black" points="3795.87,-46.2 3796.69,-35.64 3789.46,-43.39 3795.87,-46.2"/>
</g>
<!-- CONSENSUS_PEAKS&#45;&gt;MULTIQC -->
<g id="edge188" class="edge">
<title>CONSENSUS_PEAKS&#45;&gt;MULTIQC</title>
<path fill="none" stroke="black" d="M3699.5,-215.95C3676.99,-181.21 3620.28,-102.87 3549,-72 3474.93,-39.92 2258.75,-23.38 1957.9,-19.76"/>
<polygon fill="black" stroke="black" points="1957.63,-16.26 1947.59,-19.64 1957.55,-23.26 1957.63,-16.26"/>
</g>
<!-- CONSENSUS_PEAKS_COUNTS&#45;&gt;CONSENSUS_PEAKS_DESEQ2 -->
<g id="edge189" class="edge">
<title>CONSENSUS_PEAKS_COUNTS&#45;&gt;CONSENSUS_PEAKS_DESEQ2</title>
<path fill="none" stroke="black" d="M3209.85,-144.94C3243.32,-134.57 3287.04,-121.03 3322.3,-110.11"/>
<polygon fill="black" stroke="black" points="3323.48,-113.41 3332,-107.11 3321.41,-106.72 3323.48,-113.41"/>
</g>
<!-- CONSENSUS_PEAKS_COUNTS&#45;&gt;IGV -->
<g id="edge190" class="edge">
<title>CONSENSUS_PEAKS_COUNTS&#45;&gt;IGV</title>
<path fill="none" stroke="black" d="M3164.41,-143.8C3173.22,-122.87 3191.2,-88.29 3219,-72 3266.13,-44.38 3644.14,-25.87 3766.17,-20.56"/>
<polygon fill="black" stroke="black" points="3766.33,-24.06 3776.17,-20.14 3766.03,-17.07 3766.33,-24.06"/>
</g>
<!-- CONSENSUS_PEAKS_COUNTS&#45;&gt;MULTIQC -->
<g id="edge191" class="edge">
<title>CONSENSUS_PEAKS_COUNTS&#45;&gt;MULTIQC</title>
<path fill="none" stroke="black" d="M3127.99,-144.2C3088.39,-122.98 3015.87,-87.4 2949,-72 2759.19,-28.29 2159.17,-20.63 1957.7,-19.29"/>
<polygon fill="black" stroke="black" points="1957.58,-15.78 1947.56,-19.22 1957.54,-22.78 1957.58,-15.78"/>
</g>
<!-- CONSENSUS_PEAKS_DESEQ2&#45;&gt;IGV -->
<g id="edge192" class="edge">
<title>CONSENSUS_PEAKS_DESEQ2&#45;&gt;IGV</title>
<path fill="none" stroke="black" d="M3468.74,-74.88C3559.95,-59.68 3700.84,-36.19 3767.13,-25.15"/>
<polygon fill="black" stroke="black" points="3767.82,-28.58 3777.11,-23.48 3766.67,-21.67 3767.82,-28.58"/>
</g>
<!-- CONSENSUS_PEAKS_DESEQ2&#45;&gt;MULTIQC -->
<g id="edge193" class="edge">
<title>CONSENSUS_PEAKS_DESEQ2&#45;&gt;MULTIQC</title>
<path fill="none" stroke="black" d="M3264.44,-78.4C3235.51,-76.06 3204.66,-73.76 3176,-72 2709.61,-43.33 2147.02,-26.12 1957.19,-20.79"/>
<polygon fill="black" stroke="black" points="1957.18,-17.29 1947.09,-20.51 1956.99,-24.28 1957.18,-17.29"/>
</g>
<!-- BWA_INDEX -->
<g id="node24" class="node">
<title>BWA_INDEX</title>
<ellipse fill="none" stroke="black" cx="3499" cy="-738" rx="68.79" ry="18"/>
<text text-anchor="middle" x="3499" y="-734.3" font-family="Times,serif" font-size="14.00">BWA_INDEX</text>
</g>
<!-- BWA_INDEX&#45;&gt;PLOTPROFILE -->
<g id="edge44" class="edge">
<title>BWA_INDEX&#45;&gt;PLOTPROFILE</title>
<path fill="none" stroke="black" d="M3430.31,-735.96C3024.11,-729.76 953.31,-697.49 924,-684 768.16,-612.27 728.12,-556.3 667,-396 661.67,-382.02 658.89,-308.05 668,-288 673.44,-276.03 683.03,-265.62 692.91,-257.26"/>
<polygon fill="black" stroke="black" points="695.15,-259.96 700.83,-251.02 690.81,-254.46 695.15,-259.96"/>
</g>
<!-- BWA_INDEX&#45;&gt;BWA_MEM -->
<g id="edge45" class="edge">
<title>BWA_INDEX&#45;&gt;BWA_MEM</title>
<path fill="none" stroke="black" d="M3432.04,-733.69C3194.86,-721.99 2395.94,-682.55 2152.2,-670.51"/>
<polygon fill="black" stroke="black" points="2152.2,-667.01 2142.04,-670.01 2151.86,-674 2152.2,-667.01"/>
</g>
<!-- BWA_INDEX&#45;&gt;SORT_BAM -->
<g id="edge46" class="edge">
<title>BWA_INDEX&#45;&gt;SORT_BAM</title>
<path fill="none" stroke="black" d="M3436.46,-730.25C3216.78,-706.53 2481.44,-627.12 2252.58,-602.41"/>
<polygon fill="black" stroke="black" points="2252.71,-598.9 2242.39,-601.31 2251.96,-605.86 2252.71,-598.9"/>
</g>
<!-- BWA_INDEX&#45;&gt;MERGED_BAM -->
<g id="edge47" class="edge">
<title>BWA_INDEX&#45;&gt;MERGED_BAM</title>
<path fill="none" stroke="black" d="M3439.53,-728.66C3325.95,-712.76 3070.31,-677.1 2855,-648 2533.51,-604.55 2150.32,-554.43 1987.94,-533.27"/>
<polygon fill="black" stroke="black" points="1987.94,-529.74 1977.57,-531.92 1987.03,-536.68 1987.94,-529.74"/>
</g>
<!-- BWA_INDEX&#45;&gt;MERGED_BAM_FILTER -->
<g id="edge48" class="edge">
<title>BWA_INDEX&#45;&gt;MERGED_BAM_FILTER</title>
<path fill="none" stroke="black" d="M3566.08,-733.56C3648.72,-726.78 3772.92,-706.76 3727,-648 3645.5,-543.7 3568.91,-595.64 3438,-576 3290.55,-553.88 2908.14,-590.93 2768,-540 2742.94,-530.89 2744.18,-515.25 2720,-504 2678.9,-484.88 2630.34,-472.37 2588.54,-464.34"/>
<polygon fill="black" stroke="black" points="2589.1,-460.88 2578.63,-462.49 2587.82,-467.76 2589.1,-460.88"/>
</g>
<!-- BWA_INDEX&#45;&gt;PRESEQ -->
<g id="edge49" class="edge">
<title>BWA_INDEX&#45;&gt;PRESEQ</title>
<path fill="none" stroke="black" d="M3430.35,-735.98C3013.75,-729.78 841.25,-696.81 810,-684 709.85,-642.94 635.95,-528.38 606.74,-476.77"/>
<polygon fill="black" stroke="black" points="609.72,-474.94 601.81,-467.9 603.6,-478.34 609.72,-474.94"/>
</g>
<!-- BWA_INDEX&#45;&gt;MERGED_BAM_REMOVE_ORPHAN -->
<g id="edge50" class="edge">
<title>BWA_INDEX&#45;&gt;MERGED_BAM_REMOVE_ORPHAN</title>
<path fill="none" stroke="black" d="M3445.49,-726.51C3248.85,-687.63 2566.89,-549.78 2361,-468 2337.35,-458.61 2280.34,-424.43 2242.71,-401.27"/>
<polygon fill="black" stroke="black" points="2244.41,-398.2 2234.06,-395.93 2240.73,-404.16 2244.41,-398.2"/>
</g>
<!-- BWA_INDEX&#45;&gt;PICARD_METRICS -->
<g id="edge51" class="edge">
<title>BWA_INDEX&#45;&gt;PICARD_METRICS</title>
<path fill="none" stroke="black" d="M3430.39,-736.11C3039.28,-730.96 1108.09,-704.49 1086,-684 986.95,-592.11 1054.08,-403.41 1083.84,-333.67"/>
<polygon fill="black" stroke="black" points="1087.15,-334.84 1087.94,-324.27 1080.73,-332.04 1087.15,-334.84"/>
</g>
<!-- BWA_INDEX&#45;&gt;PHANTOMPEAKQUALTOOLS -->
<g id="edge52" class="edge">
<title>BWA_INDEX&#45;&gt;PHANTOMPEAKQUALTOOLS</title>
<path fill="none" stroke="black" d="M3567.81,-735.97C3655.05,-731.95 3789.12,-715.07 3745,-648 3647.59,-499.93 3104.12,-369.23 2896.05,-323.93"/>
<polygon fill="black" stroke="black" points="2896.62,-320.47 2886.11,-321.77 2895.14,-327.31 2896.62,-320.47"/>
</g>
<!-- BWA_INDEX&#45;&gt;BIGWIG -->
<g id="edge53" class="edge">
<title>BWA_INDEX&#45;&gt;BIGWIG</title>
<path fill="none" stroke="black" d="M3430.51,-736.05C3036.8,-730.54 1078.51,-702.24 1054,-684 940.09,-599.23 930.55,-406.08 931.14,-334.42"/>
<polygon fill="black" stroke="black" points="934.64,-334.43 931.29,-324.38 927.64,-334.32 934.64,-334.43"/>
</g>
<!-- BWA_INDEX&#45;&gt;PLOTFINGERPRINT -->
<g id="edge54" class="edge">
<title>BWA_INDEX&#45;&gt;PLOTFINGERPRINT</title>
<path fill="none" stroke="black" d="M3430.2,-736.12C3041.3,-731.08 1134.8,-705.27 1114,-684 1000.99,-568.45 1230.81,-391.32 1320.36,-329.34"/>
<polygon fill="black" stroke="black" points="1322.55,-332.08 1328.82,-323.54 1318.59,-326.31 1322.55,-332.08"/>
</g>
<!-- BWA_INDEX&#45;&gt;MACS2 -->
<g id="edge55" class="edge">
<title>BWA_INDEX&#45;&gt;MACS2</title>
<path fill="none" stroke="black" d="M3567.45,-735.65C3676.5,-732.39 3883.75,-721.33 3946,-684 3987.34,-659.21 4008,-643.21 4008,-595 4008,-595 4008,-595 4008,-521 4008,-426.76 3953.45,-403.8 3870,-360 3793.08,-319.62 3535.26,-310 3420.69,-307.71"/>
<polygon fill="black" stroke="black" points="3420.45,-304.21 3410.38,-307.52 3420.32,-311.21 3420.45,-304.21"/>
</g>
<!-- BWA_INDEX&#45;&gt;MACS2_ANNOTATE -->
<g id="edge56" class="edge">
<title>BWA_INDEX&#45;&gt;MACS2_ANNOTATE</title>
<path fill="none" stroke="black" d="M3430.07,-736.54C3175.63,-734.52 2289.49,-724.67 2010,-684 1883.7,-665.62 1842.12,-676.53 1732,-612 1693.76,-589.59 1679.81,-581.01 1663,-540 1631.95,-464.26 1650.61,-423.72 1702,-360 1732.45,-322.25 1741.94,-312.15 1784,-288 1811.77,-272.06 1845.05,-260.03 1873.97,-251.49"/>
<polygon fill="black" stroke="black" points="1874.95,-254.85 1883.6,-248.73 1873.02,-248.12 1874.95,-254.85"/>
</g>
<!-- BWA_INDEX&#45;&gt;MACS2_QC -->
<g id="edge57" class="edge">
<title>BWA_INDEX&#45;&gt;MACS2_QC</title>
<path fill="none" stroke="black" d="M3430.4,-736.16C3035.93,-731.24 1072.18,-705.7 1014,-684 826.22,-613.95 769.19,-568.41 667,-396 625.72,-326.35 583.04,-274.51 639,-216 677.73,-175.51 1502.55,-165.6 1756.95,-163.51"/>
<polygon fill="black" stroke="black" points="1757.23,-167 1767.2,-163.42 1757.17,-160 1757.23,-167"/>
</g>
<!-- BWA_INDEX&#45;&gt;CONSENSUS_PEAKS -->
<g id="edge58" class="edge">
<title>BWA_INDEX&#45;&gt;CONSENSUS_PEAKS</title>
<path fill="none" stroke="black" d="M3567.99,-737.24C3685.23,-736.38 3917.03,-728.85 3983,-684 4012.92,-663.66 4012.06,-647.06 4021,-612 4057.53,-468.78 4058.63,-383.72 3946,-288 3924.53,-269.75 3860.72,-256.07 3804.86,-247.19"/>
<polygon fill="black" stroke="black" points="3805.32,-243.71 3794.9,-245.64 3804.24,-250.63 3805.32,-243.71"/>
</g>
<!-- BWA_INDEX&#45;&gt;CONSENSUS_PEAKS_ANNOTATE -->
<g id="edge59" class="edge">
<title>BWA_INDEX&#45;&gt;CONSENSUS_PEAKS_ANNOTATE</title>
<path fill="none" stroke="black" d="M3566.24,-733.69C3695.91,-726.83 3975.91,-709.52 4069,-684 4180.27,-653.5 4242.5,-647.27 4285,-540 4339.37,-402.77 4317.68,-319.06 4212,-216 4194.94,-199.37 4172.67,-187.95 4150.01,-180.12"/>
<polygon fill="black" stroke="black" points="4150.88,-176.72 4140.29,-176.98 4148.72,-183.38 4150.88,-176.72"/>
</g>
<!-- BWA_INDEX&#45;&gt;CONSENSUS_PEAKS_COUNTS -->
<g id="edge60" class="edge">
<title>BWA_INDEX&#45;&gt;CONSENSUS_PEAKS_COUNTS</title>
<path fill="none" stroke="black" d="M3567,-734.88C3687.37,-730.31 3932.6,-717.15 4011,-684 4158.63,-621.57 4321.67,-583.39 4269,-432 4227.24,-311.98 4140.9,-332.82 4022,-288 3936.72,-255.85 3918.96,-235.78 3830,-216 3660.87,-178.4 3462.62,-166.57 3325.49,-163.27"/>
<polygon fill="black" stroke="black" points="3325.39,-159.77 3315.31,-163.04 3325.23,-166.76 3325.39,-159.77"/>
</g>
<!-- BWA_INDEX&#45;&gt;CONSENSUS_PEAKS_DESEQ2 -->
<g id="edge61" class="edge">
<title>BWA_INDEX&#45;&gt;CONSENSUS_PEAKS_DESEQ2</title>
<path fill="none" stroke="black" d="M3565.55,-733.16C3718.86,-724.07 4087.97,-700.75 4142,-684 4373.22,-612.3 4639.58,-496.17 4516,-288 4498.94,-259.27 4477.43,-271.09 4450,-252 4390.01,-210.26 4393.7,-171.54 4326,-144 4255.94,-115.5 3796.68,-100.54 3546.25,-94.41"/>
<polygon fill="black" stroke="black" points="3546.04,-90.91 3535.96,-94.16 3545.87,-97.9 3546.04,-90.91"/>
</g>
<!-- BWA_INDEX&#45;&gt;IGV -->
<g id="edge62" class="edge">
<title>BWA_INDEX&#45;&gt;IGV</title>
<path fill="none" stroke="black" d="M3566.87,-734.61C3719.63,-728.79 4086.55,-712.27 4207,-684 4289.68,-664.6 4306.95,-647.71 4384,-612 4524.14,-547.05 4692,-605.46 4692,-451 4692,-451 4692,-451 4692,-161 4692,-112.79 4672,-95.67 4630,-72 4560.85,-33.03 3995.78,-21.85 3842.33,-19.52"/>
<polygon fill="black" stroke="black" points="3842.05,-16.01 3832,-19.36 3841.95,-23.01 3842.05,-16.01"/>
</g>
<!-- BWA_INDEX&#45;&gt;MULTIQC -->
<g id="edge63" class="edge">
<title>BWA_INDEX&#45;&gt;MULTIQC</title>
<path fill="none" stroke="black" d="M3558.94,-729.01C3632.78,-718.56 3750.11,-699.73 3763,-684 3773.14,-671.62 3768.51,-663.02 3763,-648 3726.03,-547.18 3664.17,-553.74 3569,-504 3254.03,-339.39 3187.95,-268.27 2855,-144 2732.6,-98.32 2698.92,-93.16 2570,-72 2347.5,-35.48 2079.73,-23.96 1957.58,-20.46"/>
<polygon fill="black" stroke="black" points="1957.37,-16.95 1947.28,-20.17 1957.18,-23.95 1957.37,-16.95"/>
</g>
<!-- MAKE_GENE_BED -->
<g id="node25" class="node">
<title>MAKE_GENE_BED</title>
<ellipse fill="none" stroke="black" cx="279" cy="-306" rx="98.58" ry="18"/>
<text text-anchor="middle" x="279" y="-302.3" font-family="Times,serif" font-size="14.00">MAKE_GENE_BED</text>
</g>
<!-- MAKE_GENE_BED&#45;&gt;PLOTPROFILE -->
<g id="edge64" class="edge">
<title>MAKE_GENE_BED&#45;&gt;PLOTPROFILE</title>
<path fill="none" stroke="black" d="M351.48,-293.68C434.65,-280.68 570.28,-259.49 653.77,-246.44"/>
<polygon fill="black" stroke="black" points="654.35,-249.89 663.69,-244.89 653.26,-242.98 654.35,-249.89"/>
</g>
<!-- MAKE_GENE_BED&#45;&gt;MULTIQC -->
<g id="edge65" class="edge">
<title>MAKE_GENE_BED&#45;&gt;MULTIQC</title>
<path fill="none" stroke="black" d="M302.55,-288.45C331.41,-268.81 382.37,-236.19 430,-216 651.59,-122.09 714.52,-111 952,-72 1120.41,-44.34 1639.92,-26.51 1824.82,-20.9"/>
<polygon fill="black" stroke="black" points="1825.06,-24.4 1834.95,-20.6 1824.85,-17.4 1825.06,-24.4"/>
</g>
<!-- MAKE_GENOME_FILTER -->
<g id="node26" class="node">
<title>MAKE_GENOME_FILTER</title>
<ellipse fill="none" stroke="black" cx="2939" cy="-522" rx="128.88" ry="18"/>
<text text-anchor="middle" x="2939" y="-518.3" font-family="Times,serif" font-size="14.00">MAKE_GENOME_FILTER</text>
</g>
<!-- MAKE_GENOME_FILTER&#45;&gt;PLOTPROFILE -->
<g id="edge67" class="edge">
<title>MAKE_GENOME_FILTER&#45;&gt;PLOTPROFILE</title>
<path fill="none" stroke="black" d="M2828.54,-512.7C2712.08,-503.52 2523.34,-487.43 2361,-468 2143.75,-442 2088.39,-439.68 1874,-396 1749.78,-370.69 1720.42,-356.92 1598,-324 1540.1,-308.43 1527.08,-298.19 1468,-288 1235.2,-247.85 956.19,-238.02 816.28,-235.68"/>
<polygon fill="black" stroke="black" points="816.09,-232.18 806.04,-235.52 815.98,-239.18 816.09,-232.18"/>
</g>
<!-- MAKE_GENOME_FILTER&#45;&gt;MERGED_BAM_FILTER -->
<g id="edge68" class="edge">
<title>MAKE_GENOME_FILTER&#45;&gt;MERGED_BAM_FILTER</title>
<path fill="none" stroke="black" d="M2856.57,-508.12C2778.53,-495.93 2661.65,-477.66 2581.17,-465.09"/>
<polygon fill="black" stroke="black" points="2581.47,-461.59 2571.05,-463.51 2580.39,-468.51 2581.47,-461.59"/>
</g>
<!-- MAKE_GENOME_FILTER&#45;&gt;MERGED_BAM_REMOVE_ORPHAN -->
<g id="edge69" class="edge">
<title>MAKE_GENOME_FILTER&#45;&gt;MERGED_BAM_REMOVE_ORPHAN</title>
<path fill="none" stroke="black" d="M2880.08,-505.86C2840.4,-495.53 2786.94,-481.35 2740,-468 2686.85,-452.89 2675.04,-443.55 2621,-432 2531.13,-412.79 2428.7,-399.61 2348.2,-391.19"/>
<polygon fill="black" stroke="black" points="2348.31,-387.69 2338,-390.14 2347.59,-394.65 2348.31,-387.69"/>
</g>
<!-- MAKE_GENOME_FILTER&#45;&gt;PICARD_METRICS -->
<g id="edge70" class="edge">
<title>MAKE_GENOME_FILTER&#45;&gt;PICARD_METRICS</title>
<path fill="none" stroke="black" d="M2810.56,-520.8C2611.37,-519.07 2216.27,-510.04 1884,-468 1812.79,-458.99 1347.64,-360.59 1167.29,-322.21"/>
<polygon fill="black" stroke="black" points="1167.88,-318.76 1157.37,-320.1 1166.42,-325.6 1167.88,-318.76"/>
</g>
<!-- MAKE_GENOME_FILTER&#45;&gt;PHANTOMPEAKQUALTOOLS -->
<g id="edge71" class="edge">
<title>MAKE_GENOME_FILTER&#45;&gt;PHANTOMPEAKQUALTOOLS</title>
<path fill="none" stroke="black" d="M2899.83,-504.78C2883.41,-496.12 2865.51,-483.93 2854,-468 2824.98,-427.82 2817.36,-368.77 2815.48,-334.47"/>
<polygon fill="black" stroke="black" points="2818.96,-334.1 2815.05,-324.25 2811.97,-334.39 2818.96,-334.1"/>
</g>
<!-- MAKE_GENOME_FILTER&#45;&gt;BIGWIG -->
<g id="edge72" class="edge">
<title>MAKE_GENOME_FILTER&#45;&gt;BIGWIG</title>
<path fill="none" stroke="black" d="M2811.1,-519.57C2585.89,-516.16 2104.04,-504.83 1699,-468 1583.7,-457.52 1555.7,-447.79 1441,-432 1323.25,-415.79 1291.38,-424.53 1176,-396 1101.67,-377.62 1018.6,-344.47 971.08,-324.23"/>
<polygon fill="black" stroke="black" points="972.35,-320.96 961.78,-320.23 969.59,-327.39 972.35,-320.96"/>
</g>
<!-- MAKE_GENOME_FILTER&#45;&gt;PLOTFINGERPRINT -->
<g id="edge73" class="edge">
<title>MAKE_GENOME_FILTER&#45;&gt;PLOTFINGERPRINT</title>
<path fill="none" stroke="black" d="M2813.4,-517.9C2649.28,-512.74 2353.19,-499.63 2102,-468 1931.45,-446.53 1890.04,-432.21 1722,-396 1615.52,-373.05 1492.7,-342.52 1419.31,-323.84"/>
<polygon fill="black" stroke="black" points="1419.84,-320.37 1409.29,-321.29 1418.11,-327.15 1419.84,-320.37"/>
</g>
<!-- MAKE_GENOME_FILTER&#45;&gt;MACS2 -->
<g id="edge74" class="edge">
<title>MAKE_GENOME_FILTER&#45;&gt;MACS2</title>
<path fill="none" stroke="black" d="M2971.72,-504.56C3049.88,-465.3 3247.02,-366.26 3328.69,-325.24"/>
<polygon fill="black" stroke="black" points="3330.7,-328.15 3338.07,-320.53 3327.56,-321.89 3330.7,-328.15"/>
</g>
<!-- MAKE_GENOME_FILTER&#45;&gt;MACS2_ANNOTATE -->
<g id="edge75" class="edge">
<title>MAKE_GENOME_FILTER&#45;&gt;MACS2_ANNOTATE</title>
<path fill="none" stroke="black" d="M2887.85,-505.41C2856,-495.4 2814.33,-481.74 2778,-468 2740.01,-453.64 2732.34,-445.41 2694,-432 2516.13,-369.77 2466.72,-370.06 2284,-324 2187.16,-299.59 2075.19,-270.12 2006.74,-251.98"/>
<polygon fill="black" stroke="black" points="2007.53,-248.56 1996.97,-249.38 2005.74,-255.33 2007.53,-248.56"/>
</g>
<!-- MAKE_GENOME_FILTER&#45;&gt;MACS2_QC -->
<g id="edge76" class="edge">
<title>MAKE_GENOME_FILTER&#45;&gt;MACS2_QC</title>
<path fill="none" stroke="black" d="M2904.99,-504.47C2859.13,-482.27 2779.78,-444.21 2750,-432 2481.93,-322.15 2415.32,-289.13 2135,-216 2054.71,-195.06 1960.3,-180.05 1898.25,-171.47"/>
<polygon fill="black" stroke="black" points="1898.57,-167.98 1888.19,-170.1 1897.62,-174.92 1898.57,-167.98"/>
</g>
<!-- MAKE_GENOME_FILTER&#45;&gt;CONSENSUS_PEAKS -->
<g id="edge77" class="edge">
<title>MAKE_GENOME_FILTER&#45;&gt;CONSENSUS_PEAKS</title>
<path fill="none" stroke="black" d="M3025.16,-508.63C3129.28,-491.75 3308.37,-456.46 3452,-396 3540.87,-358.59 3634.25,-292.61 3680.47,-257.87"/>
<polygon fill="black" stroke="black" points="3682.68,-260.59 3688.54,-251.76 3678.46,-255.01 3682.68,-260.59"/>
</g>
<!-- MAKE_GENOME_FILTER&#45;&gt;CONSENSUS_PEAKS_ANNOTATE -->
<g id="edge78" class="edge">
<title>MAKE_GENOME_FILTER&#45;&gt;CONSENSUS_PEAKS_ANNOTATE</title>
<path fill="none" stroke="black" d="M3031.82,-509.43C3105.36,-499.79 3210.57,-484.94 3302,-468 3373.67,-454.73 3390.18,-444.44 3462,-432 3591.71,-409.52 3632.32,-441.1 3756,-396 3866.14,-355.84 3890.78,-331.43 3977,-252 3997.61,-233.02 4016.76,-207.4 4029.64,-188.52"/>
<polygon fill="black" stroke="black" points="4032.61,-190.37 4035.26,-180.11 4026.79,-186.48 4032.61,-190.37"/>
</g>
<!-- MAKE_GENOME_FILTER&#45;&gt;CONSENSUS_PEAKS_COUNTS -->
<g id="edge79" class="edge">
<title>MAKE_GENOME_FILTER&#45;&gt;CONSENSUS_PEAKS_COUNTS</title>
<path fill="none" stroke="black" d="M2944.27,-503.98C2962.22,-446.73 3022.2,-262.14 3063,-216 3074.71,-202.75 3090.56,-192.11 3105.96,-183.93"/>
<polygon fill="black" stroke="black" points="3107.59,-187.03 3114.94,-179.4 3104.44,-180.78 3107.59,-187.03"/>
</g>
<!-- MAKE_GENOME_FILTER&#45;&gt;CONSENSUS_PEAKS_DESEQ2 -->
<g id="edge80" class="edge">
<title>MAKE_GENOME_FILTER&#45;&gt;CONSENSUS_PEAKS_DESEQ2</title>
<path fill="none" stroke="black" d="M2988.95,-505.31C3019.77,-495.31 3059.97,-481.7 3095,-468 3168.38,-439.3 3376.07,-390.07 3419,-324 3432.36,-303.44 3455.41,-302.5 3412,-144 3409.48,-134.81 3405.19,-125.42 3400.7,-117.14"/>
<polygon fill="black" stroke="black" points="3403.66,-115.27 3395.65,-108.34 3397.59,-118.75 3403.66,-115.27"/>
</g>
<!-- MAKE_GENOME_FILTER&#45;&gt;IGV -->
<g id="edge81" class="edge">
<title>MAKE_GENOME_FILTER&#45;&gt;IGV</title>
<path fill="none" stroke="black" d="M3040.41,-510.89C3133.16,-501.26 3274.07,-485.63 3396,-468 3781.61,-412.23 4022.19,-513.29 4224,-180 4310.28,-37.51 3961.17,-20.7 3842.34,-19.05"/>
<polygon fill="black" stroke="black" points="3842.26,-15.55 3832.23,-18.94 3842.19,-22.55 3842.26,-15.55"/>
</g>
<!-- MAKE_GENOME_FILTER&#45;&gt;MULTIQC -->
<g id="edge82" class="edge">
<title>MAKE_GENOME_FILTER&#45;&gt;MULTIQC</title>
<path fill="none" stroke="black" d="M2941.35,-503.92C2943.84,-485.98 2947.98,-456.98 2952,-432 2957.13,-400.13 2988.88,-314.87 2971,-288 2833.26,-81.03 2696.19,-132.32 2455,-72 2279.33,-28.07 2064.61,-19.91 1957.88,-18.8"/>
<polygon fill="black" stroke="black" points="1957.61,-15.3 1947.58,-18.71 1957.55,-22.3 1957.61,-15.3"/>
</g>
<!-- get_software_versions -->
<g id="node27" class="node">
<title>get_software_versions</title>
<ellipse fill="none" stroke="black" cx="264" cy="-90" rx="114.28" ry="18"/>
<text text-anchor="middle" x="264" y="-86.3" font-family="Times,serif" font-size="14.00">get_software_versions</text>
</g>
<!-- get_software_versions&#45;&gt;MULTIQC -->
<g id="edge194" class="edge">
<title>get_software_versions&#45;&gt;MULTIQC</title>
<path fill="none" stroke="black" d="M344.44,-77.11C360.18,-75.12 376.59,-73.29 392,-72 943.84,-25.71 1613.26,-19.75 1824.11,-19.06"/>
<polygon fill="black" stroke="black" points="1824.4,-22.56 1834.39,-19.03 1824.38,-15.56 1824.4,-22.56"/>
</g>
<!-- output_documentation -->
<g id="node28" class="node">
<title>output_documentation</title>
<ellipse fill="none" stroke="black" cx="2435" cy="-810" rx="115.08" ry="18"/>
<text text-anchor="middle" x="2435" y="-806.3" font-family="Times,serif" font-size="14.00">output_documentation</text>
</g>
</g>
</svg>
