<?xml version="1.0" encoding="UTF-8" standalone="no"?>
<!DOCTYPE svg PUBLIC "-//W3C//DTD SVG 1.1//EN"
 "http://www.w3.org/Graphics/SVG/1.1/DTD/svg11.dtd">
<!-- Generated by graphviz version 2.43.0 (0)
 -->
<!-- Pages: 1 -->
<svg width="3602pt" height="764pt"
 viewBox="0.00 0.00 3602.39 764.00" xmlns="http://www.w3.org/2000/svg" xmlns:xlink="http://www.w3.org/1999/xlink">
<g id="graph0" class="graph" transform="scale(1 1) rotate(0) translate(4 760)">
<polygon fill="white" stroke="transparent" points="-4,4 -4,-760 3598.39,-760 3598.39,4 -4,4"/>
<!-- TRIMGALORE -->
<g id="node1" class="node">
<title>TRIMGALORE</title>
<ellipse fill="none" stroke="black" cx="1468" cy="-738" rx="76.89" ry="18"/>
<text text-anchor="middle" x="1468" y="-734.3" font-family="Times,serif" font-size="14.00">TRIMGALORE</text>
</g>
<!-- PLOTPROFILE -->
<g id="node2" class="node">
<title>PLOTPROFILE</title>
<ellipse fill="none" stroke="black" cx="607" cy="-234" rx="79.09" ry="18"/>
<text text-anchor="middle" x="607" y="-230.3" font-family="Times,serif" font-size="14.00">PLOTPROFILE</text>
</g>
<!-- TRIMGALORE&#45;&gt;PLOTPROFILE -->
<g id="edge1" class="edge">
<title>TRIMGALORE&#45;&gt;PLOTPROFILE</title>
<path fill="none" stroke="black" d="M1391.32,-736.52C1110.34,-734.45 150.73,-724.44 100,-684 67.97,-658.46 76,-635.97 76,-595 76,-595 76,-595 76,-521 76,-382.77 160.98,-354.78 282,-288 322.54,-265.63 441.91,-250.35 524.11,-242.14"/>
<polygon fill="black" stroke="black" points="524.59,-245.61 534.2,-241.15 523.9,-238.65 524.59,-245.61"/>
</g>
<!-- BWA_MEM -->
<g id="node3" class="node">
<title>BWA_MEM</title>
<ellipse fill="none" stroke="black" cx="1558" cy="-666" rx="62.29" ry="18"/>
<text text-anchor="middle" x="1558" y="-662.3" font-family="Times,serif" font-size="14.00">BWA_MEM</text>
</g>
<!-- TRIMGALORE&#45;&gt;BWA_MEM -->
<g id="edge2" class="edge">
<title>TRIMGALORE&#45;&gt;BWA_MEM</title>
<path fill="none" stroke="black" d="M1489.33,-720.41C1501.18,-711.19 1516.1,-699.59 1529,-689.55"/>
<polygon fill="black" stroke="black" points="1531.39,-692.13 1537.13,-683.23 1527.09,-686.61 1531.39,-692.13"/>
</g>
<!-- SORT_BAM -->
<g id="node4" class="node">
<title>SORT_BAM</title>
<ellipse fill="none" stroke="black" cx="1558" cy="-594" rx="63.89" ry="18"/>
<text text-anchor="middle" x="1558" y="-590.3" font-family="Times,serif" font-size="14.00">SORT_BAM</text>
</g>
<!-- TRIMGALORE&#45;&gt;SORT_BAM -->
<g id="edge3" class="edge">
<title>TRIMGALORE&#45;&gt;SORT_BAM</title>
<path fill="none" stroke="black" d="M1468.15,-719.92C1469.06,-700.95 1472.85,-670.08 1487,-648 1495.29,-635.06 1507.93,-624.14 1520.26,-615.65"/>
<polygon fill="black" stroke="black" points="1522.22,-618.55 1528.69,-610.15 1518.4,-612.68 1522.22,-618.55"/>
</g>
<!-- MERGED_BAM -->
<g id="node5" class="node">
<title>MERGED_BAM</title>
<ellipse fill="none" stroke="black" cx="2118" cy="-522" rx="81.79" ry="18"/>
<text text-anchor="middle" x="2118" y="-518.3" font-family="Times,serif" font-size="14.00">MERGED_BAM</text>
</g>
<!-- TRIMGALORE&#45;&gt;MERGED_BAM -->
<g id="edge4" class="edge">
<title>TRIMGALORE&#45;&gt;MERGED_BAM</title>
<path fill="none" stroke="black" d="M1541.77,-732.75C1648.87,-725.79 1841.66,-710.07 1906,-684 1984.38,-652.24 2059.02,-583.63 2095.23,-547.07"/>
<polygon fill="black" stroke="black" points="2097.87,-549.38 2102.36,-539.78 2092.86,-544.48 2097.87,-549.38"/>
</g>
<!-- MERGED_BAM_FILTER -->
<g id="node6" class="node">
<title>MERGED_BAM_FILTER</title>
<ellipse fill="none" stroke="black" cx="1367" cy="-450" rx="120.78" ry="18"/>
<text text-anchor="middle" x="1367" y="-446.3" font-family="Times,serif" font-size="14.00">MERGED_BAM_FILTER</text>
</g>
<!-- TRIMGALORE&#45;&gt;MERGED_BAM_FILTER -->
<g id="edge5" class="edge">
<title>TRIMGALORE&#45;&gt;MERGED_BAM_FILTER</title>
<path fill="none" stroke="black" d="M1393.35,-733.66C1270.54,-727.4 1036.88,-711.94 1012,-684 958.8,-624.26 959.77,-564.6 1012,-504 1041.04,-470.31 1148.07,-457.71 1237.09,-453.16"/>
<polygon fill="black" stroke="black" points="1237.48,-456.64 1247.3,-452.67 1237.14,-449.65 1237.48,-456.64"/>
</g>
<!-- PRESEQ -->
<g id="node7" class="node">
<title>PRESEQ</title>
<ellipse fill="none" stroke="black" cx="2807" cy="-450" rx="51.19" ry="18"/>
<text text-anchor="middle" x="2807" y="-446.3" font-family="Times,serif" font-size="14.00">PRESEQ</text>
</g>
<!-- TRIMGALORE&#45;&gt;PRESEQ -->
<g id="edge6" class="edge">
<title>TRIMGALORE&#45;&gt;PRESEQ</title>
<path fill="none" stroke="black" d="M1544.77,-737.26C1788.66,-737.56 2535.43,-734.33 2631,-684 2718.05,-638.16 2774.26,-527.93 2796.36,-477.27"/>
<polygon fill="black" stroke="black" points="2799.63,-478.54 2800.33,-467.97 2793.19,-475.79 2799.63,-478.54"/>
</g>
<!-- MERGED_BAM_REMOVE_ORPHAN -->
<g id="node8" class="node">
<title>MERGED_BAM_REMOVE_ORPHAN</title>
<ellipse fill="none" stroke="black" cx="1801" cy="-378" rx="176.57" ry="18"/>
<text text-anchor="middle" x="1801" y="-374.3" font-family="Times,serif" font-size="14.00">MERGED_BAM_REMOVE_ORPHAN</text>
</g>
<!-- TRIMGALORE&#45;&gt;MERGED_BAM_REMOVE_ORPHAN -->
<g id="edge7" class="edge">
<title>TRIMGALORE&#45;&gt;MERGED_BAM_REMOVE_ORPHAN</title>
<path fill="none" stroke="black" d="M1534.25,-728.79C1653.5,-712.14 1892,-669.52 1892,-595 1892,-595 1892,-595 1892,-521 1892,-473.56 1855.56,-429.3 1828.79,-403.19"/>
<polygon fill="black" stroke="black" points="1830.87,-400.33 1821.2,-396 1826.06,-405.41 1830.87,-400.33"/>
</g>
<!-- PICARD_METRICS -->
<g id="node9" class="node">
<title>PICARD_METRICS</title>
<ellipse fill="none" stroke="black" cx="2869" cy="-306" rx="97.48" ry="18"/>
<text text-anchor="middle" x="2869" y="-302.3" font-family="Times,serif" font-size="14.00">PICARD_METRICS</text>
</g>
<!-- TRIMGALORE&#45;&gt;PICARD_METRICS -->
<g id="edge8" class="edge">
<title>TRIMGALORE&#45;&gt;PICARD_METRICS</title>
<path fill="none" stroke="black" d="M1544.84,-736.82C1798.42,-735.81 2598.61,-729.06 2705,-684 2819.81,-635.38 2852.09,-588.53 2884,-468 2896.19,-421.96 2885.64,-366.24 2877.13,-333.89"/>
<polygon fill="black" stroke="black" points="2880.5,-332.95 2874.47,-324.25 2873.76,-334.82 2880.5,-332.95"/>
</g>
<!-- PHANTOMPEAKQUALTOOLS -->
<g id="node10" class="node">
<title>PHANTOMPEAKQUALTOOLS</title>
<ellipse fill="none" stroke="black" cx="965" cy="-306" rx="146.77" ry="18"/>
<text text-anchor="middle" x="965" y="-302.3" font-family="Times,serif" font-size="14.00">PHANTOMPEAKQUALTOOLS</text>
</g>
<!-- TRIMGALORE&#45;&gt;PHANTOMPEAKQUALTOOLS -->
<g id="edge9" class="edge">
<title>TRIMGALORE&#45;&gt;PHANTOMPEAKQUALTOOLS</title>
<path fill="none" stroke="black" d="M1391.61,-735.9C1159.23,-732.18 474.61,-718.33 442,-684 282.95,-516.52 720.11,-374.09 895.66,-325.14"/>
<polygon fill="black" stroke="black" points="896.63,-328.51 905.33,-322.47 894.76,-321.76 896.63,-328.51"/>
</g>
<!-- BIGWIG -->
<g id="node11" class="node">
<title>BIGWIG</title>
<ellipse fill="none" stroke="black" cx="638" cy="-306" rx="48.19" ry="18"/>
<text text-anchor="middle" x="638" y="-302.3" font-family="Times,serif" font-size="14.00">BIGWIG</text>
</g>
<!-- TRIMGALORE&#45;&gt;BIGWIG -->
<g id="edge10" class="edge">
<title>TRIMGALORE&#45;&gt;BIGWIG</title>
<path fill="none" stroke="black" d="M1391.54,-735.9C1142.68,-732.02 369.43,-717.3 328,-684 296.07,-658.34 304,-635.97 304,-595 304,-595 304,-595 304,-449 304,-313.93 450.89,-360.24 581,-324 584.59,-323 588.31,-321.94 592.04,-320.86"/>
<polygon fill="black" stroke="black" points="593.26,-324.16 601.87,-317.99 591.29,-317.44 593.26,-324.16"/>
</g>
<!-- PLOTFINGERPRINT -->
<g id="node12" class="node">
<title>PLOTFINGERPRINT</title>
<ellipse fill="none" stroke="black" cx="467" cy="-306" rx="104.78" ry="18"/>
<text text-anchor="middle" x="467" y="-302.3" font-family="Times,serif" font-size="14.00">PLOTFINGERPRINT</text>
</g>
<!-- TRIMGALORE&#45;&gt;PLOTFINGERPRINT -->
<g id="edge11" class="edge">
<title>TRIMGALORE&#45;&gt;PLOTFINGERPRINT</title>
<path fill="none" stroke="black" d="M1391.64,-735.8C1139.25,-731.56 345.36,-715.72 301,-684 266.43,-659.28 266,-637.5 266,-595 266,-595 266,-595 266,-449 266,-404.06 279.77,-389.12 314,-360 334.89,-342.23 362.07,-330.31 387.71,-322.36"/>
<polygon fill="black" stroke="black" points="388.84,-325.68 397.45,-319.5 386.87,-318.96 388.84,-325.68"/>
</g>
<!-- MACS2 -->
<g id="node13" class="node">
<title>MACS2</title>
<ellipse fill="none" stroke="black" cx="2243" cy="-306" rx="45.49" ry="18"/>
<text text-anchor="middle" x="2243" y="-302.3" font-family="Times,serif" font-size="14.00">MACS2</text>
</g>
<!-- TRIMGALORE&#45;&gt;MACS2 -->
<g id="edge12" class="edge">
<title>TRIMGALORE&#45;&gt;MACS2</title>
<path fill="none" stroke="black" d="M1544.8,-736.8C1793.47,-735.71 2566.47,-728.72 2669,-684 2716.04,-663.48 2857.8,-492.64 2867,-468 2872.6,-453.01 2877.14,-444.38 2867,-432 2857.78,-420.75 2441.06,-343.35 2293.85,-316.3"/>
<polygon fill="black" stroke="black" points="2294.19,-312.81 2283.73,-314.44 2292.93,-319.69 2294.19,-312.81"/>
</g>
<!-- MACS2_ANNOTATE -->
<g id="node14" class="node">
<title>MACS2_ANNOTATE</title>
<ellipse fill="none" stroke="black" cx="2537" cy="-234" rx="102.88" ry="18"/>
<text text-anchor="middle" x="2537" y="-230.3" font-family="Times,serif" font-size="14.00">MACS2_ANNOTATE</text>
</g>
<!-- TRIMGALORE&#45;&gt;MACS2_ANNOTATE -->
<g id="edge13" class="edge">
<title>TRIMGALORE&#45;&gt;MACS2_ANNOTATE</title>
<path fill="none" stroke="black" d="M1544.48,-736.59C1803.83,-734.83 2640.02,-725.92 2753,-684 2945.73,-612.49 3128.69,-441.54 2992,-288 2969.3,-262.5 2772.32,-247.36 2645.08,-240.16"/>
<polygon fill="black" stroke="black" points="2645.08,-236.65 2634.9,-239.59 2644.69,-243.64 2645.08,-236.65"/>
</g>
<!-- MACS2_QC -->
<g id="node15" class="node">
<title>MACS2_QC</title>
<ellipse fill="none" stroke="black" cx="2602" cy="-162" rx="63.89" ry="18"/>
<text text-anchor="middle" x="2602" y="-158.3" font-family="Times,serif" font-size="14.00">MACS2_QC</text>
</g>
<!-- TRIMGALORE&#45;&gt;MACS2_QC -->
<g id="edge14" class="edge">
<title>TRIMGALORE&#45;&gt;MACS2_QC</title>
<path fill="none" stroke="black" d="M1544.64,-736.1C1810.73,-732.69 2685.04,-718.92 2806,-684 2867.6,-666.22 2879.98,-650.83 2931,-612 3072.21,-504.53 3121.18,-326.09 2982,-216 2935.83,-179.48 2772.28,-168.12 2675.44,-164.59"/>
<polygon fill="black" stroke="black" points="2675.53,-161.09 2665.41,-164.25 2675.29,-168.09 2675.53,-161.09"/>
</g>
<!-- CONSENSUS_PEAKS -->
<g id="node16" class="node">
<title>CONSENSUS_PEAKS</title>
<ellipse fill="none" stroke="black" cx="2039" cy="-234" rx="111.28" ry="18"/>
<text text-anchor="middle" x="2039" y="-230.3" font-family="Times,serif" font-size="14.00">CONSENSUS_PEAKS</text>
</g>
<!-- TRIMGALORE&#45;&gt;CONSENSUS_PEAKS -->
<g id="edge15" class="edge">
<title>TRIMGALORE&#45;&gt;CONSENSUS_PEAKS</title>
<path fill="none" stroke="black" d="M1544.9,-737.18C1642,-735.47 1813.27,-725.99 1953,-684 2087.02,-643.73 2154.41,-655.78 2233,-540 2300.14,-441.1 2233.29,-361.47 2139,-288 2122.91,-275.47 2103.44,-264.39 2085.96,-255.64"/>
<polygon fill="black" stroke="black" points="2087.01,-252.26 2076.49,-251.02 2083.95,-258.55 2087.01,-252.26"/>
</g>
<!-- CONSENSUS_PEAKS_ANNOTATE -->
<g id="node17" class="node">
<title>CONSENSUS_PEAKS_ANNOTATE</title>
<ellipse fill="none" stroke="black" cx="1650" cy="-162" rx="168.97" ry="18"/>
<text text-anchor="middle" x="1650" y="-158.3" font-family="Times,serif" font-size="14.00">CONSENSUS_PEAKS_ANNOTATE</text>
</g>
<!-- TRIMGALORE&#45;&gt;CONSENSUS_PEAKS_ANNOTATE -->
<g id="edge16" class="edge">
<title>TRIMGALORE&#45;&gt;CONSENSUS_PEAKS_ANNOTATE</title>
<path fill="none" stroke="black" d="M1393.31,-733.65C1264.76,-727.2 1012.57,-711.21 983,-684 947.38,-651.23 964.04,-624.15 969,-576 998.49,-289.81 1245.38,-335.71 1507,-216 1534.01,-203.64 1564.8,-191.94 1590.88,-182.69"/>
<polygon fill="black" stroke="black" points="1592.35,-185.88 1600.62,-179.27 1590.03,-179.28 1592.35,-185.88"/>
</g>
<!-- CONSENSUS_PEAKS_COUNTS -->
<g id="node18" class="node">
<title>CONSENSUS_PEAKS_COUNTS</title>
<ellipse fill="none" stroke="black" cx="1268" cy="-162" rx="157.07" ry="18"/>
<text text-anchor="middle" x="1268" y="-158.3" font-family="Times,serif" font-size="14.00">CONSENSUS_PEAKS_COUNTS</text>
</g>
<!-- TRIMGALORE&#45;&gt;CONSENSUS_PEAKS_COUNTS -->
<g id="edge17" class="edge">
<title>TRIMGALORE&#45;&gt;CONSENSUS_PEAKS_COUNTS</title>
<path fill="none" stroke="black" d="M1391.42,-736.4C1107.3,-733.86 127.05,-722.35 73,-684 38.33,-659.41 38,-637.5 38,-595 38,-595 38,-595 38,-377 38,-238.43 172.57,-256.79 305,-216 448.75,-171.72 865.07,-163.49 1100.55,-162.52"/>
<polygon fill="black" stroke="black" points="1100.6,-166.02 1110.59,-162.48 1100.57,-159.02 1100.6,-166.02"/>
</g>
<!-- CONSENSUS_PEAKS_DESEQ2 -->
<g id="node19" class="node">
<title>CONSENSUS_PEAKS_DESEQ2</title>
<ellipse fill="none" stroke="black" cx="1701" cy="-90" rx="155.97" ry="18"/>
<text text-anchor="middle" x="1701" y="-86.3" font-family="Times,serif" font-size="14.00">CONSENSUS_PEAKS_DESEQ2</text>
</g>
<!-- TRIMGALORE&#45;&gt;CONSENSUS_PEAKS_DESEQ2 -->
<g id="edge18" class="edge">
<title>TRIMGALORE&#45;&gt;CONSENSUS_PEAKS_DESEQ2</title>
<path fill="none" stroke="black" d="M1391.67,-735.66C1144.47,-731.03 375.56,-714.34 268,-684 191.92,-662.54 114,-674.05 114,-595 114,-595 114,-595 114,-449 114,-295.15 226.44,-271.31 370,-216 579.86,-135.15 1234.76,-105.07 1540.62,-95.23"/>
<polygon fill="black" stroke="black" points="1541.02,-98.72 1550.91,-94.91 1540.8,-91.73 1541.02,-98.72"/>
</g>
<!-- MULTIQC -->
<g id="node20" class="node">
<title>MULTIQC</title>
<ellipse fill="none" stroke="black" cx="1885" cy="-18" rx="56.59" ry="18"/>
<text text-anchor="middle" x="1885" y="-14.3" font-family="Times,serif" font-size="14.00">MULTIQC</text>
</g>
<!-- TRIMGALORE&#45;&gt;MULTIQC -->
<g id="edge19" class="edge">
<title>TRIMGALORE&#45;&gt;MULTIQC</title>
<path fill="none" stroke="black" d="M1391.16,-736.38C1102.48,-733.77 96.36,-721.96 40,-684 4.03,-659.77 0,-638.37 0,-595 0,-595 0,-595 0,-161 0,-105.99 35.69,-94.23 86,-72 166.59,-36.4 1501.81,-22.39 1818.17,-19.56"/>
<polygon fill="black" stroke="black" points="1818.59,-23.06 1828.56,-19.47 1818.52,-16.06 1818.59,-23.06"/>
</g>
<!-- PLOTPROFILE&#45;&gt;MULTIQC -->
<g id="edge40" class="edge">
<title>PLOTPROFILE&#45;&gt;MULTIQC</title>
<path fill="none" stroke="black" d="M611.09,-215.76C620.27,-181.38 646.06,-104.76 700,-72 748.02,-42.84 1575.37,-24.88 1818.4,-20.22"/>
<polygon fill="black" stroke="black" points="1818.57,-23.71 1828.5,-20.02 1818.44,-16.71 1818.57,-23.71"/>
</g>
<!-- BWA_MEM&#45;&gt;PLOTPROFILE -->
<g id="edge41" class="edge">
<title>BWA_MEM&#45;&gt;PLOTPROFILE</title>
<path fill="none" stroke="black" d="M1495.82,-664.13C1299.71,-661.03 702.57,-648.63 624,-612 538.93,-572.34 293.79,-360.84 353,-288 374.17,-261.95 456.77,-248.27 522.1,-241.39"/>
<polygon fill="black" stroke="black" points="522.83,-244.83 532.43,-240.34 522.13,-237.86 522.83,-244.83"/>
</g>
<!-- BWA_MEM&#45;&gt;SORT_BAM -->
<g id="edge42" class="edge">
<title>BWA_MEM&#45;&gt;SORT_BAM</title>
<path fill="none" stroke="black" d="M1558,-647.7C1558,-639.98 1558,-630.71 1558,-622.11"/>
<polygon fill="black" stroke="black" points="1561.5,-622.1 1558,-612.1 1554.5,-622.1 1561.5,-622.1"/>
</g>
<!-- BWA_MEM&#45;&gt;MERGED_BAM -->
<g id="edge43" class="edge">
<title>BWA_MEM&#45;&gt;MERGED_BAM</title>
<path fill="none" stroke="black" d="M1601.88,-653.18C1639.11,-642.94 1693.83,-627.39 1741,-612 1785.51,-597.48 1794.86,-588.42 1840,-576 1859.72,-570.57 1971.42,-549.78 2047.08,-535.91"/>
<polygon fill="black" stroke="black" points="2047.84,-539.33 2057.05,-534.08 2046.58,-532.44 2047.84,-539.33"/>
</g>
<!-- BWA_MEM&#45;&gt;MERGED_BAM_FILTER -->
<g id="edge44" class="edge">
<title>BWA_MEM&#45;&gt;MERGED_BAM_FILTER</title>
<path fill="none" stroke="black" d="M1497.56,-661.38C1461.29,-655.9 1417.24,-642.79 1391,-612 1359.11,-574.57 1359.48,-513.65 1362.99,-478.45"/>
<polygon fill="black" stroke="black" points="1366.48,-478.75 1364.15,-468.41 1359.53,-477.95 1366.48,-478.75"/>
</g>
<!-- BWA_MEM&#45;&gt;PRESEQ -->
<g id="edge45" class="edge">
<title>BWA_MEM&#45;&gt;PRESEQ</title>
<path fill="none" stroke="black" d="M1620.05,-664.03C1824.07,-660.54 2465.96,-646.86 2552,-612 2619.74,-584.56 2613.71,-542.23 2676,-504 2702.24,-487.9 2734.22,-474.85 2760.02,-465.73"/>
<polygon fill="black" stroke="black" points="2761.27,-469 2769.58,-462.42 2758.99,-462.38 2761.27,-469"/>
</g>
<!-- BWA_MEM&#45;&gt;MERGED_BAM_REMOVE_ORPHAN -->
<g id="edge46" class="edge">
<title>BWA_MEM&#45;&gt;MERGED_BAM_REMOVE_ORPHAN</title>
<path fill="none" stroke="black" d="M1583.51,-649.35C1598.27,-639.62 1616.7,-626.27 1631,-612 1697.99,-545.17 1758.72,-450.03 1785.92,-404.8"/>
<polygon fill="black" stroke="black" points="1788.94,-406.57 1791.06,-396.19 1782.93,-402.99 1788.94,-406.57"/>
</g>
<!-- BWA_MEM&#45;&gt;PICARD_METRICS -->
<g id="edge47" class="edge">
<title>BWA_MEM&#45;&gt;PICARD_METRICS</title>
<path fill="none" stroke="black" d="M1620.4,-664.57C1777.76,-662.85 2187.4,-654.31 2316,-612 2358.51,-598.01 2444.9,-521.72 2486,-504 2545.79,-478.22 2569.26,-496.08 2628,-468 2652.06,-456.5 2653.48,-446.28 2676,-432 2704.88,-413.69 2714.9,-413.96 2744,-396 2777.67,-375.23 2814.33,-348.61 2839.19,-329.92"/>
<polygon fill="black" stroke="black" points="2841.6,-332.48 2847.47,-323.66 2837.38,-326.9 2841.6,-332.48"/>
</g>
<!-- BWA_MEM&#45;&gt;PHANTOMPEAKQUALTOOLS -->
<g id="edge48" class="edge">
<title>BWA_MEM&#45;&gt;PHANTOMPEAKQUALTOOLS</title>
<path fill="none" stroke="black" d="M1503.79,-657.05C1416.49,-642.74 1241.02,-607.61 1107,-540 1030.28,-501.3 1004.2,-477.83 978,-396 971.54,-375.83 968.28,-352.05 966.64,-334.15"/>
<polygon fill="black" stroke="black" points="970.12,-333.79 965.83,-324.11 963.14,-334.35 970.12,-333.79"/>
</g>
<!-- BWA_MEM&#45;&gt;BIGWIG -->
<g id="edge49" class="edge">
<title>BWA_MEM&#45;&gt;BIGWIG</title>
<path fill="none" stroke="black" d="M1495.99,-663.37C1318.03,-658.37 814.05,-641.72 746,-612 638.43,-565.02 622.22,-509.94 594,-396 590.15,-380.47 588.57,-375.05 594,-360 597.98,-348.98 605.36,-338.63 612.95,-330.05"/>
<polygon fill="black" stroke="black" points="615.57,-332.37 619.9,-322.7 610.49,-327.57 615.57,-332.37"/>
</g>
<!-- BWA_MEM&#45;&gt;PLOTFINGERPRINT -->
<g id="edge50" class="edge">
<title>BWA_MEM&#45;&gt;PLOTFINGERPRINT</title>
<path fill="none" stroke="black" d="M1495.78,-664.19C1307.39,-661.33 751.64,-649.76 680,-612 564.45,-551.1 498.53,-396.07 475.95,-333.64"/>
<polygon fill="black" stroke="black" points="479.21,-332.37 472.58,-324.11 472.61,-334.71 479.21,-332.37"/>
</g>
<!-- BWA_MEM&#45;&gt;MACS2 -->
<g id="edge51" class="edge">
<title>BWA_MEM&#45;&gt;MACS2</title>
<path fill="none" stroke="black" d="M1620.61,-665.73C1798.18,-666.32 2298.77,-657.36 2400,-540 2452.25,-479.42 2446.65,-424.99 2400,-360 2377.02,-327.99 2333.68,-315.06 2298.35,-309.96"/>
<polygon fill="black" stroke="black" points="2298.51,-306.45 2288.15,-308.66 2297.63,-313.39 2298.51,-306.45"/>
</g>
<!-- BWA_MEM&#45;&gt;MACS2_ANNOTATE -->
<g id="edge52" class="edge">
<title>BWA_MEM&#45;&gt;MACS2_ANNOTATE</title>
<path fill="none" stroke="black" d="M1620.31,-664.29C1783.83,-661.9 2222.18,-651.84 2361,-612 2458.48,-584.02 2469.12,-544.72 2562,-504 2606.8,-484.36 2622.8,-490.95 2666,-468 2689.55,-455.49 2690.83,-445.2 2714,-432 2823.07,-369.85 2905.24,-428.37 2975,-324 2983.89,-310.7 2985.61,-299.97 2975,-288 2953.37,-263.59 2766.61,-248.2 2644.04,-240.63"/>
<polygon fill="black" stroke="black" points="2644.06,-237.13 2633.86,-240.01 2643.63,-244.11 2644.06,-237.13"/>
</g>
<!-- BWA_MEM&#45;&gt;MACS2_QC -->
<g id="edge53" class="edge">
<title>BWA_MEM&#45;&gt;MACS2_QC</title>
<path fill="none" stroke="black" d="M1618.98,-661.92C1808.77,-652.23 2378.59,-622.44 2417,-612 2519.42,-584.16 2534.94,-551.22 2630,-504 2662.76,-487.73 2673.31,-487.89 2704,-468 2724.92,-454.45 2724.66,-443.05 2747,-432 2812.34,-399.7 2841.75,-428.49 2907,-396 2951.32,-373.93 2971.18,-368.92 2992,-324 3050.86,-197.01 2804.59,-169.9 2675.89,-164.31"/>
<polygon fill="black" stroke="black" points="2675.83,-160.81 2665.7,-163.9 2675.55,-167.8 2675.83,-160.81"/>
</g>
<!-- BWA_MEM&#45;&gt;CONSENSUS_PEAKS -->
<g id="edge54" class="edge">
<title>BWA_MEM&#45;&gt;CONSENSUS_PEAKS</title>
<path fill="none" stroke="black" d="M1619.5,-662.77C1767.04,-656.01 2134.41,-630.27 2209,-540 2286.58,-446.11 2137.69,-311.74 2070.01,-258.25"/>
<polygon fill="black" stroke="black" points="2071.83,-255.24 2061.8,-251.84 2067.53,-260.75 2071.83,-255.24"/>
</g>
<!-- BWA_MEM&#45;&gt;CONSENSUS_PEAKS_ANNOTATE -->
<g id="edge55" class="edge">
<title>BWA_MEM&#45;&gt;CONSENSUS_PEAKS_ANNOTATE</title>
<path fill="none" stroke="black" d="M1525.69,-650.41C1510.39,-641.65 1493.61,-628.88 1485,-612 1477.73,-597.75 1482.46,-591.8 1485,-576 1511.78,-409.63 1520.7,-362.49 1604,-216 1609.72,-205.94 1617.52,-196.06 1625.08,-187.6"/>
<polygon fill="black" stroke="black" points="1627.64,-189.98 1631.88,-180.27 1622.51,-185.22 1627.64,-189.98"/>
</g>
<!-- BWA_MEM&#45;&gt;CONSENSUS_PEAKS_COUNTS -->
<g id="edge56" class="edge">
<title>BWA_MEM&#45;&gt;CONSENSUS_PEAKS_COUNTS</title>
<path fill="none" stroke="black" d="M1496.96,-662.12C1422.71,-657.28 1294.25,-644.6 1189,-612 986.58,-549.29 893.99,-518.12 809,-324 802.58,-309.34 799.29,-300.71 809,-288 851.22,-232.75 1036.49,-196.1 1158.36,-177.49"/>
<polygon fill="black" stroke="black" points="1159.11,-180.91 1168.48,-175.96 1158.07,-173.99 1159.11,-180.91"/>
</g>
<!-- BWA_MEM&#45;&gt;CONSENSUS_PEAKS_DESEQ2 -->
<g id="edge57" class="edge">
<title>BWA_MEM&#45;&gt;CONSENSUS_PEAKS_DESEQ2</title>
<path fill="none" stroke="black" d="M1495.33,-665.26C1401.98,-664.07 1221.77,-655.63 1076,-612 894.5,-557.68 734.51,-466.14 799,-288 813.18,-248.83 824.3,-239.04 859,-216 950.36,-155.35 987.35,-164.89 1095,-144 1244.87,-114.92 1418.72,-101.78 1541.68,-95.85"/>
<polygon fill="black" stroke="black" points="1542.1,-99.34 1551.92,-95.37 1541.77,-92.34 1542.1,-99.34"/>
</g>
<!-- BWA_MEM&#45;&gt;MULTIQC -->
<g id="edge58" class="edge">
<title>BWA_MEM&#45;&gt;MULTIQC</title>
<path fill="none" stroke="black" d="M1495.6,-665.14C1306.15,-665.01 739.84,-660.48 563,-612 316.7,-544.48 76,-562.39 76,-307 76,-307 76,-307 76,-161 76,-113.54 93.53,-95.08 135,-72 209.76,-30.39 1507.14,-20.97 1818.32,-19.31"/>
<polygon fill="black" stroke="black" points="1818.55,-22.81 1828.53,-19.26 1818.52,-15.81 1818.55,-22.81"/>
</g>
<!-- SORT_BAM&#45;&gt;PLOTPROFILE -->
<g id="edge59" class="edge">
<title>SORT_BAM&#45;&gt;PLOTPROFILE</title>
<path fill="none" stroke="black" d="M1496.38,-589.04C1390.24,-581.68 1177.5,-564.38 1107,-540 904.14,-469.84 878.49,-399.37 695,-288 677.92,-277.63 658.94,-266.19 642.99,-256.6"/>
<polygon fill="black" stroke="black" points="644.36,-253.34 633.99,-251.19 640.76,-259.34 644.36,-253.34"/>
</g>
<!-- SORT_BAM&#45;&gt;MERGED_BAM -->
<g id="edge60" class="edge">
<title>SORT_BAM&#45;&gt;MERGED_BAM</title>
<path fill="none" stroke="black" d="M1617.21,-587.31C1705.25,-578.6 1875.76,-560.77 2020,-540 2028.85,-538.73 2038.13,-537.27 2047.3,-535.76"/>
<polygon fill="black" stroke="black" points="2047.9,-539.21 2057.18,-534.11 2046.74,-532.31 2047.9,-539.21"/>
</g>
<!-- SORT_BAM&#45;&gt;MERGED_BAM_FILTER -->
<g id="edge61" class="edge">
<title>SORT_BAM&#45;&gt;MERGED_BAM_FILTER</title>
<path fill="none" stroke="black" d="M1549.78,-576.07C1539.45,-556.35 1520,-523.96 1495,-504 1476.42,-489.16 1453.09,-477.88 1431.47,-469.62"/>
<polygon fill="black" stroke="black" points="1432.59,-466.31 1422,-466.15 1430.18,-472.88 1432.59,-466.31"/>
</g>
<!-- SORT_BAM&#45;&gt;PRESEQ -->
<g id="edge62" class="edge">
<title>SORT_BAM&#45;&gt;PRESEQ</title>
<path fill="none" stroke="black" d="M1621.04,-591.05C1752.29,-586.47 2064.29,-572.81 2324,-540 2482.06,-520.03 2666.7,-481.8 2754.92,-462.6"/>
<polygon fill="black" stroke="black" points="2755.91,-465.97 2764.93,-460.41 2754.42,-459.13 2755.91,-465.97"/>
</g>
<!-- SORT_BAM&#45;&gt;MERGED_BAM_REMOVE_ORPHAN -->
<g id="edge63" class="edge">
<title>SORT_BAM&#45;&gt;MERGED_BAM_REMOVE_ORPHAN</title>
<path fill="none" stroke="black" d="M1571.7,-576.07C1597.3,-545.09 1655.06,-478.21 1713,-432 1727.45,-420.47 1744.63,-409.59 1759.95,-400.72"/>
<polygon fill="black" stroke="black" points="1761.76,-403.72 1768.73,-395.74 1758.3,-397.63 1761.76,-403.72"/>
</g>
<!-- SORT_BAM&#45;&gt;PICARD_METRICS -->
<g id="edge64" class="edge">
<title>SORT_BAM&#45;&gt;PICARD_METRICS</title>
<path fill="none" stroke="black" d="M1621.84,-593.79C1776.63,-594.85 2167.89,-592.11 2286,-540 2307.28,-530.61 2303.02,-514.04 2324,-504 2431.61,-452.49 2479.61,-513.25 2590,-468 2614.67,-457.89 2615.55,-446.38 2638,-432 2701.53,-391.3 2779.44,-350.99 2826.6,-327.57"/>
<polygon fill="black" stroke="black" points="2828.2,-330.69 2835.61,-323.12 2825.1,-324.41 2828.2,-330.69"/>
</g>
<!-- SORT_BAM&#45;&gt;PHANTOMPEAKQUALTOOLS -->
<g id="edge65" class="edge">
<title>SORT_BAM&#45;&gt;PHANTOMPEAKQUALTOOLS</title>
<path fill="none" stroke="black" d="M1494.21,-593.16C1390.78,-590.23 1184.73,-570.75 1052,-468 1007.64,-433.66 983.08,-370.1 972.12,-333.96"/>
<polygon fill="black" stroke="black" points="975.41,-332.75 969.26,-324.12 968.69,-334.7 975.41,-332.75"/>
</g>
<!-- SORT_BAM&#45;&gt;BIGWIG -->
<g id="edge66" class="edge">
<title>SORT_BAM&#45;&gt;BIGWIG</title>
<path fill="none" stroke="black" d="M1494.76,-591.32C1364.03,-587.2 1068.37,-574.28 974,-540 842,-492.05 713.34,-379.05 661.7,-330.19"/>
<polygon fill="black" stroke="black" points="664.02,-327.56 654.37,-323.19 659.19,-332.62 664.02,-327.56"/>
</g>
<!-- SORT_BAM&#45;&gt;PLOTFINGERPRINT -->
<g id="edge67" class="edge">
<title>SORT_BAM&#45;&gt;PLOTFINGERPRINT</title>
<path fill="none" stroke="black" d="M1495.03,-591.22C1351.55,-586.63 1004.12,-572.44 892,-540 858.96,-530.44 648.05,-412.74 618,-396 578.08,-373.76 533.03,-346.99 502.61,-328.65"/>
<polygon fill="black" stroke="black" points="504.42,-325.65 494.05,-323.48 500.8,-331.65 504.42,-325.65"/>
</g>
<!-- SORT_BAM&#45;&gt;MACS2 -->
<g id="edge68" class="edge">
<title>SORT_BAM&#45;&gt;MACS2</title>
<path fill="none" stroke="black" d="M1616.23,-586.69C1716.63,-575.57 1914.44,-552.47 1944,-540 2063.18,-489.72 2175.61,-379.29 2221.4,-330.72"/>
<polygon fill="black" stroke="black" points="2224.15,-332.9 2228.42,-323.2 2219.04,-328.13 2224.15,-332.9"/>
</g>
<!-- SORT_BAM&#45;&gt;MACS2_ANNOTATE -->
<g id="edge69" class="edge">
<title>SORT_BAM&#45;&gt;MACS2_ANNOTATE</title>
<path fill="none" stroke="black" d="M1619.39,-588.94C1776.32,-578.42 2181.71,-550.43 2209,-540 2215.19,-537.64 2298.92,-472.24 2304,-468 2376.7,-407.34 2395.25,-392.13 2461,-324 2481.07,-303.21 2502.29,-278.05 2517.2,-259.79"/>
<polygon fill="black" stroke="black" points="2519.99,-261.9 2523.57,-251.93 2514.56,-257.49 2519.99,-261.9"/>
</g>
<!-- SORT_BAM&#45;&gt;MACS2_QC -->
<g id="edge70" class="edge">
<title>SORT_BAM&#45;&gt;MACS2_QC</title>
<path fill="none" stroke="black" d="M1621.66,-593.38C1770.25,-593.44 2135.79,-588.48 2247,-540 2268.62,-530.57 2267.45,-518.58 2286,-504 2365.52,-441.5 2617.22,-341.14 2665,-252 2672.56,-237.9 2671.75,-230.51 2665,-216 2659.14,-203.4 2648.64,-192.73 2637.88,-184.34"/>
<polygon fill="black" stroke="black" points="2639.81,-181.42 2629.66,-178.37 2635.7,-187.08 2639.81,-181.42"/>
</g>
<!-- SORT_BAM&#45;&gt;CONSENSUS_PEAKS -->
<g id="edge71" class="edge">
<title>SORT_BAM&#45;&gt;CONSENSUS_PEAKS</title>
<path fill="none" stroke="black" d="M1613.44,-585.04C1709.58,-568.21 1906.99,-519.87 2012,-396 2043.89,-358.38 2044.9,-297.52 2042.28,-262.4"/>
<polygon fill="black" stroke="black" points="2045.76,-262.02 2041.38,-252.37 2038.79,-262.65 2045.76,-262.02"/>
</g>
<!-- SORT_BAM&#45;&gt;CONSENSUS_PEAKS_ANNOTATE -->
<g id="edge72" class="edge">
<title>SORT_BAM&#45;&gt;CONSENSUS_PEAKS_ANNOTATE</title>
<path fill="none" stroke="black" d="M1558.15,-575.74C1559.19,-520.95 1566.74,-346.86 1620,-216 1623.75,-206.79 1628.79,-197.2 1633.67,-188.75"/>
<polygon fill="black" stroke="black" points="1636.71,-190.48 1638.83,-180.1 1630.7,-186.89 1636.71,-190.48"/>
</g>
<!-- SORT_BAM&#45;&gt;CONSENSUS_PEAKS_COUNTS -->
<g id="edge73" class="edge">
<title>SORT_BAM&#45;&gt;CONSENSUS_PEAKS_COUNTS</title>
<path fill="none" stroke="black" d="M1538.16,-576.82C1525.63,-566.47 1509.18,-552.66 1495,-540 1477.65,-524.5 1477.84,-514.33 1457,-504 1368.23,-459.99 1301.15,-543.5 1237,-468 1202.77,-427.71 1284.75,-396.74 1306,-324 1310.49,-308.64 1308.35,-303.83 1306,-288 1300.81,-253.1 1287.9,-214.45 1278.56,-189.51"/>
<polygon fill="black" stroke="black" points="1281.78,-188.11 1274.94,-180.02 1275.24,-190.61 1281.78,-188.11"/>
</g>
<!-- SORT_BAM&#45;&gt;CONSENSUS_PEAKS_DESEQ2 -->
<g id="edge74" class="edge">
<title>SORT_BAM&#45;&gt;CONSENSUS_PEAKS_DESEQ2</title>
<path fill="none" stroke="black" d="M1501.29,-585.6C1428.58,-573.32 1302.65,-542.27 1225,-468 1197.17,-441.38 1076,-172.4 1102,-144 1131.06,-112.26 1371.17,-99.42 1538.41,-94.3"/>
<polygon fill="black" stroke="black" points="1538.67,-97.79 1548.56,-94 1538.46,-90.8 1538.67,-97.79"/>
</g>
<!-- SORT_BAM&#45;&gt;MULTIQC -->
<g id="edge75" class="edge">
<title>SORT_BAM&#45;&gt;MULTIQC</title>
<path fill="none" stroke="black" d="M1495.01,-591.33C1339.67,-586.75 941.54,-572.17 813,-540 490.11,-459.19 129,-567.85 129,-235 129,-235 129,-235 129,-161 129,26.77 355.72,-95.57 542,-72 793.2,-40.22 1583.68,-24.23 1818.55,-20.1"/>
<polygon fill="black" stroke="black" points="1818.72,-23.6 1828.66,-19.93 1818.6,-16.6 1818.72,-23.6"/>
</g>
<!-- MERGED_BAM&#45;&gt;PLOTPROFILE -->
<g id="edge76" class="edge">
<title>MERGED_BAM&#45;&gt;PLOTPROFILE</title>
<path fill="none" stroke="black" d="M2036.23,-520.26C1830.87,-517.82 1304.91,-507.72 1237,-468 1195.92,-443.98 1161.56,-312.89 1121,-288 1051.96,-245.62 824.5,-236.66 696.52,-235.06"/>
<polygon fill="black" stroke="black" points="696.38,-231.55 686.34,-234.94 696.3,-238.55 696.38,-231.55"/>
</g>
<!-- MERGED_BAM&#45;&gt;MERGED_BAM_FILTER -->
<g id="edge77" class="edge">
<title>MERGED_BAM&#45;&gt;MERGED_BAM_FILTER</title>
<path fill="none" stroke="black" d="M2044.28,-514.13C1911.56,-501.76 1631.83,-475.68 1476.6,-461.22"/>
<polygon fill="black" stroke="black" points="1476.84,-457.72 1466.56,-460.28 1476.19,-464.69 1476.84,-457.72"/>
</g>
<!-- MERGED_BAM&#45;&gt;PRESEQ -->
<g id="edge78" class="edge">
<title>MERGED_BAM&#45;&gt;PRESEQ</title>
<path fill="none" stroke="black" d="M2190.76,-513.61C2327.87,-499.68 2622,-469.8 2747.87,-457.01"/>
<polygon fill="black" stroke="black" points="2748.49,-460.46 2758.08,-455.97 2747.78,-453.5 2748.49,-460.46"/>
</g>
<!-- MERGED_BAM&#45;&gt;MERGED_BAM_REMOVE_ORPHAN -->
<g id="edge79" class="edge">
<title>MERGED_BAM&#45;&gt;MERGED_BAM_REMOVE_ORPHAN</title>
<path fill="none" stroke="black" d="M2097.02,-504.42C2071.24,-484.75 2025.56,-452.09 1982,-432 1950.34,-417.4 1913.7,-405.77 1881.7,-397.17"/>
<polygon fill="black" stroke="black" points="1882.5,-393.76 1871.93,-394.6 1880.71,-400.53 1882.5,-393.76"/>
</g>
<!-- MERGED_BAM&#45;&gt;PICARD_METRICS -->
<g id="edge80" class="edge">
<title>MERGED_BAM&#45;&gt;PICARD_METRICS</title>
<path fill="none" stroke="black" d="M2175.56,-509.12C2270.63,-489.01 2466.08,-445.57 2628,-396 2696.03,-375.18 2772.85,-345.75 2821.09,-326.52"/>
<polygon fill="black" stroke="black" points="2822.66,-329.67 2830.64,-322.7 2820.06,-323.17 2822.66,-329.67"/>
</g>
<!-- MERGED_BAM&#45;&gt;PHANTOMPEAKQUALTOOLS -->
<g id="edge81" class="edge">
<title>MERGED_BAM&#45;&gt;PHANTOMPEAKQUALTOOLS</title>
<path fill="none" stroke="black" d="M2036.96,-518.97C1827.85,-513.37 1281.01,-496.17 1204,-468 1178.96,-458.84 1177.83,-447.31 1156,-432 1102.83,-394.72 1039.47,-353.95 1000.75,-329.43"/>
<polygon fill="black" stroke="black" points="1002.26,-326.24 991.93,-323.86 998.52,-332.16 1002.26,-326.24"/>
</g>
<!-- MERGED_BAM&#45;&gt;BIGWIG -->
<g id="edge82" class="edge">
<title>MERGED_BAM&#45;&gt;BIGWIG</title>
<path fill="none" stroke="black" d="M2036.94,-519.1C1836.97,-514 1324.22,-498.3 1156,-468 1061.4,-450.96 788.32,-358.73 681.53,-322.05"/>
<polygon fill="black" stroke="black" points="682.62,-318.73 672.03,-318.78 680.35,-325.35 682.62,-318.73"/>
</g>
<!-- MERGED_BAM&#45;&gt;PLOTFINGERPRINT -->
<g id="edge83" class="edge">
<title>MERGED_BAM&#45;&gt;PLOTFINGERPRINT</title>
<path fill="none" stroke="black" d="M2036.7,-519.58C1816.71,-515.34 1213.15,-500.95 1017,-468 828.46,-436.33 613.09,-361.5 517.39,-326.14"/>
<polygon fill="black" stroke="black" points="518.55,-322.84 507.96,-322.64 516.12,-329.4 518.55,-322.84"/>
</g>
<!-- MERGED_BAM&#45;&gt;MACS2 -->
<g id="edge84" class="edge">
<title>MERGED_BAM&#45;&gt;MACS2</title>
<path fill="none" stroke="black" d="M2127.19,-503.84C2138.2,-484.5 2158.18,-453.04 2182,-432 2207.05,-409.88 2230.94,-424.73 2248,-396 2259.06,-377.36 2256.53,-352.48 2251.96,-333.76"/>
<polygon fill="black" stroke="black" points="2255.32,-332.78 2249.28,-324.07 2248.57,-334.65 2255.32,-332.78"/>
</g>
<!-- MERGED_BAM&#45;&gt;MACS2_ANNOTATE -->
<g id="edge85" class="edge">
<title>MERGED_BAM&#45;&gt;MACS2_ANNOTATE</title>
<path fill="none" stroke="black" d="M2146.91,-505.05C2165.19,-494.79 2189.21,-480.99 2210,-468 2306.9,-407.44 2330.58,-391.2 2423,-324 2452.66,-302.43 2485.59,-276.5 2508.4,-258.21"/>
<polygon fill="black" stroke="black" points="2510.72,-260.83 2516.32,-251.84 2506.33,-255.38 2510.72,-260.83"/>
</g>
<!-- MERGED_BAM&#45;&gt;MACS2_QC -->
<g id="edge86" class="edge">
<title>MERGED_BAM&#45;&gt;MACS2_QC</title>
<path fill="none" stroke="black" d="M2158.71,-506.37C2185.55,-496.37 2221.29,-482.36 2252,-468 2297.49,-446.73 2623.34,-295.17 2649,-252 2661.89,-230.31 2645.29,-204.78 2628.37,-186.64"/>
<polygon fill="black" stroke="black" points="2630.69,-184.01 2621.18,-179.35 2625.71,-188.93 2630.69,-184.01"/>
</g>
<!-- MERGED_BAM&#45;&gt;CONSENSUS_PEAKS -->
<g id="edge87" class="edge">
<title>MERGED_BAM&#45;&gt;CONSENSUS_PEAKS</title>
<path fill="none" stroke="black" d="M2117.29,-503.74C2115.7,-473.89 2110.75,-410.94 2096,-360 2085.69,-324.4 2066.9,-285.97 2053.72,-261.26"/>
<polygon fill="black" stroke="black" points="2056.64,-259.3 2048.8,-252.18 2050.49,-262.64 2056.64,-259.3"/>
</g>
<!-- MERGED_BAM&#45;&gt;CONSENSUS_PEAKS_ANNOTATE -->
<g id="edge88" class="edge">
<title>MERGED_BAM&#45;&gt;CONSENSUS_PEAKS_ANNOTATE</title>
<path fill="none" stroke="black" d="M2107.06,-503.79C2086.46,-472.36 2039.27,-404.78 1987,-360 1894.47,-280.73 1765.68,-215.63 1697.21,-183.9"/>
<polygon fill="black" stroke="black" points="1698.51,-180.65 1687.96,-179.65 1695.58,-187.01 1698.51,-180.65"/>
</g>
<!-- MERGED_BAM&#45;&gt;CONSENSUS_PEAKS_COUNTS -->
<g id="edge89" class="edge">
<title>MERGED_BAM&#45;&gt;CONSENSUS_PEAKS_COUNTS</title>
<path fill="none" stroke="black" d="M2050.06,-511.79C1951.06,-496.69 1762.85,-461.58 1615,-396 1548.07,-366.32 1371.04,-238.65 1299.08,-185.92"/>
<polygon fill="black" stroke="black" points="1300.97,-182.97 1290.84,-179.87 1296.83,-188.61 1300.97,-182.97"/>
</g>
<!-- MERGED_BAM&#45;&gt;CONSENSUS_PEAKS_DESEQ2 -->
<g id="edge90" class="edge">
<title>MERGED_BAM&#45;&gt;CONSENSUS_PEAKS_DESEQ2</title>
<path fill="none" stroke="black" d="M2139.61,-504.54C2152.21,-494.53 2168.1,-481.18 2181,-468 2195.37,-453.32 2194.72,-445.73 2210,-432 2232.01,-412.22 2246.87,-418.57 2266,-396 2298.29,-357.9 2312.15,-335.59 2297,-288 2285.11,-250.63 2275.22,-242.16 2246,-216 2196.79,-171.95 2178.77,-164.55 2116,-144 2033.09,-116.85 1936.62,-103.51 1857.57,-97"/>
<polygon fill="black" stroke="black" points="1857.77,-93.51 1847.53,-96.2 1857.22,-100.48 1857.77,-93.51"/>
</g>
<!-- MERGED_BAM&#45;&gt;MULTIQC -->
<g id="edge91" class="edge">
<title>MERGED_BAM&#45;&gt;MULTIQC</title>
<path fill="none" stroke="black" d="M2175.54,-509.08C2344.3,-471.49 2817.33,-345.83 2675,-144 2592.22,-26.62 2127.32,-17.32 1951.95,-18.08"/>
<polygon fill="black" stroke="black" points="1951.8,-14.58 1941.82,-18.13 1951.84,-21.58 1951.8,-14.58"/>
</g>
<!-- MERGED_BAM_FILTER&#45;&gt;PLOTPROFILE -->
<g id="edge92" class="edge">
<title>MERGED_BAM_FILTER&#45;&gt;PLOTPROFILE</title>
<path fill="none" stroke="black" d="M1351.33,-432.05C1318.53,-397.85 1238.64,-321.02 1154,-288 1072.68,-256.28 828.14,-242.83 695.27,-237.73"/>
<polygon fill="black" stroke="black" points="695.24,-234.23 685.11,-237.35 694.98,-241.23 695.24,-234.23"/>
</g>
<!-- MERGED_BAM_FILTER&#45;&gt;MERGED_BAM_REMOVE_ORPHAN -->
<g id="edge93" class="edge">
<title>MERGED_BAM_FILTER&#45;&gt;MERGED_BAM_REMOVE_ORPHAN</title>
<path fill="none" stroke="black" d="M1445.85,-436.28C1517.41,-424.74 1623.3,-407.66 1700.84,-395.16"/>
<polygon fill="black" stroke="black" points="1701.79,-398.55 1711.1,-393.5 1700.67,-391.64 1701.79,-398.55"/>
</g>
<!-- MERGED_BAM_FILTER&#45;&gt;PICARD_METRICS -->
<g id="edge94" class="edge">
<title>MERGED_BAM_FILTER&#45;&gt;PICARD_METRICS</title>
<path fill="none" stroke="black" d="M1486.85,-447.27C1674.17,-443.53 2047.47,-431.85 2362,-396 2518.72,-378.14 2700.34,-342.6 2798.03,-322.25"/>
<polygon fill="black" stroke="black" points="2799.01,-325.62 2808.08,-320.15 2797.58,-318.77 2799.01,-325.62"/>
</g>
<!-- MERGED_BAM_FILTER&#45;&gt;PHANTOMPEAKQUALTOOLS -->
<g id="edge95" class="edge">
<title>MERGED_BAM_FILTER&#45;&gt;PHANTOMPEAKQUALTOOLS</title>
<path fill="none" stroke="black" d="M1328.37,-432.89C1303.2,-422.39 1269.65,-408.39 1240,-396 1201.77,-380.02 1193.13,-373.62 1154,-360 1115.9,-346.74 1072.63,-334.41 1037.11,-324.99"/>
<polygon fill="black" stroke="black" points="1037.87,-321.57 1027.31,-322.41 1036.09,-328.34 1037.87,-321.57"/>
</g>
<!-- MERGED_BAM_FILTER&#45;&gt;BIGWIG -->
<g id="edge96" class="edge">
<title>MERGED_BAM_FILTER&#45;&gt;BIGWIG</title>
<path fill="none" stroke="black" d="M1299.45,-434.99C1212.98,-417.15 1058.49,-385.56 926,-360 843.82,-344.15 748.25,-326.77 690.48,-316.38"/>
<polygon fill="black" stroke="black" points="690.96,-312.91 680.5,-314.59 689.72,-319.8 690.96,-312.91"/>
</g>
<!-- MERGED_BAM_FILTER&#45;&gt;PLOTFINGERPRINT -->
<g id="edge97" class="edge">
<title>MERGED_BAM_FILTER&#45;&gt;PLOTFINGERPRINT</title>
<path fill="none" stroke="black" d="M1269.51,-439.32C1179.96,-429.94 1043.7,-414.46 926,-396 788.42,-374.42 629.09,-341.79 538.95,-322.62"/>
<polygon fill="black" stroke="black" points="539.62,-319.18 529.11,-320.52 538.16,-326.03 539.62,-319.18"/>
</g>
<!-- MERGED_BAM_FILTER&#45;&gt;MACS2 -->
<g id="edge98" class="edge">
<title>MERGED_BAM_FILTER&#45;&gt;MACS2</title>
<path fill="none" stroke="black" d="M1480.79,-443.86C1639.95,-435.96 1920.68,-419.29 2020,-396 2088.67,-379.9 2163.98,-346.2 2207.16,-325.2"/>
<polygon fill="black" stroke="black" points="2208.96,-328.22 2216.39,-320.67 2205.87,-321.94 2208.96,-328.22"/>
</g>
<!-- MERGED_BAM_FILTER&#45;&gt;MACS2_ANNOTATE -->
<g id="edge99" class="edge">
<title>MERGED_BAM_FILTER&#45;&gt;MACS2_ANNOTATE</title>
<path fill="none" stroke="black" d="M1484.15,-445.4C1674.89,-438.86 2044.15,-423.1 2172,-396 2300.19,-368.83 2438.26,-293.88 2501.59,-256.62"/>
<polygon fill="black" stroke="black" points="2503.57,-259.52 2510.38,-251.4 2500,-253.49 2503.57,-259.52"/>
</g>
<!-- MERGED_BAM_FILTER&#45;&gt;MACS2_QC -->
<g id="edge100" class="edge">
<title>MERGED_BAM_FILTER&#45;&gt;MACS2_QC</title>
<path fill="none" stroke="black" d="M1483.48,-445.04C1657.25,-438.36 1975.83,-422.86 2087,-396 2126.88,-386.37 2133.33,-373.7 2172,-360 2226.49,-340.69 2246.01,-351.24 2297,-324 2362.65,-288.93 2359.53,-251.42 2425,-216 2460.95,-196.55 2504.96,-183.33 2540.11,-174.96"/>
<polygon fill="black" stroke="black" points="2541.28,-178.28 2550.24,-172.62 2539.71,-171.46 2541.28,-178.28"/>
</g>
<!-- MERGED_BAM_FILTER&#45;&gt;CONSENSUS_PEAKS -->
<g id="edge101" class="edge">
<title>MERGED_BAM_FILTER&#45;&gt;CONSENSUS_PEAKS</title>
<path fill="none" stroke="black" d="M1484.91,-445.88C1653.83,-440.36 1948.69,-426.47 1987,-396 2008.15,-379.18 2025.76,-303.38 2033.99,-262.06"/>
<polygon fill="black" stroke="black" points="2037.45,-262.6 2035.92,-252.12 2030.58,-261.27 2037.45,-262.6"/>
</g>
<!-- MERGED_BAM_FILTER&#45;&gt;CONSENSUS_PEAKS_ANNOTATE -->
<g id="edge102" class="edge">
<title>MERGED_BAM_FILTER&#45;&gt;CONSENSUS_PEAKS_ANNOTATE</title>
<path fill="none" stroke="black" d="M1385.51,-432.1C1396.09,-422.05 1409.34,-408.8 1420,-396 1482.16,-321.34 1470.68,-279.73 1544,-216 1559.21,-202.78 1578.29,-191.92 1596.06,-183.55"/>
<polygon fill="black" stroke="black" points="1597.55,-186.72 1605.2,-179.4 1594.65,-180.34 1597.55,-186.72"/>
</g>
<!-- MERGED_BAM_FILTER&#45;&gt;CONSENSUS_PEAKS_COUNTS -->
<g id="edge103" class="edge">
<title>MERGED_BAM_FILTER&#45;&gt;CONSENSUS_PEAKS_COUNTS</title>
<path fill="none" stroke="black" d="M1366.78,-431.53C1365.92,-401.38 1361.91,-337.97 1344,-288 1330.65,-250.74 1305.38,-212.51 1287.66,-188.31"/>
<polygon fill="black" stroke="black" points="1290.29,-185.98 1281.51,-180.06 1284.68,-190.17 1290.29,-185.98"/>
</g>
<!-- MERGED_BAM_FILTER&#45;&gt;CONSENSUS_PEAKS_DESEQ2 -->
<g id="edge104" class="edge">
<title>MERGED_BAM_FILTER&#45;&gt;CONSENSUS_PEAKS_DESEQ2</title>
<path fill="none" stroke="black" d="M1370.6,-431.95C1383.21,-373.78 1427.07,-184.48 1472,-144 1490.44,-127.39 1543.06,-114.6 1593.21,-105.74"/>
<polygon fill="black" stroke="black" points="1593.94,-109.17 1603.2,-104.03 1592.75,-102.27 1593.94,-109.17"/>
</g>
<!-- MERGED_BAM_FILTER&#45;&gt;MULTIQC -->
<g id="edge105" class="edge">
<title>MERGED_BAM_FILTER&#45;&gt;MULTIQC</title>
<path fill="none" stroke="black" d="M1357.66,-431.72C1346.96,-412.84 1328.14,-382.32 1307,-360 1261.4,-311.85 1098.54,-239.37 1069,-180 1061.87,-165.67 1058.91,-156.42 1069,-144 1162.78,-28.63 1640.51,-18.16 1818.26,-18.34"/>
<polygon fill="black" stroke="black" points="1818.26,-21.84 1828.27,-18.36 1818.28,-14.84 1818.26,-21.84"/>
</g>
<!-- PRESEQ&#45;&gt;MULTIQC -->
<g id="edge106" class="edge">
<title>PRESEQ&#45;&gt;MULTIQC</title>
<path fill="none" stroke="black" d="M2858.42,-448.95C2923.03,-447.01 3035.86,-437.29 3122,-396 3175.65,-370.28 3222,-366.5 3222,-307 3222,-307 3222,-307 3222,-233 3222,-154.43 3214.13,-115.94 3149,-72 3099.05,-38.3 2205.84,-23.43 1951.86,-19.87"/>
<polygon fill="black" stroke="black" points="1951.72,-16.37 1941.67,-19.73 1951.62,-23.37 1951.72,-16.37"/>
</g>
<!-- MERGED_BAM_REMOVE_ORPHAN&#45;&gt;PLOTPROFILE -->
<g id="edge107" class="edge">
<title>MERGED_BAM_REMOVE_ORPHAN&#45;&gt;PLOTPROFILE</title>
<path fill="none" stroke="black" d="M1717.56,-362.12C1606.56,-342.77 1404.07,-308.94 1230,-288 1038.62,-264.97 812.99,-248.39 692.7,-240.39"/>
<polygon fill="black" stroke="black" points="692.66,-236.88 682.45,-239.71 692.2,-243.87 692.66,-236.88"/>
</g>
<!-- MERGED_BAM_REMOVE_ORPHAN&#45;&gt;PICARD_METRICS -->
<g id="edge108" class="edge">
<title>MERGED_BAM_REMOVE_ORPHAN&#45;&gt;PICARD_METRICS</title>
<path fill="none" stroke="black" d="M1945.04,-367.56C2164.86,-353.15 2578.56,-326.04 2768.74,-313.57"/>
<polygon fill="black" stroke="black" points="2768.98,-317.06 2778.73,-312.92 2768.52,-310.08 2768.98,-317.06"/>
</g>
<!-- MERGED_BAM_REMOVE_ORPHAN&#45;&gt;PHANTOMPEAKQUALTOOLS -->
<g id="edge109" class="edge">
<title>MERGED_BAM_REMOVE_ORPHAN&#45;&gt;PHANTOMPEAKQUALTOOLS</title>
<path fill="none" stroke="black" d="M1668.99,-365.95C1511.08,-352.72 1248.53,-330.74 1092.59,-317.68"/>
<polygon fill="black" stroke="black" points="1092.73,-314.18 1082.48,-316.84 1092.15,-321.16 1092.73,-314.18"/>
</g>
<!-- MERGED_BAM_REMOVE_ORPHAN&#45;&gt;BIGWIG -->
<g id="edge110" class="edge">
<title>MERGED_BAM_REMOVE_ORPHAN&#45;&gt;BIGWIG</title>
<path fill="none" stroke="black" d="M1639.34,-370.63C1442.87,-362.37 1101.34,-346.33 809,-324 770.31,-321.05 726.81,-316.71 693.36,-313.15"/>
<polygon fill="black" stroke="black" points="693.63,-309.66 683.31,-312.07 692.88,-316.62 693.63,-309.66"/>
</g>
<!-- MERGED_BAM_REMOVE_ORPHAN&#45;&gt;PLOTFINGERPRINT -->
<g id="edge111" class="edge">
<title>MERGED_BAM_REMOVE_ORPHAN&#45;&gt;PLOTFINGERPRINT</title>
<path fill="none" stroke="black" d="M1626.35,-375.15C1389.16,-371.32 952.16,-359.64 581,-324 570.81,-323.02 560.14,-321.76 549.59,-320.36"/>
<polygon fill="black" stroke="black" points="549.92,-316.87 539.53,-318.98 548.97,-323.8 549.92,-316.87"/>
</g>
<!-- MERGED_BAM_REMOVE_ORPHAN&#45;&gt;MACS2 -->
<g id="edge112" class="edge">
<title>MERGED_BAM_REMOVE_ORPHAN&#45;&gt;MACS2</title>
<path fill="none" stroke="black" d="M1892.31,-362.54C1982.85,-348.2 2118.32,-326.75 2191.56,-315.15"/>
<polygon fill="black" stroke="black" points="2192.14,-318.6 2201.47,-313.58 2191.05,-311.68 2192.14,-318.6"/>
</g>
<!-- MERGED_BAM_REMOVE_ORPHAN&#45;&gt;MACS2_ANNOTATE -->
<g id="edge113" class="edge">
<title>MERGED_BAM_REMOVE_ORPHAN&#45;&gt;MACS2_ANNOTATE</title>
<path fill="none" stroke="black" d="M1959.89,-370.09C2058.05,-363.35 2186.03,-350.07 2297,-324 2367.42,-307.45 2445.33,-275.96 2492.72,-255.23"/>
<polygon fill="black" stroke="black" points="2494.34,-258.34 2502.07,-251.1 2491.51,-251.93 2494.34,-258.34"/>
</g>
<!-- MERGED_BAM_REMOVE_ORPHAN&#45;&gt;MACS2_QC -->
<g id="edge114" class="edge">
<title>MERGED_BAM_REMOVE_ORPHAN&#45;&gt;MACS2_QC</title>
<path fill="none" stroke="black" d="M1832.74,-360.28C1847.51,-351.19 1864.36,-338.78 1876,-324 1907.97,-283.42 1877.4,-246.63 1919,-216 1967.19,-180.52 2361.85,-168.07 2528.34,-164.37"/>
<polygon fill="black" stroke="black" points="2528.57,-167.86 2538.5,-164.14 2528.42,-160.86 2528.57,-167.86"/>
</g>
<!-- MERGED_BAM_REMOVE_ORPHAN&#45;&gt;CONSENSUS_PEAKS -->
<g id="edge115" class="edge">
<title>MERGED_BAM_REMOVE_ORPHAN&#45;&gt;CONSENSUS_PEAKS</title>
<path fill="none" stroke="black" d="M1840.85,-360.42C1862.9,-350.72 1890.52,-337.72 1914,-324 1948.16,-304.05 1984.75,-277.3 2009.45,-258.35"/>
<polygon fill="black" stroke="black" points="2011.9,-260.88 2017.67,-252 2007.62,-255.34 2011.9,-260.88"/>
</g>
<!-- MERGED_BAM_REMOVE_ORPHAN&#45;&gt;CONSENSUS_PEAKS_ANNOTATE -->
<g id="edge116" class="edge">
<title>MERGED_BAM_REMOVE_ORPHAN&#45;&gt;CONSENSUS_PEAKS_ANNOTATE</title>
<path fill="none" stroke="black" d="M1788.9,-359.85C1762.39,-322.28 1699.09,-232.58 1667.94,-188.43"/>
<polygon fill="black" stroke="black" points="1670.78,-186.39 1662.16,-180.23 1665.06,-190.42 1670.78,-186.39"/>
</g>
<!-- MERGED_BAM_REMOVE_ORPHAN&#45;&gt;CONSENSUS_PEAKS_COUNTS -->
<g id="edge117" class="edge">
<title>MERGED_BAM_REMOVE_ORPHAN&#45;&gt;CONSENSUS_PEAKS_COUNTS</title>
<path fill="none" stroke="black" d="M1763.74,-360.31C1695.91,-330.14 1547.49,-265.1 1420,-216 1389.44,-204.23 1355.01,-192.13 1326.65,-182.47"/>
<polygon fill="black" stroke="black" points="1327.49,-179.05 1316.89,-179.16 1325.24,-185.68 1327.49,-179.05"/>
</g>
<!-- MERGED_BAM_REMOVE_ORPHAN&#45;&gt;CONSENSUS_PEAKS_DESEQ2 -->
<g id="edge118" class="edge">
<title>MERGED_BAM_REMOVE_ORPHAN&#45;&gt;CONSENSUS_PEAKS_DESEQ2</title>
<path fill="none" stroke="black" d="M1805.78,-359.9C1818.67,-312.3 1851.6,-179.41 1828,-144 1817.72,-128.57 1801.99,-117.62 1785.07,-109.86"/>
<polygon fill="black" stroke="black" points="1786.15,-106.51 1775.58,-105.86 1783.44,-112.97 1786.15,-106.51"/>
</g>
<!-- MERGED_BAM_REMOVE_ORPHAN&#45;&gt;MULTIQC -->
<g id="edge119" class="edge">
<title>MERGED_BAM_REMOVE_ORPHAN&#45;&gt;MULTIQC</title>
<path fill="none" stroke="black" d="M1813.61,-359.66C1820.3,-349.67 1828.13,-336.64 1833,-324 1870.57,-226.46 1881.07,-100.98 1883.94,-46.39"/>
<polygon fill="black" stroke="black" points="1887.45,-46.31 1884.44,-36.15 1880.46,-45.97 1887.45,-46.31"/>
</g>
<!-- PICARD_METRICS&#45;&gt;MULTIQC -->
<g id="edge120" class="edge">
<title>PICARD_METRICS&#45;&gt;MULTIQC</title>
<path fill="none" stroke="black" d="M2956.89,-298.21C3021.42,-291.19 3101.28,-277.52 3122,-252 3172.44,-189.9 3177.34,-129.77 3122,-72 3081.25,-29.47 2203.27,-20.91 1951.77,-19.33"/>
<polygon fill="black" stroke="black" points="1951.7,-15.83 1941.68,-19.27 1951.66,-22.83 1951.7,-15.83"/>
</g>
<!-- PHANTOMPEAKQUALTOOLS&#45;&gt;MULTIQC -->
<g id="edge121" class="edge">
<title>PHANTOMPEAKQUALTOOLS&#45;&gt;MULTIQC</title>
<path fill="none" stroke="black" d="M960.65,-287.76C950.82,-244.22 932.19,-129.25 993,-72 1022.98,-43.78 1616.74,-25.91 1818.54,-20.64"/>
<polygon fill="black" stroke="black" points="1818.8,-24.13 1828.71,-20.37 1818.62,-17.14 1818.8,-24.13"/>
</g>
<!-- BIGWIG&#45;&gt;PLOTPROFILE -->
<g id="edge122" class="edge">
<title>BIGWIG&#45;&gt;PLOTPROFILE</title>
<path fill="none" stroke="black" d="M630.5,-288.05C626.97,-280.09 622.68,-270.41 618.74,-261.51"/>
<polygon fill="black" stroke="black" points="621.9,-260 614.65,-252.28 615.5,-262.84 621.9,-260"/>
</g>
<!-- BIGWIG&#45;&gt;MULTIQC -->
<g id="edge123" class="edge">
<title>BIGWIG&#45;&gt;MULTIQC</title>
<path fill="none" stroke="black" d="M602.11,-293.83C570.69,-283.24 528.61,-266.8 519,-252 510.29,-238.58 512.95,-230.81 519,-216 552.84,-133.07 578.2,-108.49 660,-72 765.78,-24.82 1577.08,-19.55 1817.85,-19.04"/>
<polygon fill="black" stroke="black" points="1818.21,-22.53 1828.21,-19.02 1818.2,-15.53 1818.21,-22.53"/>
</g>
<!-- PLOTFINGERPRINT&#45;&gt;MULTIQC -->
<g id="edge124" class="edge">
<title>PLOTFINGERPRINT&#45;&gt;MULTIQC</title>
<path fill="none" stroke="black" d="M469.45,-287.98C477.16,-241.77 505.71,-114.54 591,-72 701.08,-17.1 1568.57,-17.33 1818.08,-18.56"/>
<polygon fill="black" stroke="black" points="1818.08,-22.06 1828.1,-18.61 1818.12,-15.06 1818.08,-22.06"/>
</g>
<!-- MACS2&#45;&gt;MACS2_ANNOTATE -->
<g id="edge125" class="edge">
<title>MACS2&#45;&gt;MACS2_ANNOTATE</title>
<path fill="none" stroke="black" d="M2280.83,-295.99C2328.26,-284.7 2410.42,-265.14 2468.9,-251.21"/>
<polygon fill="black" stroke="black" points="2469.88,-254.58 2478.8,-248.86 2468.26,-247.77 2469.88,-254.58"/>
</g>
<!-- MACS2&#45;&gt;MACS2_QC -->
<g id="edge126" class="edge">
<title>MACS2&#45;&gt;MACS2_QC</title>
<path fill="none" stroke="black" d="M2264.16,-289.63C2292.14,-269.97 2343.56,-236.07 2392,-216 2439.6,-196.28 2496.4,-182.48 2538.92,-173.92"/>
<polygon fill="black" stroke="black" points="2539.72,-177.33 2548.86,-171.97 2538.37,-170.46 2539.72,-177.33"/>
</g>
<!-- MACS2&#45;&gt;CONSENSUS_PEAKS -->
<g id="edge127" class="edge">
<title>MACS2&#45;&gt;CONSENSUS_PEAKS</title>
<path fill="none" stroke="black" d="M2209.77,-293.6C2178.47,-282.86 2131,-266.57 2094.05,-253.89"/>
<polygon fill="black" stroke="black" points="2095.01,-250.52 2084.41,-250.58 2092.73,-257.14 2095.01,-250.52"/>
</g>
<!-- MACS2&#45;&gt;CONSENSUS_PEAKS_ANNOTATE -->
<g id="edge128" class="edge">
<title>MACS2&#45;&gt;CONSENSUS_PEAKS_ANNOTATE</title>
<path fill="none" stroke="black" d="M2238.44,-287.91C2231.9,-267.09 2217.72,-232.63 2192,-216 2133.57,-178.22 1963.15,-166.36 1828.84,-163.11"/>
<polygon fill="black" stroke="black" points="1828.9,-159.61 1818.83,-162.88 1828.75,-166.61 1828.9,-159.61"/>
</g>
<!-- MACS2&#45;&gt;CONSENSUS_PEAKS_COUNTS -->
<g id="edge129" class="edge">
<title>MACS2&#45;&gt;CONSENSUS_PEAKS_COUNTS</title>
<path fill="none" stroke="black" d="M2227.27,-288.86C2217.14,-278.41 2203.71,-264.47 2192,-252 2177.14,-236.18 2178.63,-225.26 2159,-216 2089.86,-183.4 1548.26,-185.17 1472,-180 1448.16,-178.38 1422.77,-176.44 1398.29,-174.46"/>
<polygon fill="black" stroke="black" points="1398.48,-170.96 1388.23,-173.64 1397.91,-177.94 1398.48,-170.96"/>
</g>
<!-- MACS2&#45;&gt;CONSENSUS_PEAKS_DESEQ2 -->
<g id="edge130" class="edge">
<title>MACS2&#45;&gt;CONSENSUS_PEAKS_DESEQ2</title>
<path fill="none" stroke="black" d="M2243.93,-287.74C2244.02,-267.71 2240.94,-235.01 2222,-216 2165.92,-159.71 1952.64,-122.88 1816.96,-104.6"/>
<polygon fill="black" stroke="black" points="1817.3,-101.12 1806.93,-103.27 1816.38,-108.06 1817.3,-101.12"/>
</g>
<!-- MACS2&#45;&gt;MULTIQC -->
<g id="edge131" class="edge">
<title>MACS2&#45;&gt;MULTIQC</title>
<path fill="none" stroke="black" d="M2248.68,-287.93C2253.9,-268.97 2259.03,-238.11 2246,-216 2179.99,-103.99 2025.23,-51.65 1941.38,-30.77"/>
<polygon fill="black" stroke="black" points="1942.06,-27.33 1931.52,-28.38 1940.41,-34.14 1942.06,-27.33"/>
</g>
<!-- MACS2_ANNOTATE&#45;&gt;MACS2_QC -->
<g id="edge132" class="edge">
<title>MACS2_ANNOTATE&#45;&gt;MACS2_QC</title>
<path fill="none" stroke="black" d="M2552.73,-216.05C2560.72,-207.46 2570.56,-196.86 2579.35,-187.4"/>
<polygon fill="black" stroke="black" points="2582.17,-189.5 2586.41,-179.79 2577.04,-184.74 2582.17,-189.5"/>
</g>
<!-- MACS2_ANNOTATE&#45;&gt;MULTIQC -->
<g id="edge133" class="edge">
<title>MACS2_ANNOTATE&#45;&gt;MULTIQC</title>
<path fill="none" stroke="black" d="M2522.89,-215.91C2493.61,-181.79 2422.4,-105.62 2344,-72 2274.81,-42.33 2060.34,-27.68 1950.82,-21.97"/>
<polygon fill="black" stroke="black" points="1950.72,-18.46 1940.55,-21.44 1950.36,-25.45 1950.72,-18.46"/>
</g>
<!-- MACS2_QC&#45;&gt;MULTIQC -->
<g id="edge134" class="edge">
<title>MACS2_QC&#45;&gt;MULTIQC</title>
<path fill="none" stroke="black" d="M2576.49,-145.34C2541.48,-124.69 2475.95,-89 2415,-72 2253.1,-26.85 2053.93,-19.1 1952.02,-18.4"/>
<polygon fill="black" stroke="black" points="1951.89,-14.9 1941.87,-18.35 1951.86,-21.9 1951.89,-14.9"/>
</g>
<!-- CONSENSUS_PEAKS&#45;&gt;CONSENSUS_PEAKS_ANNOTATE -->
<g id="edge135" class="edge">
<title>CONSENSUS_PEAKS&#45;&gt;CONSENSUS_PEAKS_ANNOTATE</title>
<path fill="none" stroke="black" d="M1967.65,-220.16C1904.2,-208.74 1811.05,-191.98 1742.01,-179.56"/>
<polygon fill="black" stroke="black" points="1742.47,-176.08 1732.01,-177.76 1741.23,-182.97 1742.47,-176.08"/>
</g>
<!-- CONSENSUS_PEAKS&#45;&gt;CONSENSUS_PEAKS_COUNTS -->
<g id="edge136" class="edge">
<title>CONSENSUS_PEAKS&#45;&gt;CONSENSUS_PEAKS_COUNTS</title>
<path fill="none" stroke="black" d="M1944.46,-224.42C1807.04,-211.94 1551.69,-188.76 1397.07,-174.72"/>
<polygon fill="black" stroke="black" points="1397.3,-171.23 1387.03,-173.81 1396.67,-178.2 1397.3,-171.23"/>
</g>
<!-- CONSENSUS_PEAKS&#45;&gt;CONSENSUS_PEAKS_DESEQ2 -->
<g id="edge137" class="edge">
<title>CONSENSUS_PEAKS&#45;&gt;CONSENSUS_PEAKS_DESEQ2</title>
<path fill="none" stroke="black" d="M2009.38,-216.54C1974.54,-197.57 1914.65,-166.16 1861,-144 1830.02,-131.2 1794.73,-119.24 1765.19,-109.94"/>
<polygon fill="black" stroke="black" points="1765.99,-106.52 1755.4,-106.89 1763.91,-113.21 1765.99,-106.52"/>
</g>
<!-- CONSENSUS_PEAKS&#45;&gt;MULTIQC -->
<g id="edge138" class="edge">
<title>CONSENSUS_PEAKS&#45;&gt;MULTIQC</title>
<path fill="none" stroke="black" d="M2026.66,-215.85C1999.49,-178.1 1934.43,-87.69 1902.83,-43.77"/>
<polygon fill="black" stroke="black" points="1905.66,-41.71 1896.97,-35.64 1899.98,-45.8 1905.66,-41.71"/>
</g>
<!-- CONSENSUS_PEAKS_COUNTS&#45;&gt;CONSENSUS_PEAKS_DESEQ2 -->
<g id="edge139" class="edge">
<title>CONSENSUS_PEAKS_COUNTS&#45;&gt;CONSENSUS_PEAKS_DESEQ2</title>
<path fill="none" stroke="black" d="M1354.84,-146.96C1427.02,-135.29 1529.65,-118.7 1604.41,-106.62"/>
<polygon fill="black" stroke="black" points="1604.99,-110.07 1614.3,-105.02 1603.87,-103.16 1604.99,-110.07"/>
</g>
<!-- CONSENSUS_PEAKS_COUNTS&#45;&gt;MULTIQC -->
<g id="edge140" class="edge">
<title>CONSENSUS_PEAKS_COUNTS&#45;&gt;MULTIQC</title>
<path fill="none" stroke="black" d="M1310.06,-144.55C1362.29,-124.71 1454.48,-91.58 1536,-72 1634.54,-48.34 1751.4,-33.13 1821.8,-25.33"/>
<polygon fill="black" stroke="black" points="1822.28,-28.8 1831.84,-24.23 1821.52,-21.84 1822.28,-28.8"/>
</g>
<!-- CONSENSUS_PEAKS_DESEQ2&#45;&gt;MULTIQC -->
<g id="edge141" class="edge">
<title>CONSENSUS_PEAKS_DESEQ2&#45;&gt;MULTIQC</title>
<path fill="none" stroke="black" d="M1744.14,-72.59C1773.15,-61.55 1811.29,-47.04 1840.57,-35.9"/>
<polygon fill="black" stroke="black" points="1842.03,-39.09 1850.13,-32.26 1839.54,-32.55 1842.03,-39.09"/>
</g>
<!-- FASTQC -->
<g id="node21" class="node">
<title>FASTQC</title>
<ellipse fill="none" stroke="black" cx="3261" cy="-90" rx="48.99" ry="18"/>
<text text-anchor="middle" x="3261" y="-86.3" font-family="Times,serif" font-size="14.00">FASTQC</text>
</g>
<!-- FASTQC&#45;&gt;MULTIQC -->
<g id="edge20" class="edge">
<title>FASTQC&#45;&gt;MULTIQC</title>
<path fill="none" stroke="black" d="M3224.98,-77.8C3216.23,-75.49 3206.85,-73.35 3198,-72 2953.97,-34.63 2184.14,-22.57 1951.94,-19.73"/>
<polygon fill="black" stroke="black" points="1951.66,-16.23 1941.62,-19.6 1951.58,-23.23 1951.66,-16.23"/>
</g>
<!-- BWA_INDEX -->
<g id="node22" class="node">
<title>BWA_INDEX</title>
<ellipse fill="none" stroke="black" cx="2731" cy="-738" rx="68.79" ry="18"/>
<text text-anchor="middle" x="2731" y="-734.3" font-family="Times,serif" font-size="14.00">BWA_INDEX</text>
</g>
<!-- BWA_INDEX&#45;&gt;PLOTPROFILE -->
<g id="edge21" class="edge">
<title>BWA_INDEX&#45;&gt;PLOTPROFILE</title>
<path fill="none" stroke="black" d="M2662.35,-735.83C2310.29,-729.78 719.94,-701.57 617,-684 490.37,-662.39 342,-723.46 342,-595 342,-595 342,-595 342,-449 342,-377.44 294.59,-343.31 340,-288 362.72,-260.32 452.11,-246.84 521.27,-240.45"/>
<polygon fill="black" stroke="black" points="521.67,-243.93 531.32,-239.55 521.05,-236.95 521.67,-243.93"/>
</g>
<!-- BWA_INDEX&#45;&gt;BWA_MEM -->
<g id="edge22" class="edge">
<title>BWA_INDEX&#45;&gt;BWA_MEM</title>
<path fill="none" stroke="black" d="M2664.57,-733.04C2459.65,-720.81 1838.51,-683.74 1628.36,-671.2"/>
<polygon fill="black" stroke="black" points="1628.56,-667.7 1618.37,-670.6 1628.14,-674.69 1628.56,-667.7"/>
</g>
<!-- BWA_INDEX&#45;&gt;SORT_BAM -->
<g id="edge23" class="edge">
<title>BWA_INDEX&#45;&gt;SORT_BAM</title>
<path fill="none" stroke="black" d="M2670,-729.62C2469.98,-705.4 1834.92,-628.52 1625.62,-603.19"/>
<polygon fill="black" stroke="black" points="1625.74,-599.68 1615.39,-601.95 1624.9,-606.62 1625.74,-599.68"/>
</g>
<!-- BWA_INDEX&#45;&gt;MERGED_BAM -->
<g id="edge24" class="edge">
<title>BWA_INDEX&#45;&gt;MERGED_BAM</title>
<path fill="none" stroke="black" d="M2729.27,-719.8C2726.74,-701 2720.75,-670.54 2707,-648 2682.27,-607.44 2671.35,-595.43 2628,-576 2555.24,-543.39 2334.56,-530.47 2208.62,-525.65"/>
<polygon fill="black" stroke="black" points="2208.72,-522.15 2198.6,-525.27 2208.46,-529.14 2208.72,-522.15"/>
</g>
<!-- BWA_INDEX&#45;&gt;MERGED_BAM_FILTER -->
<g id="edge25" class="edge">
<title>BWA_INDEX&#45;&gt;MERGED_BAM_FILTER</title>
<path fill="none" stroke="black" d="M2662.27,-736.06C2417.87,-732.46 1599.46,-717.97 1487,-684 1427.82,-666.13 1402,-663.63 1368,-612 1341.39,-571.59 1350.31,-512.22 1358.87,-478.01"/>
<polygon fill="black" stroke="black" points="1362.28,-478.81 1361.48,-468.24 1355.52,-477 1362.28,-478.81"/>
</g>
<!-- BWA_INDEX&#45;&gt;PRESEQ -->
<g id="edge26" class="edge">
<title>BWA_INDEX&#45;&gt;PRESEQ</title>
<path fill="none" stroke="black" d="M2778.35,-724.93C2824.82,-712.6 2889.75,-693.92 2897,-684 2946.1,-616.78 2870.95,-519.35 2830.29,-474.82"/>
<polygon fill="black" stroke="black" points="2832.75,-472.32 2823.37,-467.39 2827.62,-477.09 2832.75,-472.32"/>
</g>
<!-- BWA_INDEX&#45;&gt;MERGED_BAM_REMOVE_ORPHAN -->
<g id="edge27" class="edge">
<title>BWA_INDEX&#45;&gt;MERGED_BAM_REMOVE_ORPHAN</title>
<path fill="none" stroke="black" d="M2733.62,-719.96C2735.72,-701.55 2737.03,-671.69 2728,-648 2713.16,-609.08 2703.52,-597.76 2668,-576 2452.5,-443.95 2157.99,-400.23 1973.69,-385.87"/>
<polygon fill="black" stroke="black" points="1973.87,-382.37 1963.64,-385.1 1973.34,-389.35 1973.87,-382.37"/>
</g>
<!-- BWA_INDEX&#45;&gt;PICARD_METRICS -->
<g id="edge28" class="edge">
<title>BWA_INDEX&#45;&gt;PICARD_METRICS</title>
<path fill="none" stroke="black" d="M2781.98,-725.89C2852.91,-710.41 2972.81,-684.23 2973,-684 3043.82,-597.23 3006.34,-539.82 2976,-432 2964.01,-389.39 2927.33,-352.56 2900.24,-330.13"/>
<polygon fill="black" stroke="black" points="2902.16,-327.18 2892.18,-323.64 2897.77,-332.64 2902.16,-327.18"/>
</g>
<!-- BWA_INDEX&#45;&gt;PHANTOMPEAKQUALTOOLS -->
<g id="edge29" class="edge">
<title>BWA_INDEX&#45;&gt;PHANTOMPEAKQUALTOOLS</title>
<path fill="none" stroke="black" d="M2661.85,-736.94C2424.23,-736.31 1642.28,-730.65 1396,-684 1229.52,-652.46 1173.86,-647.63 1043,-540 986.95,-493.9 977.12,-467.72 966,-396 962.82,-375.51 962.7,-352.06 963.3,-334.37"/>
<polygon fill="black" stroke="black" points="966.81,-334.33 963.75,-324.18 959.82,-334.02 966.81,-334.33"/>
</g>
<!-- BWA_INDEX&#45;&gt;BIGWIG -->
<g id="edge30" class="edge">
<title>BWA_INDEX&#45;&gt;BIGWIG</title>
<path fill="none" stroke="black" d="M2662.25,-736.28C2319.84,-732.23 807.78,-708.94 624,-612 586.39,-592.16 575.96,-579.8 561,-540 555.37,-525.02 559.57,-519.94 561,-504 566.8,-439.22 557.41,-417.91 587,-360 592.81,-348.63 601.86,-338.05 610.74,-329.39"/>
<polygon fill="black" stroke="black" points="613.13,-331.95 618.08,-322.58 608.37,-326.82 613.13,-331.95"/>
</g>
<!-- BWA_INDEX&#45;&gt;PLOTFINGERPRINT -->
<g id="edge31" class="edge">
<title>BWA_INDEX&#45;&gt;PLOTFINGERPRINT</title>
<path fill="none" stroke="black" d="M2662.55,-735.79C2326.28,-729.76 861.78,-702.51 767,-684 677.55,-666.53 638.85,-677.03 575,-612 496.83,-532.38 474.95,-392.69 469.06,-334.09"/>
<polygon fill="black" stroke="black" points="472.55,-333.75 468.14,-324.12 465.58,-334.4 472.55,-333.75"/>
</g>
<!-- BWA_INDEX&#45;&gt;MACS2 -->
<g id="edge32" class="edge">
<title>BWA_INDEX&#45;&gt;MACS2</title>
<path fill="none" stroke="black" d="M2781.88,-725.86C2834.29,-713.87 2909.53,-695.05 2918,-684 2948.54,-644.18 2910.67,-443.48 2900,-432 2818.44,-344.27 2441.54,-316.76 2298.38,-309.38"/>
<polygon fill="black" stroke="black" points="2298.24,-305.87 2288.08,-308.87 2297.89,-312.86 2298.24,-305.87"/>
</g>
<!-- BWA_INDEX&#45;&gt;MACS2_ANNOTATE -->
<g id="edge33" class="edge">
<title>BWA_INDEX&#45;&gt;MACS2_ANNOTATE</title>
<path fill="none" stroke="black" d="M2780.81,-725.47C2790.15,-723.5 2799.85,-721.58 2809,-720 2871.04,-709.29 3048.41,-731.26 3090,-684 3206.29,-551.86 3205,-415.84 3084,-288 3054.67,-257.01 2799.23,-243.45 2648,-238.09"/>
<polygon fill="black" stroke="black" points="2647.87,-234.59 2637.75,-237.74 2647.62,-241.58 2647.87,-234.59"/>
</g>
<!-- BWA_INDEX&#45;&gt;MACS2_QC -->
<g id="edge34" class="edge">
<title>BWA_INDEX&#45;&gt;MACS2_QC</title>
<path fill="none" stroke="black" d="M2780.79,-725.38C2790.13,-723.42 2799.84,-721.53 2809,-720 2944.94,-697.3 2986.91,-729.51 3117,-684 3187.66,-659.28 3260,-669.86 3260,-595 3260,-595 3260,-595 3260,-377 3260,-257.98 3160.37,-248.96 3046,-216 2919.05,-179.41 2764.66,-168.05 2675.42,-164.54"/>
<polygon fill="black" stroke="black" points="2675.52,-161.04 2665.4,-164.17 2675.26,-168.04 2675.52,-161.04"/>
</g>
<!-- BWA_INDEX&#45;&gt;CONSENSUS_PEAKS -->
<g id="edge35" class="edge">
<title>BWA_INDEX&#45;&gt;CONSENSUS_PEAKS</title>
<path fill="none" stroke="black" d="M2781.73,-725.74C2790.8,-723.79 2800.17,-721.8 2809,-720 2937.38,-693.79 3076,-726.03 3076,-595 3076,-595 3076,-595 3076,-521 3076,-408.13 3067.56,-352.58 2975,-288 2958.4,-276.42 2402.06,-250.82 2155.11,-239.99"/>
<polygon fill="black" stroke="black" points="2155.16,-236.49 2145.02,-239.55 2154.86,-243.48 2155.16,-236.49"/>
</g>
<!-- BWA_INDEX&#45;&gt;CONSENSUS_PEAKS_ANNOTATE -->
<g id="edge36" class="edge">
<title>BWA_INDEX&#45;&gt;CONSENSUS_PEAKS_ANNOTATE</title>
<path fill="none" stroke="black" d="M2672.25,-728.48C2460.57,-696.46 1742.67,-575.87 1615,-396 1591.76,-363.25 1624.76,-243.68 1641.4,-189.73"/>
<polygon fill="black" stroke="black" points="1644.75,-190.74 1644.39,-180.15 1638.07,-188.65 1644.75,-190.74"/>
</g>
<!-- BWA_INDEX&#45;&gt;CONSENSUS_PEAKS_COUNTS -->
<g id="edge37" class="edge">
<title>BWA_INDEX&#45;&gt;CONSENSUS_PEAKS_COUNTS</title>
<path fill="none" stroke="black" d="M2662.42,-735.9C2304.55,-730.11 665.9,-702.59 617,-684 431.57,-613.52 359.55,-575.92 276,-396 219.39,-274.1 387.48,-243.66 519,-216 628.14,-193.05 925.98,-177.1 1111.52,-169.05"/>
<polygon fill="black" stroke="black" points="1111.8,-172.54 1121.64,-168.61 1111.5,-165.54 1111.8,-172.54"/>
</g>
<!-- BWA_INDEX&#45;&gt;CONSENSUS_PEAKS_DESEQ2 -->
<g id="edge38" class="edge">
<title>BWA_INDEX&#45;&gt;CONSENSUS_PEAKS_DESEQ2</title>
<path fill="none" stroke="black" d="M2780.35,-725.31C2789.82,-723.33 2799.69,-721.45 2809,-720 2977.06,-693.84 3032.8,-748.94 3190,-684 3247.49,-660.25 3298,-657.2 3298,-595 3298,-595 3298,-595 3298,-377 3298,-270.33 3221.03,-250.24 3120,-216 2890.54,-138.24 2181.08,-106.29 1860.8,-95.57"/>
<polygon fill="black" stroke="black" points="1860.61,-92.06 1850.5,-95.23 1860.38,-99.06 1860.61,-92.06"/>
</g>
<!-- BWA_INDEX&#45;&gt;MULTIQC -->
<g id="edge39" class="edge">
<title>BWA_INDEX&#45;&gt;MULTIQC</title>
<path fill="none" stroke="black" d="M2779.92,-725.3C2789.52,-723.3 2799.54,-721.41 2809,-720 2905.15,-705.62 3156.35,-723.9 3245,-684 3297.17,-660.52 3338,-652.21 3338,-595 3338,-595 3338,-595 3338,-161 3338,-120.55 3349.97,-98.02 3319,-72 3266.09,-27.55 2227.52,-20.34 1951.75,-19.2"/>
<polygon fill="black" stroke="black" points="1951.51,-15.7 1941.49,-19.16 1951.48,-22.7 1951.51,-15.7"/>
</g>
<!-- get_software_versions -->
<g id="node23" class="node">
<title>get_software_versions</title>
<ellipse fill="none" stroke="black" cx="3480" cy="-90" rx="114.28" ry="18"/>
<text text-anchor="middle" x="3480" y="-86.3" font-family="Times,serif" font-size="14.00">get_software_versions</text>
</g>
<!-- get_software_versions&#45;&gt;MULTIQC -->
<g id="edge142" class="edge">
<title>get_software_versions&#45;&gt;MULTIQC</title>
<path fill="none" stroke="black" d="M3399.56,-77.12C3383.82,-75.13 3367.41,-73.3 3352,-72 2813.19,-26.59 2159.84,-20.05 1951.9,-19.14"/>
<polygon fill="black" stroke="black" points="1951.77,-15.64 1941.76,-19.09 1951.74,-22.64 1951.77,-15.64"/>
</g>
<!-- output_documentation -->
<g id="node24" class="node">
<title>output_documentation</title>
<ellipse fill="none" stroke="black" cx="2933" cy="-738" rx="115.08" ry="18"/>
<text text-anchor="middle" x="2933" y="-734.3" font-family="Times,serif" font-size="14.00">output_documentation</text>
</g>
</g>
</svg>
