<?xml version="1.0" encoding="UTF-8" standalone="no"?>
<!DOCTYPE svg PUBLIC "-//W3C//DTD SVG 1.1//EN"
 "http://www.w3.org/Graphics/SVG/1.1/DTD/svg11.dtd">
<!-- Generated by graphviz version 2.43.0 (0)
 -->
<!-- Pages: 1 -->
<svg width="1071pt" height="188pt"
 viewBox="0.00 0.00 1070.53 188.00" xmlns="http://www.w3.org/2000/svg" xmlns:xlink="http://www.w3.org/1999/xlink">
<g id="graph0" class="graph" transform="scale(1 1) rotate(0) translate(4 184)">
<polygon fill="white" stroke="transparent" points="-4,4 -4,-184 1066.53,-184 1066.53,4 -4,4"/>
<!-- makeSeqDict -->
<g id="node1" class="node">
<title>makeSeqDict</title>
<ellipse fill="none" stroke="black" cx="72.14" cy="-90" rx="72.29" ry="18"/>
<text text-anchor="middle" x="72.14" y="-86.3" font-family="Times,serif" font-size="14.00">makeSeqDict</text>
</g>
<!-- multiqc -->
<g id="node2" class="node">
<title>multiqc</title>
<ellipse fill="none" stroke="black" cx="500.14" cy="-18" rx="46.29" ry="18"/>
<text text-anchor="middle" x="500.14" y="-14.3" font-family="Times,serif" font-size="14.00">multiqc</text>
</g>
<!-- makeSeqDict&#45;&gt;multiqc -->
<g id="edge1" class="edge">
<title>makeSeqDict&#45;&gt;multiqc</title>
<path fill="none" stroke="black" d="M124.78,-77.51C134.21,-75.58 143.95,-73.66 153.14,-72 256.95,-53.19 379.04,-35.59 447.22,-26.16"/>
<polygon fill="black" stroke="black" points="447.85,-29.6 457.28,-24.77 446.9,-22.67 447.85,-29.6"/>
</g>
<!-- fastqc -->
<g id="node3" class="node">
<title>fastqc</title>
<ellipse fill="none" stroke="black" cx="201.14" cy="-90" rx="38.99" ry="18"/>
<text text-anchor="middle" x="201.14" y="-86.3" font-family="Times,serif" font-size="14.00">fastqc</text>
</g>
<!-- fastqc&#45;&gt;multiqc -->
<g id="edge2" class="edge">
<title>fastqc&#45;&gt;multiqc</title>
<path fill="none" stroke="black" d="M230.39,-77.95C236.54,-75.82 243.02,-73.72 249.14,-72 317.13,-52.87 397.2,-37.11 448.29,-27.88"/>
<polygon fill="black" stroke="black" points="449.2,-31.27 458.43,-26.06 447.97,-24.38 449.2,-31.27"/>
</g>
<!-- fastqc_after_clipping -->
<g id="node4" class="node">
<title>fastqc_after_clipping</title>
<ellipse fill="none" stroke="black" cx="365.14" cy="-90" rx="107.48" ry="18"/>
<text text-anchor="middle" x="365.14" y="-86.3" font-family="Times,serif" font-size="14.00">fastqc_after_clipping</text>
</g>
<!-- fastqc_after_clipping&#45;&gt;multiqc -->
<g id="edge3" class="edge">
<title>fastqc_after_clipping&#45;&gt;multiqc</title>
<path fill="none" stroke="black" d="M396.45,-72.76C416.81,-62.21 443.4,-48.42 464.55,-37.45"/>
<polygon fill="black" stroke="black" points="466.29,-40.5 473.55,-32.79 463.06,-34.28 466.29,-40.5"/>
</g>
<!-- markduplicates -->
<g id="node5" class="node">
<title>markduplicates</title>
<ellipse fill="none" stroke="black" cx="609.14" cy="-162" rx="82.59" ry="18"/>
<text text-anchor="middle" x="609.14" y="-158.3" font-family="Times,serif" font-size="14.00">markduplicates</text>
</g>
<!-- markduplicates&#45;&gt;multiqc -->
<g id="edge6" class="edge">
<title>markduplicates&#45;&gt;multiqc</title>
<path fill="none" stroke="black" d="M568.87,-146.1C551.07,-137.55 531.44,-125.06 519.14,-108 506.19,-90.02 501.73,-65.03 500.34,-46.1"/>
<polygon fill="black" stroke="black" points="503.83,-45.85 499.84,-36.03 496.84,-46.19 503.83,-45.85"/>
</g>
<!-- damageprofiler -->
<g id="node6" class="node">
<title>damageprofiler</title>
<ellipse fill="none" stroke="black" cx="609.14" cy="-90" rx="81.49" ry="18"/>
<text text-anchor="middle" x="609.14" y="-86.3" font-family="Times,serif" font-size="14.00">damageprofiler</text>
</g>
<!-- markduplicates&#45;&gt;damageprofiler -->
<g id="edge4" class="edge">
<title>markduplicates&#45;&gt;damageprofiler</title>
<path fill="none" stroke="black" d="M609.14,-143.7C609.14,-135.98 609.14,-126.71 609.14,-118.11"/>
<polygon fill="black" stroke="black" points="612.64,-118.1 609.14,-108.1 605.64,-118.1 612.64,-118.1"/>
</g>
<!-- qualimap -->
<g id="node7" class="node">
<title>qualimap</title>
<ellipse fill="none" stroke="black" cx="762.14" cy="-90" rx="53.89" ry="18"/>
<text text-anchor="middle" x="762.14" y="-86.3" font-family="Times,serif" font-size="14.00">qualimap</text>
</g>
<!-- markduplicates&#45;&gt;qualimap -->
<g id="edge5" class="edge">
<title>markduplicates&#45;&gt;qualimap</title>
<path fill="none" stroke="black" d="M643.1,-145.46C666.49,-134.76 697.67,-120.5 722.25,-109.25"/>
<polygon fill="black" stroke="black" points="724.02,-112.29 731.66,-104.95 721.11,-105.93 724.02,-112.29"/>
</g>
<!-- damageprofiler&#45;&gt;multiqc -->
<g id="edge7" class="edge">
<title>damageprofiler&#45;&gt;multiqc</title>
<path fill="none" stroke="black" d="M583.86,-72.76C568.37,-62.81 548.4,-49.99 531.85,-39.36"/>
<polygon fill="black" stroke="black" points="533.37,-36.18 523.06,-33.72 529.58,-42.07 533.37,-36.18"/>
</g>
<!-- qualimap&#45;&gt;multiqc -->
<g id="edge8" class="edge">
<title>qualimap&#45;&gt;multiqc</title>
<path fill="none" stroke="black" d="M721.48,-78.01C714.05,-76 706.37,-73.94 699.14,-72 647.09,-58.05 587.35,-42.15 547.02,-31.44"/>
<polygon fill="black" stroke="black" points="547.76,-28.01 537.2,-28.83 545.96,-34.78 547.76,-28.01"/>
</g>
<!-- output_documentation -->
<g id="node8" class="node">
<title>output_documentation</title>
<ellipse fill="none" stroke="black" cx="825.14" cy="-162" rx="115.08" ry="18"/>
<text text-anchor="middle" x="825.14" y="-158.3" font-family="Times,serif" font-size="14.00">output_documentation</text>
</g>
<!-- get_software_versions -->
<g id="node9" class="node">
<title>get_software_versions</title>
<ellipse fill="none" stroke="black" cx="948.14" cy="-90" rx="114.28" ry="18"/>
<text text-anchor="middle" x="948.14" y="-86.3" font-family="Times,serif" font-size="14.00">get_software_versions</text>
</g>
<!-- get_software_versions&#45;&gt;multiqc -->
<g id="edge9" class="edge">
<title>get_software_versions&#45;&gt;multiqc</title>
<path fill="none" stroke="black" d="M870.11,-76.81C778.94,-62.56 630.63,-39.39 552.35,-27.16"/>
<polygon fill="black" stroke="black" points="552.66,-23.66 542.24,-25.58 551.58,-30.58 552.66,-23.66"/>
</g>
</g>
</svg>
