<?xml version="1.0" encoding="UTF-8" standalone="no"?>
<!DOCTYPE svg PUBLIC "-//W3C//DTD SVG 1.1//EN"
 "http://www.w3.org/Graphics/SVG/1.1/DTD/svg11.dtd">
<!-- Generated by graphviz version 2.43.0 (0)
 -->
<!-- Pages: 1 -->
<svg width="1654pt" height="332pt"
 viewBox="0.00 0.00 1654.03 332.00" xmlns="http://www.w3.org/2000/svg" xmlns:xlink="http://www.w3.org/1999/xlink">
<g id="graph0" class="graph" transform="scale(1 1) rotate(0) translate(4 328)">
<polygon fill="white" stroke="transparent" points="-4,4 -4,-328 1650.03,-328 1650.03,4 -4,4"/>
<!-- makeBWAIndex -->
<g id="node1" class="node">
<title>makeBWAIndex</title>
<ellipse fill="none" stroke="black" cx="369.64" cy="-306" rx="83.39" ry="18"/>
<text text-anchor="middle" x="369.64" y="-302.3" font-family="Times,serif" font-size="14.00">makeBWAIndex</text>
</g>
<!-- bwa -->
<g id="node2" class="node">
<title>bwa</title>
<ellipse fill="none" stroke="black" cx="407.64" cy="-234" rx="29.8" ry="18"/>
<text text-anchor="middle" x="407.64" y="-230.3" font-family="Times,serif" font-size="14.00">bwa</text>
</g>
<!-- makeBWAIndex&#45;&gt;bwa -->
<g id="edge1" class="edge">
<title>makeBWAIndex&#45;&gt;bwa</title>
<path fill="none" stroke="black" d="M378.84,-288.05C383.39,-279.68 388.97,-269.4 394,-260.13"/>
<polygon fill="black" stroke="black" points="397.09,-261.77 398.79,-251.31 390.94,-258.43 397.09,-261.77"/>
</g>
<!-- samtools_flagstat -->
<g id="node3" class="node">
<title>samtools_flagstat</title>
<ellipse fill="none" stroke="black" cx="743.64" cy="-162" rx="91.78" ry="18"/>
<text text-anchor="middle" x="743.64" y="-158.3" font-family="Times,serif" font-size="14.00">samtools_flagstat</text>
</g>
<!-- makeBWAIndex&#45;&gt;samtools_flagstat -->
<g id="edge2" class="edge">
<title>makeBWAIndex&#45;&gt;samtools_flagstat</title>
<path fill="none" stroke="black" d="M413.34,-290.65C444.29,-280.32 486.7,-265.82 523.64,-252 584.22,-229.34 653.23,-201 697.55,-182.47"/>
<polygon fill="black" stroke="black" points="699.02,-185.65 706.9,-178.56 696.32,-179.2 699.02,-185.65"/>
</g>
<!-- markduplicates -->
<g id="node4" class="node">
<title>markduplicates</title>
<ellipse fill="none" stroke="black" cx="182.64" cy="-162" rx="82.59" ry="18"/>
<text text-anchor="middle" x="182.64" y="-158.3" font-family="Times,serif" font-size="14.00">markduplicates</text>
</g>
<!-- makeBWAIndex&#45;&gt;markduplicates -->
<g id="edge3" class="edge">
<title>makeBWAIndex&#45;&gt;markduplicates</title>
<path fill="none" stroke="black" d="M329.65,-290.1C308.03,-280.97 281.55,-267.96 260.64,-252 236.74,-233.76 214.68,-207.29 200.16,-187.96"/>
<polygon fill="black" stroke="black" points="202.97,-185.88 194.23,-179.9 197.33,-190.03 202.97,-185.88"/>
</g>
<!-- endorSpy -->
<g id="node5" class="node">
<title>endorSpy</title>
<ellipse fill="none" stroke="black" cx="660.64" cy="-90" rx="55.49" ry="18"/>
<text text-anchor="middle" x="660.64" y="-86.3" font-family="Times,serif" font-size="14.00">endorSpy</text>
</g>
<!-- makeBWAIndex&#45;&gt;endorSpy -->
<g id="edge4" class="edge">
<title>makeBWAIndex&#45;&gt;endorSpy</title>
<path fill="none" stroke="black" d="M405.37,-289.65C426.68,-279.92 453.91,-266.48 476.64,-252 487.44,-245.12 556.98,-188.41 566.64,-180 591.11,-158.69 617.88,-133.11 636.57,-114.85"/>
<polygon fill="black" stroke="black" points="639.37,-117.01 644.05,-107.51 634.46,-112.02 639.37,-117.01"/>
</g>
<!-- damageprofiler -->
<g id="node6" class="node">
<title>damageprofiler</title>
<ellipse fill="none" stroke="black" cx="140.64" cy="-90" rx="81.49" ry="18"/>
<text text-anchor="middle" x="140.64" y="-86.3" font-family="Times,serif" font-size="14.00">damageprofiler</text>
</g>
<!-- makeBWAIndex&#45;&gt;damageprofiler -->
<g id="edge5" class="edge">
<title>makeBWAIndex&#45;&gt;damageprofiler</title>
<path fill="none" stroke="black" d="M287.85,-302.66C205.48,-298.38 86.58,-286.26 57.64,-252 26.67,-215.33 34.58,-186.1 57.64,-144 65.39,-129.86 78.7,-118.94 92.42,-110.79"/>
<polygon fill="black" stroke="black" points="94.36,-113.72 101.44,-105.83 90.99,-107.58 94.36,-113.72"/>
</g>
<!-- preseq -->
<g id="node7" class="node">
<title>preseq</title>
<ellipse fill="none" stroke="black" cx="515.64" cy="-162" rx="42.49" ry="18"/>
<text text-anchor="middle" x="515.64" y="-158.3" font-family="Times,serif" font-size="14.00">preseq</text>
</g>
<!-- makeBWAIndex&#45;&gt;preseq -->
<g id="edge6" class="edge">
<title>makeBWAIndex&#45;&gt;preseq</title>
<path fill="none" stroke="black" d="M397.18,-288.97C412.59,-279.31 431.66,-266.16 446.64,-252 467.13,-232.64 486.42,-206.86 499.37,-188.03"/>
<polygon fill="black" stroke="black" points="502.33,-189.91 505.03,-179.66 496.53,-185.99 502.33,-189.91"/>
</g>
<!-- qualimap -->
<g id="node8" class="node">
<title>qualimap</title>
<ellipse fill="none" stroke="black" cx="331.64" cy="-90" rx="53.89" ry="18"/>
<text text-anchor="middle" x="331.64" y="-86.3" font-family="Times,serif" font-size="14.00">qualimap</text>
</g>
<!-- makeBWAIndex&#45;&gt;qualimap -->
<g id="edge7" class="edge">
<title>makeBWAIndex&#45;&gt;qualimap</title>
<path fill="none" stroke="black" d="M366.6,-287.85C360.01,-250.75 344.39,-162.81 336.45,-118.1"/>
<polygon fill="black" stroke="black" points="339.9,-117.47 334.7,-108.23 333,-118.69 339.9,-117.47"/>
</g>
<!-- multiqc -->
<g id="node9" class="node">
<title>multiqc</title>
<ellipse fill="none" stroke="black" cx="701.64" cy="-18" rx="46.29" ry="18"/>
<text text-anchor="middle" x="701.64" y="-14.3" font-family="Times,serif" font-size="14.00">multiqc</text>
</g>
<!-- makeBWAIndex&#45;&gt;multiqc -->
<g id="edge8" class="edge">
<title>makeBWAIndex&#45;&gt;multiqc</title>
<path fill="none" stroke="black" d="M286.71,-303.75C198.22,-300.45 66.43,-289.22 34.64,-252 -17.52,-190.93 -8.85,-125.96 50.64,-72 94.22,-32.48 494.92,-22.2 645.13,-19.73"/>
<polygon fill="black" stroke="black" points="645.56,-23.22 655.5,-19.57 645.45,-16.22 645.56,-23.22"/>
</g>
<!-- bwa&#45;&gt;samtools_flagstat -->
<g id="edge22" class="edge">
<title>bwa&#45;&gt;samtools_flagstat</title>
<path fill="none" stroke="black" d="M435.42,-227.21C487.08,-216.45 599.36,-193.06 673.18,-177.68"/>
<polygon fill="black" stroke="black" points="674.26,-181.03 683.34,-175.56 672.83,-174.18 674.26,-181.03"/>
</g>
<!-- bwa&#45;&gt;markduplicates -->
<g id="edge23" class="edge">
<title>bwa&#45;&gt;markduplicates</title>
<path fill="none" stroke="black" d="M381.39,-224.83C346.4,-213.95 283.59,-194.41 237.92,-180.2"/>
<polygon fill="black" stroke="black" points="238.75,-176.79 228.16,-177.16 236.67,-183.47 238.75,-176.79"/>
</g>
<!-- bwa&#45;&gt;endorSpy -->
<g id="edge24" class="edge">
<title>bwa&#45;&gt;endorSpy</title>
<path fill="none" stroke="black" d="M413.95,-216.22C422.41,-196.03 439.34,-162.55 464.64,-144 503.38,-115.6 556.41,-102.42 597.54,-96.3"/>
<polygon fill="black" stroke="black" points="598.03,-99.76 607.46,-94.92 597.07,-92.83 598.03,-99.76"/>
</g>
<!-- bwa&#45;&gt;damageprofiler -->
<g id="edge25" class="edge">
<title>bwa&#45;&gt;damageprofiler</title>
<path fill="none" stroke="black" d="M389.9,-219.33C365.1,-200.65 318.19,-166.85 274.64,-144 248.61,-130.34 218.25,-118.06 193.02,-108.76"/>
<polygon fill="black" stroke="black" points="194.21,-105.47 183.62,-105.35 191.82,-112.05 194.21,-105.47"/>
</g>
<!-- bwa&#45;&gt;preseq -->
<g id="edge26" class="edge">
<title>bwa&#45;&gt;preseq</title>
<path fill="none" stroke="black" d="M427.2,-220.32C443.26,-209.92 466.29,-194.99 484.82,-182.98"/>
<polygon fill="black" stroke="black" points="486.76,-185.89 493.24,-177.52 482.95,-180.02 486.76,-185.89"/>
</g>
<!-- bwa&#45;&gt;qualimap -->
<g id="edge27" class="edge">
<title>bwa&#45;&gt;qualimap</title>
<path fill="none" stroke="black" d="M398.92,-216.71C385.89,-192.36 361.2,-146.24 345.63,-117.14"/>
<polygon fill="black" stroke="black" points="348.53,-115.14 340.73,-107.98 342.36,-118.45 348.53,-115.14"/>
</g>
<!-- bwa&#45;&gt;multiqc -->
<g id="edge28" class="edge">
<title>bwa&#45;&gt;multiqc</title>
<path fill="none" stroke="black" d="M408.21,-215.91C409.66,-196.64 414.54,-165.24 430.64,-144 484.25,-73.31 587.37,-41.27 649.8,-27.79"/>
<polygon fill="black" stroke="black" points="650.75,-31.17 659.83,-25.71 649.33,-24.31 650.75,-31.17"/>
</g>
<!-- samtools_flagstat&#45;&gt;endorSpy -->
<g id="edge29" class="edge">
<title>samtools_flagstat&#45;&gt;endorSpy</title>
<path fill="none" stroke="black" d="M723.97,-144.41C713.07,-135.21 699.35,-123.64 687.47,-113.63"/>
<polygon fill="black" stroke="black" points="689.5,-110.76 679.6,-106.99 684.99,-116.11 689.5,-110.76"/>
</g>
<!-- samtools_flagstat&#45;&gt;multiqc -->
<g id="edge30" class="edge">
<title>samtools_flagstat&#45;&gt;multiqc</title>
<path fill="none" stroke="black" d="M740.99,-143.67C737.98,-125.54 732.45,-96.38 724.64,-72 721.78,-63.07 717.95,-53.6 714.23,-45.17"/>
<polygon fill="black" stroke="black" points="717.31,-43.5 709.98,-35.85 710.94,-46.41 717.31,-43.5"/>
</g>
<!-- markduplicates&#45;&gt;damageprofiler -->
<g id="edge31" class="edge">
<title>markduplicates&#45;&gt;damageprofiler</title>
<path fill="none" stroke="black" d="M172.47,-144.05C167.59,-135.92 161.64,-126 156.21,-116.94"/>
<polygon fill="black" stroke="black" points="159.15,-115.05 151.01,-108.28 153.15,-118.65 159.15,-115.05"/>
</g>
<!-- markduplicates&#45;&gt;qualimap -->
<g id="edge32" class="edge">
<title>markduplicates&#45;&gt;qualimap</title>
<path fill="none" stroke="black" d="M215.71,-145.46C238.42,-134.8 268.65,-120.59 292.55,-109.36"/>
<polygon fill="black" stroke="black" points="294.14,-112.49 301.7,-105.07 291.16,-106.15 294.14,-112.49"/>
</g>
<!-- markduplicates&#45;&gt;multiqc -->
<g id="edge33" class="edge">
<title>markduplicates&#45;&gt;multiqc</title>
<path fill="none" stroke="black" d="M197.85,-144.08C220.12,-119.5 259.89,-76.36 268.64,-72 333.61,-39.64 544.01,-26.03 645.66,-21.23"/>
<polygon fill="black" stroke="black" points="645.91,-24.72 655.74,-20.76 645.59,-17.73 645.91,-24.72"/>
</g>
<!-- endorSpy&#45;&gt;multiqc -->
<g id="edge34" class="edge">
<title>endorSpy&#45;&gt;multiqc</title>
<path fill="none" stroke="black" d="M670.57,-72.05C675.4,-63.8 681.32,-53.7 686.68,-44.54"/>
<polygon fill="black" stroke="black" points="689.77,-46.19 691.81,-35.79 683.73,-42.65 689.77,-46.19"/>
</g>
<!-- damageprofiler&#45;&gt;multiqc -->
<g id="edge35" class="edge">
<title>damageprofiler&#45;&gt;multiqc</title>
<path fill="none" stroke="black" d="M200.35,-77.72C212.03,-75.68 224.2,-73.67 235.64,-72 383.9,-50.33 559.8,-32.43 647,-24.07"/>
<polygon fill="black" stroke="black" points="647.56,-27.54 657.19,-23.1 646.9,-20.57 647.56,-27.54"/>
</g>
<!-- preseq&#45;&gt;multiqc -->
<g id="edge36" class="edge">
<title>preseq&#45;&gt;multiqc</title>
<path fill="none" stroke="black" d="M527.61,-144.55C542.24,-125.31 568.53,-93.37 596.64,-72 616.15,-57.17 640.44,-44.6 660.74,-35.43"/>
<polygon fill="black" stroke="black" points="662.31,-38.56 670.05,-31.33 659.49,-32.15 662.31,-38.56"/>
</g>
<!-- qualimap&#45;&gt;multiqc -->
<g id="edge37" class="edge">
<title>qualimap&#45;&gt;multiqc</title>
<path fill="none" stroke="black" d="M372.89,-78.19C381.69,-76.02 390.95,-73.85 399.64,-72 486.76,-53.49 589.01,-36.53 649.39,-27.01"/>
<polygon fill="black" stroke="black" points="650.11,-30.44 659.44,-25.43 649.02,-23.53 650.11,-30.44"/>
</g>
<!-- makeFastaIndex -->
<g id="node10" class="node">
<title>makeFastaIndex</title>
<ellipse fill="none" stroke="black" cx="1054.64" cy="-90" rx="87.18" ry="18"/>
<text text-anchor="middle" x="1054.64" y="-86.3" font-family="Times,serif" font-size="14.00">makeFastaIndex</text>
</g>
<!-- makeFastaIndex&#45;&gt;multiqc -->
<g id="edge9" class="edge">
<title>makeFastaIndex&#45;&gt;multiqc</title>
<path fill="none" stroke="black" d="M993.96,-76.97C925.47,-63.39 815.34,-41.55 751.61,-28.91"/>
<polygon fill="black" stroke="black" points="752.28,-25.47 741.79,-26.96 750.92,-32.34 752.28,-25.47"/>
</g>
<!-- makeSeqDict -->
<g id="node11" class="node">
<title>makeSeqDict</title>
<ellipse fill="none" stroke="black" cx="1231.64" cy="-90" rx="72.29" ry="18"/>
<text text-anchor="middle" x="1231.64" y="-86.3" font-family="Times,serif" font-size="14.00">makeSeqDict</text>
</g>
<!-- makeSeqDict&#45;&gt;multiqc -->
<g id="edge10" class="edge">
<title>makeSeqDict&#45;&gt;multiqc</title>
<path fill="none" stroke="black" d="M1179.92,-77.43C1170.22,-75.46 1160.14,-73.55 1150.64,-72 1009.17,-48.85 841.03,-31.76 756.28,-23.86"/>
<polygon fill="black" stroke="black" points="756.4,-20.36 746.12,-22.92 755.75,-27.33 756.4,-20.36"/>
</g>
<!-- fastqc -->
<g id="node12" class="node">
<title>fastqc</title>
<ellipse fill="none" stroke="black" cx="1360.64" cy="-90" rx="38.99" ry="18"/>
<text text-anchor="middle" x="1360.64" y="-86.3" font-family="Times,serif" font-size="14.00">fastqc</text>
</g>
<!-- fastqc&#45;&gt;multiqc -->
<g id="edge11" class="edge">
<title>fastqc&#45;&gt;multiqc</title>
<path fill="none" stroke="black" d="M1332.31,-77.63C1325.92,-75.45 1319.12,-73.4 1312.64,-72 1111.78,-28.46 866.46,-20.45 757.91,-19.14"/>
<polygon fill="black" stroke="black" points="757.88,-15.64 747.84,-19.03 757.8,-22.64 757.88,-15.64"/>
</g>
<!-- adapter_removal -->
<g id="node13" class="node">
<title>adapter_removal</title>
<ellipse fill="none" stroke="black" cx="623.64" cy="-306" rx="89.08" ry="18"/>
<text text-anchor="middle" x="623.64" y="-302.3" font-family="Times,serif" font-size="14.00">adapter_removal</text>
</g>
<!-- adapter_removal&#45;&gt;bwa -->
<g id="edge13" class="edge">
<title>adapter_removal&#45;&gt;bwa</title>
<path fill="none" stroke="black" d="M578.62,-290.41C538.39,-277.37 480.23,-258.52 443.19,-246.52"/>
<polygon fill="black" stroke="black" points="443.92,-243.08 433.33,-243.32 441.76,-249.74 443.92,-243.08"/>
</g>
<!-- adapter_removal&#45;&gt;samtools_flagstat -->
<g id="edge14" class="edge">
<title>adapter_removal&#45;&gt;samtools_flagstat</title>
<path fill="none" stroke="black" d="M637.88,-288.15C658.9,-263.28 698.37,-216.57 722.69,-187.79"/>
<polygon fill="black" stroke="black" points="725.64,-189.72 729.42,-179.82 720.3,-185.2 725.64,-189.72"/>
</g>
<!-- adapter_removal&#45;&gt;markduplicates -->
<g id="edge15" class="edge">
<title>adapter_removal&#45;&gt;markduplicates</title>
<path fill="none" stroke="black" d="M552.89,-295C501.03,-286.55 429.37,-272.5 368.64,-252 314.86,-233.84 256.35,-204.03 219.59,-183.97"/>
<polygon fill="black" stroke="black" points="221.18,-180.85 210.73,-179.1 217.81,-186.99 221.18,-180.85"/>
</g>
<!-- adapter_removal&#45;&gt;endorSpy -->
<g id="edge16" class="edge">
<title>adapter_removal&#45;&gt;endorSpy</title>
<path fill="none" stroke="black" d="M677.58,-291.46C730.69,-274.94 808.89,-241.3 844.64,-180 874.42,-128.94 787.53,-106.64 723.2,-97.3"/>
<polygon fill="black" stroke="black" points="723.47,-93.8 713.09,-95.91 722.52,-100.74 723.47,-93.8"/>
</g>
<!-- adapter_removal&#45;&gt;damageprofiler -->
<g id="edge17" class="edge">
<title>adapter_removal&#45;&gt;damageprofiler</title>
<path fill="none" stroke="black" d="M544.94,-297.48C475,-289.7 370.4,-275.34 281.64,-252 193.9,-228.93 142.25,-254.61 90.64,-180 75.96,-158.77 94.17,-132.88 112.6,-114.52"/>
<polygon fill="black" stroke="black" points="115.02,-117.04 119.87,-107.63 110.21,-111.96 115.02,-117.04"/>
</g>
<!-- adapter_removal&#45;&gt;preseq -->
<g id="edge18" class="edge">
<title>adapter_removal&#45;&gt;preseq</title>
<path fill="none" stroke="black" d="M610.83,-288.15C591.89,-263.25 556.31,-216.47 534.42,-187.7"/>
<polygon fill="black" stroke="black" points="536.94,-185.23 528.1,-179.39 531.37,-189.46 536.94,-185.23"/>
</g>
<!-- adapter_removal&#45;&gt;qualimap -->
<g id="edge19" class="edge">
<title>adapter_removal&#45;&gt;qualimap</title>
<path fill="none" stroke="black" d="M622.8,-287.97C620.21,-254.96 609.65,-182.2 566.64,-144 541.18,-121.39 453.04,-106.1 392.25,-97.97"/>
<polygon fill="black" stroke="black" points="392.36,-94.45 381.99,-96.63 391.45,-101.39 392.36,-94.45"/>
</g>
<!-- adapter_removal&#45;&gt;multiqc -->
<g id="edge20" class="edge">
<title>adapter_removal&#45;&gt;multiqc</title>
<path fill="none" stroke="black" d="M682.17,-292.26C727.65,-281.59 786.31,-265.92 806.64,-252 839.87,-229.26 848.74,-218.15 861.64,-180 884.27,-113.09 796.78,-60.95 742.28,-35.7"/>
<polygon fill="black" stroke="black" points="743.4,-32.37 732.85,-31.44 740.52,-38.75 743.4,-32.37"/>
</g>
<!-- fastqc_after_clipping -->
<g id="node14" class="node">
<title>fastqc_after_clipping</title>
<ellipse fill="none" stroke="black" cx="1036.64" cy="-234" rx="107.48" ry="18"/>
<text text-anchor="middle" x="1036.64" y="-230.3" font-family="Times,serif" font-size="14.00">fastqc_after_clipping</text>
</g>
<!-- adapter_removal&#45;&gt;fastqc_after_clipping -->
<g id="edge12" class="edge">
<title>adapter_removal&#45;&gt;fastqc_after_clipping</title>
<path fill="none" stroke="black" d="M688.74,-293.66C699.72,-291.76 711,-289.82 721.64,-288 800.25,-274.57 889.95,-259.5 953.46,-248.88"/>
<polygon fill="black" stroke="black" points="954.14,-252.31 963.43,-247.21 952.99,-245.41 954.14,-252.31"/>
</g>
<!-- fastqc_after_clipping&#45;&gt;multiqc -->
<g id="edge21" class="edge">
<title>fastqc_after_clipping&#45;&gt;multiqc</title>
<path fill="none" stroke="black" d="M1028.74,-215.83C1012.53,-182.59 972.21,-109.43 915.64,-72 867.86,-40.39 802.8,-27.62 756.99,-22.47"/>
<polygon fill="black" stroke="black" points="757.26,-18.98 746.95,-21.43 756.53,-25.94 757.26,-18.98"/>
</g>
<!-- output_documentation -->
<g id="node15" class="node">
<title>output_documentation</title>
<ellipse fill="none" stroke="black" cx="845.64" cy="-306" rx="115.08" ry="18"/>
<text text-anchor="middle" x="845.64" y="-302.3" font-family="Times,serif" font-size="14.00">output_documentation</text>
</g>
<!-- get_software_versions -->
<g id="node16" class="node">
<title>get_software_versions</title>
<ellipse fill="none" stroke="black" cx="1531.64" cy="-90" rx="114.28" ry="18"/>
<text text-anchor="middle" x="1531.64" y="-86.3" font-family="Times,serif" font-size="14.00">get_software_versions</text>
</g>
<!-- get_software_versions&#45;&gt;multiqc -->
<g id="edge38" class="edge">
<title>get_software_versions&#45;&gt;multiqc</title>
<path fill="none" stroke="black" d="M1451.34,-77.17C1437.14,-75.28 1422.47,-73.47 1408.64,-72 1166.62,-46.23 876.67,-28.65 757.23,-21.98"/>
<polygon fill="black" stroke="black" points="757.4,-18.49 747.22,-21.43 757.01,-25.48 757.4,-18.49"/>
</g>
</g>
</svg>
