<?xml version="1.0" encoding="UTF-8" standalone="no"?>
<!DOCTYPE svg PUBLIC "-//W3C//DTD SVG 1.1//EN"
 "http://www.w3.org/Graphics/SVG/1.1/DTD/svg11.dtd">
<!-- Generated by graphviz version 2.43.0 (0)
 -->
<!-- Pages: 1 -->
<svg width="1132pt" height="404pt"
 viewBox="0.00 0.00 1132.39 404.00" xmlns="http://www.w3.org/2000/svg" xmlns:xlink="http://www.w3.org/1999/xlink">
<g id="graph0" class="graph" transform="scale(1 1) rotate(0) translate(4 400)">
<polygon fill="white" stroke="transparent" points="-4,4 -4,-400 1128.39,-400 1128.39,4 -4,4"/>
<!-- makeBismarkIndex -->
<g id="node1" class="node">
<title>makeBismarkIndex</title>
<ellipse fill="none" stroke="black" cx="114" cy="-378" rx="100.18" ry="18"/>
<text text-anchor="middle" x="114" y="-374.3" font-family="Times,serif" font-size="14.00">makeBismarkIndex</text>
</g>
<!-- bismark_align -->
<g id="node2" class="node">
<title>bismark_align</title>
<ellipse fill="none" stroke="black" cx="509" cy="-306" rx="75.29" ry="18"/>
<text text-anchor="middle" x="509" y="-302.3" font-family="Times,serif" font-size="14.00">bismark_align</text>
</g>
<!-- makeBismarkIndex&#45;&gt;bismark_align -->
<g id="edge1" class="edge">
<title>makeBismarkIndex&#45;&gt;bismark_align</title>
<path fill="none" stroke="black" d="M182.8,-364.81C255.11,-351.99 368.17,-331.96 440.4,-319.16"/>
<polygon fill="black" stroke="black" points="441.08,-322.59 450.31,-317.4 439.85,-315.7 441.08,-322.59"/>
</g>
<!-- bismark_deduplicate -->
<g id="node3" class="node">
<title>bismark_deduplicate</title>
<ellipse fill="none" stroke="black" cx="287" cy="-234" rx="106.68" ry="18"/>
<text text-anchor="middle" x="287" y="-230.3" font-family="Times,serif" font-size="14.00">bismark_deduplicate</text>
</g>
<!-- makeBismarkIndex&#45;&gt;bismark_deduplicate -->
<g id="edge2" class="edge">
<title>makeBismarkIndex&#45;&gt;bismark_deduplicate</title>
<path fill="none" stroke="black" d="M134.52,-360.15C165.35,-334.85 223.69,-286.96 258.59,-258.32"/>
<polygon fill="black" stroke="black" points="260.99,-260.87 266.5,-251.82 256.55,-255.46 260.99,-260.87"/>
</g>
<!-- bismark_methXtract -->
<g id="node4" class="node">
<title>bismark_methXtract</title>
<ellipse fill="none" stroke="black" cx="449" cy="-162" rx="105.08" ry="18"/>
<text text-anchor="middle" x="449" y="-158.3" font-family="Times,serif" font-size="14.00">bismark_methXtract</text>
</g>
<!-- makeBismarkIndex&#45;&gt;bismark_methXtract -->
<g id="edge3" class="edge">
<title>makeBismarkIndex&#45;&gt;bismark_methXtract</title>
<path fill="none" stroke="black" d="M174.63,-363.65C238.21,-346.96 337.76,-312.9 403,-252 421.19,-235.02 433.42,-209.22 440.66,-189.77"/>
<polygon fill="black" stroke="black" points="443.99,-190.85 444,-180.25 437.39,-188.53 443.99,-190.85"/>
</g>
<!-- qualimap -->
<g id="node5" class="node">
<title>qualimap</title>
<ellipse fill="none" stroke="black" cx="120" cy="-162" rx="53.89" ry="18"/>
<text text-anchor="middle" x="120" y="-158.3" font-family="Times,serif" font-size="14.00">qualimap</text>
</g>
<!-- makeBismarkIndex&#45;&gt;qualimap -->
<g id="edge4" class="edge">
<title>makeBismarkIndex&#45;&gt;qualimap</title>
<path fill="none" stroke="black" d="M109.56,-359.94C102.52,-330.4 90.54,-267.89 100,-216 101.61,-207.2 104.6,-197.95 107.79,-189.7"/>
<polygon fill="black" stroke="black" points="111.12,-190.79 111.69,-180.21 104.65,-188.12 111.12,-190.79"/>
</g>
<!-- bismark_report -->
<g id="node6" class="node">
<title>bismark_report</title>
<ellipse fill="none" stroke="black" cx="325" cy="-90" rx="81.79" ry="18"/>
<text text-anchor="middle" x="325" y="-86.3" font-family="Times,serif" font-size="14.00">bismark_report</text>
</g>
<!-- makeBismarkIndex&#45;&gt;bismark_report -->
<g id="edge5" class="edge">
<title>makeBismarkIndex&#45;&gt;bismark_report</title>
<path fill="none" stroke="black" d="M101,-359.88C70.95,-318.09 3.2,-209.48 57,-144 79.6,-116.49 167.85,-103.02 236.98,-96.58"/>
<polygon fill="black" stroke="black" points="237.39,-100.06 247.03,-95.68 236.76,-93.09 237.39,-100.06"/>
</g>
<!-- bismark_summary -->
<g id="node7" class="node">
<title>bismark_summary</title>
<ellipse fill="none" stroke="black" cx="572" cy="-90" rx="96.38" ry="18"/>
<text text-anchor="middle" x="572" y="-86.3" font-family="Times,serif" font-size="14.00">bismark_summary</text>
</g>
<!-- makeBismarkIndex&#45;&gt;bismark_summary -->
<g id="edge6" class="edge">
<title>makeBismarkIndex&#45;&gt;bismark_summary</title>
<path fill="none" stroke="black" d="M210.6,-373.1C343.16,-366.73 567.99,-351.93 593,-324 644.84,-266.11 607.46,-164.61 585.27,-117.02"/>
<polygon fill="black" stroke="black" points="588.42,-115.48 580.93,-107.98 582.11,-118.51 588.42,-115.48"/>
</g>
<!-- multiqc -->
<g id="node8" class="node">
<title>multiqc</title>
<ellipse fill="none" stroke="black" cx="510" cy="-18" rx="46.29" ry="18"/>
<text text-anchor="middle" x="510" y="-14.3" font-family="Times,serif" font-size="14.00">multiqc</text>
</g>
<!-- makeBismarkIndex&#45;&gt;multiqc -->
<g id="edge7" class="edge">
<title>makeBismarkIndex&#45;&gt;multiqc</title>
<path fill="none" stroke="black" d="M87.85,-360.57C54.19,-337.16 0,-290.8 0,-235 0,-235 0,-235 0,-161 0,-67.49 322.24,-32.92 454.43,-22.67"/>
<polygon fill="black" stroke="black" points="455.03,-26.13 464.74,-21.89 454.51,-19.15 455.03,-26.13"/>
</g>
<!-- bismark_align&#45;&gt;bismark_deduplicate -->
<g id="edge17" class="edge">
<title>bismark_align&#45;&gt;bismark_deduplicate</title>
<path fill="none" stroke="black" d="M465.4,-291.25C430.98,-280.4 382.63,-265.15 344.95,-253.27"/>
<polygon fill="black" stroke="black" points="345.71,-249.84 335.12,-250.17 343.6,-256.52 345.71,-249.84"/>
</g>
<!-- bismark_align&#45;&gt;bismark_methXtract -->
<g id="edge18" class="edge">
<title>bismark_align&#45;&gt;bismark_methXtract</title>
<path fill="none" stroke="black" d="M502.62,-287.8C495.85,-269.77 484.67,-240.69 474,-216 470.19,-207.18 465.79,-197.65 461.75,-189.14"/>
<polygon fill="black" stroke="black" points="464.87,-187.56 457.4,-180.06 458.56,-190.59 464.87,-187.56"/>
</g>
<!-- bismark_align&#45;&gt;qualimap -->
<g id="edge19" class="edge">
<title>bismark_align&#45;&gt;qualimap</title>
<path fill="none" stroke="black" d="M436.55,-300.93C350.39,-294.85 212.95,-280.88 171,-252 149.54,-237.23 135.96,-210.28 128.25,-189.89"/>
<polygon fill="black" stroke="black" points="131.46,-188.48 124.84,-180.21 124.86,-190.8 131.46,-188.48"/>
</g>
<!-- bismark_align&#45;&gt;bismark_report -->
<g id="edge20" class="edge">
<title>bismark_align&#45;&gt;bismark_report</title>
<path fill="none" stroke="black" d="M491.54,-288.34C471.25,-269.46 436.29,-238.42 403,-216 374.64,-196.9 354.25,-208.26 335,-180 322.72,-161.98 320.9,-136.99 321.76,-118.08"/>
<polygon fill="black" stroke="black" points="325.25,-118.24 322.49,-108.01 318.27,-117.73 325.25,-118.24"/>
</g>
<!-- bismark_align&#45;&gt;bismark_summary -->
<g id="edge21" class="edge">
<title>bismark_align&#45;&gt;bismark_summary</title>
<path fill="none" stroke="black" d="M518.46,-287.81C530.94,-264.25 552.53,-220.27 563,-180 568.3,-159.62 570.51,-135.85 571.42,-118.01"/>
<polygon fill="black" stroke="black" points="574.91,-118.14 571.82,-108 567.92,-117.85 574.91,-118.14"/>
</g>
<!-- bismark_align&#45;&gt;multiqc -->
<g id="edge22" class="edge">
<title>bismark_align&#45;&gt;multiqc</title>
<path fill="none" stroke="black" d="M536.21,-289.12C597.5,-251.37 736.49,-153.29 677,-72 651.88,-37.67 604.36,-25.03 566.42,-20.63"/>
<polygon fill="black" stroke="black" points="566.3,-17.1 556,-19.6 565.61,-24.07 566.3,-17.1"/>
</g>
<!-- bismark_deduplicate&#45;&gt;bismark_methXtract -->
<g id="edge23" class="edge">
<title>bismark_deduplicate&#45;&gt;bismark_methXtract</title>
<path fill="none" stroke="black" d="M324.17,-216.94C347.52,-206.85 377.84,-193.75 402.75,-182.98"/>
<polygon fill="black" stroke="black" points="404.22,-186.16 412.01,-178.98 401.44,-179.74 404.22,-186.16"/>
</g>
<!-- bismark_deduplicate&#45;&gt;qualimap -->
<g id="edge24" class="edge">
<title>bismark_deduplicate&#45;&gt;qualimap</title>
<path fill="none" stroke="black" d="M249.11,-217.12C223.05,-206.19 188.45,-191.69 161.63,-180.45"/>
<polygon fill="black" stroke="black" points="162.7,-177.1 152.13,-176.47 159.99,-183.56 162.7,-177.1"/>
</g>
<!-- bismark_deduplicate&#45;&gt;bismark_report -->
<g id="edge25" class="edge">
<title>bismark_deduplicate&#45;&gt;bismark_report</title>
<path fill="none" stroke="black" d="M276.02,-216.01C265.64,-197.64 253.14,-167.81 264,-144 269.51,-131.91 279.29,-121.52 289.43,-113.21"/>
<polygon fill="black" stroke="black" points="291.73,-115.86 297.56,-107.01 287.48,-110.29 291.73,-115.86"/>
</g>
<!-- bismark_deduplicate&#45;&gt;bismark_summary -->
<g id="edge26" class="edge">
<title>bismark_deduplicate&#45;&gt;bismark_summary</title>
<path fill="none" stroke="black" d="M291.56,-215.72C297.85,-195.35 311.21,-162.02 335,-144 358.66,-126.08 427.99,-111.84 485.59,-102.65"/>
<polygon fill="black" stroke="black" points="486.48,-106.06 495.82,-101.05 485.4,-99.14 486.48,-106.06"/>
</g>
<!-- bismark_deduplicate&#45;&gt;multiqc -->
<g id="edge27" class="edge">
<title>bismark_deduplicate&#45;&gt;multiqc</title>
<path fill="none" stroke="black" d="M271.97,-216.01C245.82,-184.34 198.01,-115.56 234,-72 261.36,-38.88 381.67,-26.25 454.11,-21.59"/>
<polygon fill="black" stroke="black" points="454.67,-25.06 464.43,-20.96 454.24,-18.07 454.67,-25.06"/>
</g>
<!-- bismark_methXtract&#45;&gt;bismark_report -->
<g id="edge28" class="edge">
<title>bismark_methXtract&#45;&gt;bismark_report</title>
<path fill="none" stroke="black" d="M419.93,-144.59C402.7,-134.86 380.7,-122.44 362.22,-112.01"/>
<polygon fill="black" stroke="black" points="363.89,-108.94 353.46,-107.07 360.45,-115.03 363.89,-108.94"/>
</g>
<!-- bismark_methXtract&#45;&gt;bismark_summary -->
<g id="edge29" class="edge">
<title>bismark_methXtract&#45;&gt;bismark_summary</title>
<path fill="none" stroke="black" d="M477.84,-144.59C494.65,-135.02 516.04,-122.85 534.19,-112.52"/>
<polygon fill="black" stroke="black" points="536.38,-115.3 543.34,-107.31 532.92,-109.21 536.38,-115.3"/>
</g>
<!-- bismark_methXtract&#45;&gt;multiqc -->
<g id="edge30" class="edge">
<title>bismark_methXtract&#45;&gt;multiqc</title>
<path fill="none" stroke="black" d="M450.03,-143.84C451.69,-125.33 455.97,-95.38 467,-72 471.9,-61.6 479.26,-51.48 486.51,-42.91"/>
<polygon fill="black" stroke="black" points="489.33,-45.01 493.35,-35.21 484.09,-40.36 489.33,-45.01"/>
</g>
<!-- qualimap&#45;&gt;multiqc -->
<g id="edge31" class="edge">
<title>qualimap&#45;&gt;multiqc</title>
<path fill="none" stroke="black" d="M127.9,-144.1C138.49,-123.47 159.33,-89.22 188,-72 231.99,-45.59 374.91,-30.02 454.76,-23.17"/>
<polygon fill="black" stroke="black" points="455.44,-26.63 465.12,-22.3 454.86,-19.65 455.44,-26.63"/>
</g>
<!-- bismark_report&#45;&gt;multiqc -->
<g id="edge32" class="edge">
<title>bismark_report&#45;&gt;multiqc</title>
<path fill="none" stroke="black" d="M364.23,-74.15C394.76,-62.6 437.04,-46.61 468.2,-34.82"/>
<polygon fill="black" stroke="black" points="469.79,-37.96 477.9,-31.15 467.31,-31.41 469.79,-37.96"/>
</g>
<!-- bismark_summary&#45;&gt;multiqc -->
<g id="edge33" class="edge">
<title>bismark_summary&#45;&gt;multiqc</title>
<path fill="none" stroke="black" d="M556.99,-72.05C549.26,-63.33 539.71,-52.54 531.24,-42.98"/>
<polygon fill="black" stroke="black" points="533.69,-40.47 524.44,-35.31 528.45,-45.11 533.69,-40.47"/>
</g>
<!-- trim_galore -->
<g id="node9" class="node">
<title>trim_galore</title>
<ellipse fill="none" stroke="black" cx="650" cy="-378" rx="64.19" ry="18"/>
<text text-anchor="middle" x="650" y="-374.3" font-family="Times,serif" font-size="14.00">trim_galore</text>
</g>
<!-- trim_galore&#45;&gt;bismark_align -->
<g id="edge8" class="edge">
<title>trim_galore&#45;&gt;bismark_align</title>
<path fill="none" stroke="black" d="M619.75,-361.98C599.13,-351.74 571.59,-338.07 549.13,-326.92"/>
<polygon fill="black" stroke="black" points="550.69,-323.79 540.17,-322.48 547.57,-330.06 550.69,-323.79"/>
</g>
<!-- trim_galore&#45;&gt;bismark_deduplicate -->
<g id="edge9" class="edge">
<title>trim_galore&#45;&gt;bismark_deduplicate</title>
<path fill="none" stroke="black" d="M593.78,-369.23C547.22,-361.51 480.03,-347.4 425,-324 384.76,-306.89 343.19,-278.33 316.34,-258.18"/>
<polygon fill="black" stroke="black" points="318.24,-255.23 308.16,-251.96 314,-260.8 318.24,-255.23"/>
</g>
<!-- trim_galore&#45;&gt;bismark_methXtract -->
<g id="edge10" class="edge">
<title>trim_galore&#45;&gt;bismark_methXtract</title>
<path fill="none" stroke="black" d="M641.02,-359.94C630.75,-341.26 612.8,-310.9 593,-288 558.47,-248.05 511.07,-209.36 480.24,-185.86"/>
<polygon fill="black" stroke="black" points="482.1,-182.88 472.01,-179.65 477.88,-188.47 482.1,-182.88"/>
</g>
<!-- trim_galore&#45;&gt;qualimap -->
<g id="edge11" class="edge">
<title>trim_galore&#45;&gt;qualimap</title>
<path fill="none" stroke="black" d="M590.33,-370.94C468.3,-357.25 196.69,-319.75 137,-252 122.26,-235.27 118.63,-209.78 118.33,-190.36"/>
<polygon fill="black" stroke="black" points="121.83,-190.33 118.45,-180.29 114.83,-190.25 121.83,-190.33"/>
</g>
<!-- trim_galore&#45;&gt;bismark_report -->
<g id="edge12" class="edge">
<title>trim_galore&#45;&gt;bismark_report</title>
<path fill="none" stroke="black" d="M649.01,-359.81C645.55,-316.39 630.16,-201.67 563,-144 539.47,-123.8 464.91,-109.36 405.44,-100.7"/>
<polygon fill="black" stroke="black" points="405.68,-97.2 395.28,-99.26 404.69,-104.13 405.68,-97.2"/>
</g>
<!-- trim_galore&#45;&gt;bismark_summary -->
<g id="edge13" class="edge">
<title>trim_galore&#45;&gt;bismark_summary</title>
<path fill="none" stroke="black" d="M676.38,-361.34C689.08,-352.22 703.03,-339.46 710,-324 729.73,-280.24 721.54,-262.59 710,-216 701.3,-180.88 697.56,-169.61 672,-144 658.18,-130.16 639.98,-119.06 622.91,-110.68"/>
<polygon fill="black" stroke="black" points="624.11,-107.37 613.57,-106.29 621.13,-113.71 624.11,-107.37"/>
</g>
<!-- trim_galore&#45;&gt;multiqc -->
<g id="edge14" class="edge">
<title>trim_galore&#45;&gt;multiqc</title>
<path fill="none" stroke="black" d="M679.87,-362.04C696.01,-352.8 715.36,-339.71 729,-324 757.8,-290.83 772,-278.93 772,-235 772,-235 772,-235 772,-161 772,-67.42 641.2,-35.19 564.44,-24.33"/>
<polygon fill="black" stroke="black" points="564.82,-20.85 554.44,-22.99 563.89,-27.79 564.82,-20.85"/>
</g>
<!-- fastqc -->
<g id="node10" class="node">
<title>fastqc</title>
<ellipse fill="none" stroke="black" cx="839" cy="-90" rx="38.99" ry="18"/>
<text text-anchor="middle" x="839" y="-86.3" font-family="Times,serif" font-size="14.00">fastqc</text>
</g>
<!-- fastqc&#45;&gt;multiqc -->
<g id="edge15" class="edge">
<title>fastqc&#45;&gt;multiqc</title>
<path fill="none" stroke="black" d="M808.63,-78.57C801.28,-76.23 793.4,-73.89 786,-72 709.01,-52.34 618.27,-36.24 562.44,-27.13"/>
<polygon fill="black" stroke="black" points="562.86,-23.66 552.43,-25.51 561.75,-30.57 562.86,-23.66"/>
</g>
<!-- get_software_versions -->
<g id="node11" class="node">
<title>get_software_versions</title>
<ellipse fill="none" stroke="black" cx="1010" cy="-90" rx="114.28" ry="18"/>
<text text-anchor="middle" x="1010" y="-86.3" font-family="Times,serif" font-size="14.00">get_software_versions</text>
</g>
<!-- get_software_versions&#45;&gt;multiqc -->
<g id="edge16" class="edge">
<title>get_software_versions&#45;&gt;multiqc</title>
<path fill="none" stroke="black" d="M927.72,-77.48C824.25,-63 649.67,-38.55 562.63,-26.37"/>
<polygon fill="black" stroke="black" points="563.1,-22.9 552.71,-24.98 562.13,-29.83 563.1,-22.9"/>
</g>
<!-- output_documentation -->
<g id="node12" class="node">
<title>output_documentation</title>
<ellipse fill="none" stroke="black" cx="847" cy="-378" rx="115.08" ry="18"/>
<text text-anchor="middle" x="847" y="-374.3" font-family="Times,serif" font-size="14.00">output_documentation</text>
</g>
</g>
</svg>
