<?xml version="1.0" encoding="UTF-8" standalone="no"?>
<!DOCTYPE svg PUBLIC "-//W3C//DTD SVG 1.1//EN"
 "http://www.w3.org/Graphics/SVG/1.1/DTD/svg11.dtd">
<!-- Generated by graphviz version 2.43.0 (0)
 -->
<!-- Pages: 1 -->
<svg width="874pt" height="332pt"
 viewBox="0.00 0.00 874.06 332.00" xmlns="http://www.w3.org/2000/svg" xmlns:xlink="http://www.w3.org/1999/xlink">
<g id="graph0" class="graph" transform="scale(1 1) rotate(0) translate(4 328)">
<polygon fill="white" stroke="transparent" points="-4,4 -4,-328 870.06,-328 870.06,4 -4,4"/>
<!-- makeBismarkIndex -->
<g id="node1" class="node">
<title>makeBismarkIndex</title>
<ellipse fill="none" stroke="black" cx="136.67" cy="-306" rx="100.18" ry="18"/>
<text text-anchor="middle" x="136.67" y="-302.3" font-family="Times,serif" font-size="14.00">makeBismarkIndex</text>
</g>
<!-- bismark_align -->
<g id="node2" class="node">
<title>bismark_align</title>
<ellipse fill="none" stroke="black" cx="277.67" cy="-234" rx="75.29" ry="18"/>
<text text-anchor="middle" x="277.67" y="-230.3" font-family="Times,serif" font-size="14.00">bismark_align</text>
</g>
<!-- makeBismarkIndex&#45;&gt;bismark_align -->
<g id="edge1" class="edge">
<title>makeBismarkIndex&#45;&gt;bismark_align</title>
<path fill="none" stroke="black" d="M169.02,-288.94C189.37,-278.84 215.78,-265.73 237.47,-254.96"/>
<polygon fill="black" stroke="black" points="239.04,-258.09 246.44,-250.5 235.93,-251.82 239.04,-258.09"/>
</g>
<!-- bismark_methXtract -->
<g id="node3" class="node">
<title>bismark_methXtract</title>
<ellipse fill="none" stroke="black" cx="140.67" cy="-162" rx="105.08" ry="18"/>
<text text-anchor="middle" x="140.67" y="-158.3" font-family="Times,serif" font-size="14.00">bismark_methXtract</text>
</g>
<!-- makeBismarkIndex&#45;&gt;bismark_methXtract -->
<g id="edge2" class="edge">
<title>makeBismarkIndex&#45;&gt;bismark_methXtract</title>
<path fill="none" stroke="black" d="M137.15,-287.87C137.84,-263.67 139.09,-219.21 139.9,-190.39"/>
<polygon fill="black" stroke="black" points="143.4,-190.28 140.19,-180.19 136.41,-190.09 143.4,-190.28"/>
</g>
<!-- qualimap -->
<g id="node4" class="node">
<title>qualimap</title>
<ellipse fill="none" stroke="black" cx="393.67" cy="-162" rx="53.89" ry="18"/>
<text text-anchor="middle" x="393.67" y="-158.3" font-family="Times,serif" font-size="14.00">qualimap</text>
</g>
<!-- makeBismarkIndex&#45;&gt;qualimap -->
<g id="edge3" class="edge">
<title>makeBismarkIndex&#45;&gt;qualimap</title>
<path fill="none" stroke="black" d="M214.65,-294.67C270.66,-285.8 339.96,-271.37 361.67,-252 379.33,-236.25 387.25,-210.03 390.79,-190.12"/>
<polygon fill="black" stroke="black" points="394.28,-190.5 392.32,-180.09 387.36,-189.45 394.28,-190.5"/>
</g>
<!-- bismark_report -->
<g id="node5" class="node">
<title>bismark_report</title>
<ellipse fill="none" stroke="black" cx="212.67" cy="-90" rx="81.79" ry="18"/>
<text text-anchor="middle" x="212.67" y="-86.3" font-family="Times,serif" font-size="14.00">bismark_report</text>
</g>
<!-- makeBismarkIndex&#45;&gt;bismark_report -->
<g id="edge4" class="edge">
<title>makeBismarkIndex&#45;&gt;bismark_report</title>
<path fill="none" stroke="black" d="M110.44,-288.42C66.87,-258.82 -11.98,-195.2 26.67,-144 40.48,-125.71 92.43,-111.86 137.93,-102.91"/>
<polygon fill="black" stroke="black" points="138.66,-106.33 147.83,-101.02 137.35,-99.46 138.66,-106.33"/>
</g>
<!-- multiqc -->
<g id="node6" class="node">
<title>multiqc</title>
<ellipse fill="none" stroke="black" cx="352.67" cy="-18" rx="46.29" ry="18"/>
<text text-anchor="middle" x="352.67" y="-14.3" font-family="Times,serif" font-size="14.00">multiqc</text>
</g>
<!-- makeBismarkIndex&#45;&gt;multiqc -->
<g id="edge5" class="edge">
<title>makeBismarkIndex&#45;&gt;multiqc</title>
<path fill="none" stroke="black" d="M85.8,-290.37C65.61,-282.15 43.86,-269.85 29.67,-252 -0.56,-213.95 -9.27,-187.35 12.67,-144 64.22,-42.16 213.56,-21.89 296.13,-18.72"/>
<polygon fill="black" stroke="black" points="296.46,-22.21 306.34,-18.4 296.24,-15.22 296.46,-22.21"/>
</g>
<!-- bismark_align&#45;&gt;bismark_methXtract -->
<g id="edge13" class="edge">
<title>bismark_align&#45;&gt;bismark_methXtract</title>
<path fill="none" stroke="black" d="M247.27,-217.46C227.9,-207.57 202.58,-194.63 181.48,-183.85"/>
<polygon fill="black" stroke="black" points="182.92,-180.65 172.42,-179.22 179.73,-186.89 182.92,-180.65"/>
</g>
<!-- bismark_align&#45;&gt;qualimap -->
<g id="edge14" class="edge">
<title>bismark_align&#45;&gt;qualimap</title>
<path fill="none" stroke="black" d="M303.99,-217.12C320.5,-207.15 341.95,-194.21 359.73,-183.48"/>
<polygon fill="black" stroke="black" points="361.89,-186.26 368.65,-178.1 358.28,-180.27 361.89,-186.26"/>
</g>
<!-- bismark_align&#45;&gt;bismark_report -->
<g id="edge15" class="edge">
<title>bismark_align&#45;&gt;bismark_report</title>
<path fill="none" stroke="black" d="M275.41,-215.86C272.49,-197.37 266.33,-167.43 254.67,-144 249.68,-133.96 242.57,-124.04 235.61,-115.54"/>
<polygon fill="black" stroke="black" points="238.22,-113.21 229.07,-107.87 232.9,-117.75 238.22,-113.21"/>
</g>
<!-- bismark_align&#45;&gt;multiqc -->
<g id="edge16" class="edge">
<title>bismark_align&#45;&gt;multiqc</title>
<path fill="none" stroke="black" d="M283.68,-215.85C296.74,-178.58 327.79,-90 343.39,-45.49"/>
<polygon fill="black" stroke="black" points="346.73,-46.53 346.74,-35.94 340.13,-44.21 346.73,-46.53"/>
</g>
<!-- bismark_methXtract&#45;&gt;bismark_report -->
<g id="edge17" class="edge">
<title>bismark_methXtract&#45;&gt;bismark_report</title>
<path fill="none" stroke="black" d="M158.1,-144.05C167.12,-135.28 178.28,-124.43 188.16,-114.83"/>
<polygon fill="black" stroke="black" points="190.67,-117.27 195.4,-107.79 185.79,-112.25 190.67,-117.27"/>
</g>
<!-- bismark_methXtract&#45;&gt;multiqc -->
<g id="edge18" class="edge">
<title>bismark_methXtract&#45;&gt;multiqc</title>
<path fill="none" stroke="black" d="M129.62,-144.04C118.48,-124.6 105.13,-92.76 121.67,-72 143.27,-44.88 236.51,-30.5 297.73,-23.84"/>
<polygon fill="black" stroke="black" points="298.43,-27.28 308.01,-22.76 297.7,-20.32 298.43,-27.28"/>
</g>
<!-- qualimap&#45;&gt;multiqc -->
<g id="edge19" class="edge">
<title>qualimap&#45;&gt;multiqc</title>
<path fill="none" stroke="black" d="M388.73,-143.87C381.71,-119.56 368.79,-74.82 360.47,-46.01"/>
<polygon fill="black" stroke="black" points="363.77,-44.83 357.63,-36.19 357.05,-46.77 363.77,-44.83"/>
</g>
<!-- bismark_report&#45;&gt;multiqc -->
<g id="edge20" class="edge">
<title>bismark_report&#45;&gt;multiqc</title>
<path fill="none" stroke="black" d="M244.09,-73.29C265.39,-62.64 293.63,-48.52 315.97,-37.35"/>
<polygon fill="black" stroke="black" points="317.77,-40.37 325.14,-32.76 314.63,-34.11 317.77,-40.37"/>
</g>
<!-- trim_galore -->
<g id="node7" class="node">
<title>trim_galore</title>
<ellipse fill="none" stroke="black" cx="418.67" cy="-306" rx="64.19" ry="18"/>
<text text-anchor="middle" x="418.67" y="-302.3" font-family="Times,serif" font-size="14.00">trim_galore</text>
</g>
<!-- trim_galore&#45;&gt;bismark_align -->
<g id="edge6" class="edge">
<title>trim_galore&#45;&gt;bismark_align</title>
<path fill="none" stroke="black" d="M388.42,-289.98C367.8,-279.74 340.26,-266.07 317.81,-254.92"/>
<polygon fill="black" stroke="black" points="319.36,-251.79 308.85,-250.48 316.25,-258.06 319.36,-251.79"/>
</g>
<!-- trim_galore&#45;&gt;bismark_methXtract -->
<g id="edge7" class="edge">
<title>trim_galore&#45;&gt;bismark_methXtract</title>
<path fill="none" stroke="black" d="M354.92,-303.15C306.56,-298.84 240.61,-286.4 193.67,-252 172.58,-236.54 158.35,-209.92 149.99,-189.81"/>
<polygon fill="black" stroke="black" points="153.15,-188.3 146.25,-180.26 146.64,-190.85 153.15,-188.3"/>
</g>
<!-- trim_galore&#45;&gt;qualimap -->
<g id="edge8" class="edge">
<title>trim_galore&#45;&gt;qualimap</title>
<path fill="none" stroke="black" d="M415.66,-287.87C411.4,-263.67 403.57,-219.21 398.49,-190.39"/>
<polygon fill="black" stroke="black" points="401.88,-189.43 396.7,-180.19 394.98,-190.64 401.88,-189.43"/>
</g>
<!-- trim_galore&#45;&gt;bismark_report -->
<g id="edge9" class="edge">
<title>trim_galore&#45;&gt;bismark_report</title>
<path fill="none" stroke="black" d="M431.1,-287.89C452.6,-256.03 491.28,-186.93 456.67,-144 436.83,-119.38 360.37,-105.61 298.26,-98.32"/>
<polygon fill="black" stroke="black" points="298.36,-94.81 288.03,-97.16 297.58,-101.76 298.36,-94.81"/>
</g>
<!-- trim_galore&#45;&gt;multiqc -->
<g id="edge10" class="edge">
<title>trim_galore&#45;&gt;multiqc</title>
<path fill="none" stroke="black" d="M441.58,-289.09C453.07,-279.74 465.95,-266.84 472.67,-252 492.48,-208.24 494.96,-188.41 476.67,-144 458.13,-98.98 414.66,-61.59 384.46,-39.77"/>
<polygon fill="black" stroke="black" points="386.13,-36.66 375.94,-33.77 382.1,-42.39 386.13,-36.66"/>
</g>
<!-- fastqc -->
<g id="node8" class="node">
<title>fastqc</title>
<ellipse fill="none" stroke="black" cx="580.67" cy="-90" rx="38.99" ry="18"/>
<text text-anchor="middle" x="580.67" y="-86.3" font-family="Times,serif" font-size="14.00">fastqc</text>
</g>
<!-- fastqc&#45;&gt;multiqc -->
<g id="edge11" class="edge">
<title>fastqc&#45;&gt;multiqc</title>
<path fill="none" stroke="black" d="M549.59,-78.94C542.4,-76.64 534.78,-74.21 527.67,-72 483.81,-58.33 433.62,-43.18 398.27,-32.59"/>
<polygon fill="black" stroke="black" points="398.84,-29.1 388.25,-29.59 396.83,-35.81 398.84,-29.1"/>
</g>
<!-- get_software_versions -->
<g id="node9" class="node">
<title>get_software_versions</title>
<ellipse fill="none" stroke="black" cx="751.67" cy="-90" rx="114.28" ry="18"/>
<text text-anchor="middle" x="751.67" y="-86.3" font-family="Times,serif" font-size="14.00">get_software_versions</text>
</g>
<!-- get_software_versions&#45;&gt;multiqc -->
<g id="edge12" class="edge">
<title>get_software_versions&#45;&gt;multiqc</title>
<path fill="none" stroke="black" d="M678.49,-76.16C598.83,-62.19 473.52,-40.2 403.8,-27.97"/>
<polygon fill="black" stroke="black" points="404.38,-24.52 393.93,-26.24 403.17,-31.41 404.38,-24.52"/>
</g>
</g>
</svg>
