<?xml version="1.0" encoding="UTF-8" standalone="no"?>
<!DOCTYPE svg PUBLIC "-//W3C//DTD SVG 1.1//EN"
 "http://www.w3.org/Graphics/SVG/1.1/DTD/svg11.dtd">
<!-- Generated by graphviz version 2.43.0 (0)
 -->
<!-- Pages: 1 -->
<svg width="1069pt" height="260pt"
 viewBox="0.00 0.00 1068.84 260.00" xmlns="http://www.w3.org/2000/svg" xmlns:xlink="http://www.w3.org/1999/xlink">
<g id="graph0" class="graph" transform="scale(1 1) rotate(0) translate(4 256)">
<polygon fill="white" stroke="transparent" points="-4,4 -4,-256 1064.84,-256 1064.84,4 -4,4"/>
<!-- get_software_versions -->
<g id="node1" class="node">
<title>get_software_versions</title>
<ellipse fill="none" stroke="black" cx="412.49" cy="-90" rx="114.28" ry="18"/>
<text text-anchor="middle" x="412.49" y="-86.3" font-family="Times,serif" font-size="14.00">get_software_versions</text>
</g>
<!-- MultiQC -->
<g id="node2" class="node">
<title>MultiQC</title>
<ellipse fill="none" stroke="black" cx="554.49" cy="-18" rx="50.09" ry="18"/>
<text text-anchor="middle" x="554.49" y="-14.3" font-family="Times,serif" font-size="14.00">MultiQC</text>
</g>
<!-- get_software_versions&#45;&gt;MultiQC -->
<g id="edge1" class="edge">
<title>get_software_versions&#45;&gt;MultiQC</title>
<path fill="none" stroke="black" d="M445.79,-72.59C467.16,-62.05 494.96,-48.35 517.09,-37.44"/>
<polygon fill="black" stroke="black" points="518.78,-40.51 526.2,-32.95 515.68,-34.23 518.78,-40.51"/>
</g>
<!-- BuildDict -->
<g id="node3" class="node">
<title>BuildDict</title>
<ellipse fill="none" stroke="black" cx="868.49" cy="-234" rx="53.89" ry="18"/>
<text text-anchor="middle" x="868.49" y="-230.3" font-family="Times,serif" font-size="14.00">BuildDict</text>
</g>
<!-- BuildDict&#45;&gt;MultiQC -->
<g id="edge5" class="edge">
<title>BuildDict&#45;&gt;MultiQC</title>
<path fill="none" stroke="black" d="M819.46,-226.33C753.2,-214.61 636.17,-183.92 573.49,-108 559.3,-90.81 554.98,-65.53 553.96,-46.31"/>
<polygon fill="black" stroke="black" points="557.45,-45.97 553.69,-36.06 550.46,-46.15 557.45,-45.97"/>
</g>
<!-- BaseRecalibrator -->
<g id="node4" class="node">
<title>BaseRecalibrator</title>
<ellipse fill="none" stroke="black" cx="928.49" cy="-162" rx="90.98" ry="18"/>
<text text-anchor="middle" x="928.49" y="-158.3" font-family="Times,serif" font-size="14.00">BaseRecalibrator</text>
</g>
<!-- BuildDict&#45;&gt;BaseRecalibrator -->
<g id="edge2" class="edge">
<title>BuildDict&#45;&gt;BaseRecalibrator</title>
<path fill="none" stroke="black" d="M882.71,-216.41C890.08,-207.82 899.21,-197.16 907.38,-187.63"/>
<polygon fill="black" stroke="black" points="910.11,-189.83 913.96,-179.96 904.79,-185.27 910.11,-189.83"/>
</g>
<!-- GatherBQSRReports -->
<g id="node5" class="node">
<title>GatherBQSRReports</title>
<ellipse fill="none" stroke="black" cx="823.49" cy="-90" rx="106.68" ry="18"/>
<text text-anchor="middle" x="823.49" y="-86.3" font-family="Times,serif" font-size="14.00">GatherBQSRReports</text>
</g>
<!-- BuildDict&#45;&gt;GatherBQSRReports -->
<g id="edge3" class="edge">
<title>BuildDict&#45;&gt;GatherBQSRReports</title>
<path fill="none" stroke="black" d="M851.89,-216.43C843.26,-206.69 833.49,-193.64 828.49,-180 821.27,-160.29 820.3,-136.49 820.98,-118.46"/>
<polygon fill="black" stroke="black" points="824.48,-118.51 821.56,-108.33 817.49,-118.11 824.48,-118.51"/>
</g>
<!-- ApplyBQSR -->
<g id="node6" class="node">
<title>ApplyBQSR</title>
<ellipse fill="none" stroke="black" cx="996.49" cy="-18" rx="64.19" ry="18"/>
<text text-anchor="middle" x="996.49" y="-14.3" font-family="Times,serif" font-size="14.00">ApplyBQSR</text>
</g>
<!-- BuildDict&#45;&gt;ApplyBQSR -->
<g id="edge4" class="edge">
<title>BuildDict&#45;&gt;ApplyBQSR</title>
<path fill="none" stroke="black" d="M921.72,-230.77C958.25,-226.13 1004.34,-213.45 1028.49,-180 1057.77,-139.45 1031.87,-78.83 1012.68,-44.72"/>
<polygon fill="black" stroke="black" points="1015.56,-42.71 1007.5,-35.84 1009.52,-46.24 1015.56,-42.71"/>
</g>
<!-- BaseRecalibrator&#45;&gt;MultiQC -->
<g id="edge8" class="edge">
<title>BaseRecalibrator&#45;&gt;MultiQC</title>
<path fill="none" stroke="black" d="M937.43,-144.02C946.45,-124.27 956.78,-91.83 939.49,-72 898.12,-24.54 712.42,-18.11 614.84,-18.11"/>
<polygon fill="black" stroke="black" points="614.82,-14.61 604.83,-18.13 614.83,-21.61 614.82,-14.61"/>
</g>
<!-- BaseRecalibrator&#45;&gt;GatherBQSRReports -->
<g id="edge6" class="edge">
<title>BaseRecalibrator&#45;&gt;GatherBQSRReports</title>
<path fill="none" stroke="black" d="M903.87,-144.59C889.89,-135.26 872.19,-123.46 856.96,-113.31"/>
<polygon fill="black" stroke="black" points="858.58,-110.19 848.32,-107.55 854.7,-116.01 858.58,-110.19"/>
</g>
<!-- BaseRecalibrator&#45;&gt;ApplyBQSR -->
<g id="edge7" class="edge">
<title>BaseRecalibrator&#45;&gt;ApplyBQSR</title>
<path fill="none" stroke="black" d="M945.64,-144.23C954.79,-134.43 965.56,-121.38 972.49,-108 982.59,-88.52 988.75,-64.38 992.3,-46.16"/>
<polygon fill="black" stroke="black" points="995.77,-46.66 994.1,-36.19 988.88,-45.41 995.77,-46.66"/>
</g>
<!-- GatherBQSRReports&#45;&gt;MultiQC -->
<g id="edge12" class="edge">
<title>GatherBQSRReports&#45;&gt;MultiQC</title>
<path fill="none" stroke="black" d="M768.08,-74.58C719.65,-61.98 650,-43.85 603.55,-31.77"/>
<polygon fill="black" stroke="black" points="604.28,-28.34 593.72,-29.21 602.51,-35.11 604.28,-28.34"/>
</g>
<!-- GatherBQSRReports&#45;&gt;ApplyBQSR -->
<g id="edge11" class="edge">
<title>GatherBQSRReports&#45;&gt;ApplyBQSR</title>
<path fill="none" stroke="black" d="M862.75,-73.12C889.32,-62.36 924.48,-48.14 952.08,-36.97"/>
<polygon fill="black" stroke="black" points="953.54,-40.15 961.5,-33.16 950.92,-33.67 953.54,-40.15"/>
</g>
<!-- FastQCFQ -->
<g id="node7" class="node">
<title>FastQCFQ</title>
<ellipse fill="none" stroke="black" cx="640.49" cy="-90" rx="58.49" ry="18"/>
<text text-anchor="middle" x="640.49" y="-86.3" font-family="Times,serif" font-size="14.00">FastQCFQ</text>
</g>
<!-- FastQCFQ&#45;&gt;MultiQC -->
<g id="edge9" class="edge">
<title>FastQCFQ&#45;&gt;MultiQC</title>
<path fill="none" stroke="black" d="M620.55,-72.76C608.99,-63.36 594.27,-51.38 581.66,-41.12"/>
<polygon fill="black" stroke="black" points="583.7,-38.26 573.74,-34.67 579.29,-43.69 583.7,-38.26"/>
</g>
<!-- MarkDuplicates -->
<g id="node8" class="node">
<title>MarkDuplicates</title>
<ellipse fill="none" stroke="black" cx="84.49" cy="-90" rx="84.49" ry="18"/>
<text text-anchor="middle" x="84.49" y="-86.3" font-family="Times,serif" font-size="14.00">MarkDuplicates</text>
</g>
<!-- MarkDuplicates&#45;&gt;MultiQC -->
<g id="edge10" class="edge">
<title>MarkDuplicates&#45;&gt;MultiQC</title>
<path fill="none" stroke="black" d="M145.87,-77.55C156.73,-75.62 167.93,-73.7 178.49,-72 291.63,-53.8 424.48,-35.88 498.11,-26.25"/>
<polygon fill="black" stroke="black" points="498.63,-29.71 508.1,-24.95 497.73,-22.77 498.63,-29.71"/>
</g>
<!-- BamQC -->
<g id="node9" class="node">
<title>BamQC</title>
<ellipse fill="none" stroke="black" cx="233.49" cy="-90" rx="46.29" ry="18"/>
<text text-anchor="middle" x="233.49" y="-86.3" font-family="Times,serif" font-size="14.00">BamQC</text>
</g>
<!-- BamQC&#45;&gt;MultiQC -->
<g id="edge13" class="edge">
<title>BamQC&#45;&gt;MultiQC</title>
<path fill="none" stroke="black" d="M268,-77.95C275.07,-75.85 282.5,-73.76 289.49,-72 361.74,-53.86 446.3,-37.83 500.11,-28.28"/>
<polygon fill="black" stroke="black" points="500.88,-31.69 510.12,-26.51 499.67,-24.8 500.88,-31.69"/>
</g>
</g>
</svg>
