<?xml version="1.0" encoding="UTF-8" standalone="no"?>
<!DOCTYPE svg PUBLIC "-//W3C//DTD SVG 1.1//EN"
 "http://www.w3.org/Graphics/SVG/1.1/DTD/svg11.dtd">
<!-- Generated by graphviz version 2.43.0 (0)
 -->
<!-- Pages: 1 -->
<svg width="2391pt" height="260pt"
 viewBox="0.00 0.00 2390.99 260.00" xmlns="http://www.w3.org/2000/svg" xmlns:xlink="http://www.w3.org/1999/xlink">
<g id="graph0" class="graph" transform="scale(1 1) rotate(0) translate(4 256)">
<polygon fill="white" stroke="transparent" points="-4,4 -4,-256 2386.99,-256 2386.99,4 -4,4"/>
<!-- get_software_versions -->
<g id="node1" class="node">
<title>get_software_versions</title>
<ellipse fill="none" stroke="black" cx="538" cy="-90" rx="114.28" ry="18"/>
<text text-anchor="middle" x="538" y="-86.3" font-family="Times,serif" font-size="14.00">get_software_versions</text>
</g>
<!-- MultiQC -->
<g id="node2" class="node">
<title>MultiQC</title>
<ellipse fill="none" stroke="black" cx="766" cy="-18" rx="50.09" ry="18"/>
<text text-anchor="middle" x="766" y="-14.3" font-family="Times,serif" font-size="14.00">MultiQC</text>
</g>
<!-- get_software_versions&#45;&gt;MultiQC -->
<g id="edge1" class="edge">
<title>get_software_versions&#45;&gt;MultiQC</title>
<path fill="none" stroke="black" d="M587.75,-73.72C626.84,-61.72 680.9,-45.13 719.21,-33.37"/>
<polygon fill="black" stroke="black" points="720.54,-36.62 729.08,-30.34 718.49,-29.92 720.54,-36.62"/>
</g>
<!-- BuildBWAindexes -->
<g id="node3" class="node">
<title>BuildBWAindexes</title>
<ellipse fill="none" stroke="black" cx="118" cy="-234" rx="92.88" ry="18"/>
<text text-anchor="middle" x="118" y="-230.3" font-family="Times,serif" font-size="14.00">BuildBWAindexes</text>
</g>
<!-- BuildBWAindexes&#45;&gt;MultiQC -->
<g id="edge5" class="edge">
<title>BuildBWAindexes&#45;&gt;MultiQC</title>
<path fill="none" stroke="black" d="M93.4,-216.63C50.22,-186 -30.69,-118.87 13,-72 59.87,-21.71 535.83,-18.25 705.95,-18.64"/>
<polygon fill="black" stroke="black" points="705.98,-22.14 715.99,-18.67 706,-15.14 705.98,-22.14"/>
</g>
<!-- MapReads -->
<g id="node4" class="node">
<title>MapReads</title>
<ellipse fill="none" stroke="black" cx="181" cy="-162" rx="59.59" ry="18"/>
<text text-anchor="middle" x="181" y="-158.3" font-family="Times,serif" font-size="14.00">MapReads</text>
</g>
<!-- BuildBWAindexes&#45;&gt;MapReads -->
<g id="edge2" class="edge">
<title>BuildBWAindexes&#45;&gt;MapReads</title>
<path fill="none" stroke="black" d="M133.25,-216.05C140.99,-207.46 150.53,-196.86 159.04,-187.4"/>
<polygon fill="black" stroke="black" points="161.8,-189.56 165.89,-179.79 156.6,-184.88 161.8,-189.56"/>
</g>
<!-- MergeBamMapped -->
<g id="node5" class="node">
<title>MergeBamMapped</title>
<ellipse fill="none" stroke="black" cx="269" cy="-90" rx="99.38" ry="18"/>
<text text-anchor="middle" x="269" y="-86.3" font-family="Times,serif" font-size="14.00">MergeBamMapped</text>
</g>
<!-- BuildBWAindexes&#45;&gt;MergeBamMapped -->
<g id="edge3" class="edge">
<title>BuildBWAindexes&#45;&gt;MergeBamMapped</title>
<path fill="none" stroke="black" d="M181.78,-220.91C206.4,-213.14 232.74,-200.5 250,-180 264.42,-162.87 268.7,-137.42 269.64,-118.12"/>
<polygon fill="black" stroke="black" points="273.14,-118.2 269.87,-108.12 266.14,-118.04 273.14,-118.2"/>
</g>
<!-- BamQC -->
<g id="node6" class="node">
<title>BamQC</title>
<ellipse fill="none" stroke="black" cx="68" cy="-90" rx="46.29" ry="18"/>
<text text-anchor="middle" x="68" y="-86.3" font-family="Times,serif" font-size="14.00">BamQC</text>
</g>
<!-- BuildBWAindexes&#45;&gt;BamQC -->
<g id="edge4" class="edge">
<title>BuildBWAindexes&#45;&gt;BamQC</title>
<path fill="none" stroke="black" d="M102.16,-216.23C93.85,-206.42 84.32,-193.37 79,-180 71.14,-160.26 68.54,-136.28 67.82,-118.18"/>
<polygon fill="black" stroke="black" points="71.31,-117.95 67.58,-108.03 64.31,-118.11 71.31,-117.95"/>
</g>
<!-- MapReads&#45;&gt;MultiQC -->
<g id="edge31" class="edge">
<title>MapReads&#45;&gt;MultiQC</title>
<path fill="none" stroke="black" d="M169.37,-143.99C157.42,-124.2 142.92,-91.73 161,-72 197.34,-32.33 560.3,-22.23 705.97,-19.76"/>
<polygon fill="black" stroke="black" points="706.13,-23.26 716.07,-19.6 706.02,-16.26 706.13,-23.26"/>
</g>
<!-- MapReads&#45;&gt;MergeBamMapped -->
<g id="edge29" class="edge">
<title>MapReads&#45;&gt;MergeBamMapped</title>
<path fill="none" stroke="black" d="M201.41,-144.76C212.9,-135.62 227.45,-124.05 240.1,-113.99"/>
<polygon fill="black" stroke="black" points="242.44,-116.6 248.09,-107.63 238.08,-111.12 242.44,-116.6"/>
</g>
<!-- MapReads&#45;&gt;BamQC -->
<g id="edge30" class="edge">
<title>MapReads&#45;&gt;BamQC</title>
<path fill="none" stroke="black" d="M155.92,-145.46C139.53,-135.31 117.97,-121.96 100.3,-111.01"/>
<polygon fill="black" stroke="black" points="101.81,-107.83 91.46,-105.54 98.12,-113.78 101.81,-107.83"/>
</g>
<!-- BamQC&#45;&gt;MultiQC -->
<g id="edge36" class="edge">
<title>BamQC&#45;&gt;MultiQC</title>
<path fill="none" stroke="black" d="M102.63,-77.96C110.87,-75.67 119.69,-73.51 128,-72 337.98,-33.9 591.87,-23.14 705.69,-20.14"/>
<polygon fill="black" stroke="black" points="706.03,-23.63 715.93,-19.88 705.85,-16.63 706.03,-23.63"/>
</g>
<!-- BuildDict -->
<g id="node7" class="node">
<title>BuildDict</title>
<ellipse fill="none" stroke="black" cx="1665" cy="-234" rx="53.89" ry="18"/>
<text text-anchor="middle" x="1665" y="-230.3" font-family="Times,serif" font-size="14.00">BuildDict</text>
</g>
<!-- BuildDict&#45;&gt;MultiQC -->
<g id="edge9" class="edge">
<title>BuildDict&#45;&gt;MultiQC</title>
<path fill="none" stroke="black" d="M1659.7,-216.06C1648,-181.87 1616.44,-105.05 1560,-72 1497.21,-35.23 1000.02,-23.09 825.94,-19.94"/>
<polygon fill="black" stroke="black" points="825.99,-16.44 815.93,-19.76 825.86,-23.44 825.99,-16.44"/>
</g>
<!-- BaseRecalibrator -->
<g id="node8" class="node">
<title>BaseRecalibrator</title>
<ellipse fill="none" stroke="black" cx="1364" cy="-162" rx="90.98" ry="18"/>
<text text-anchor="middle" x="1364" y="-158.3" font-family="Times,serif" font-size="14.00">BaseRecalibrator</text>
</g>
<!-- BuildDict&#45;&gt;BaseRecalibrator -->
<g id="edge6" class="edge">
<title>BuildDict&#45;&gt;BaseRecalibrator</title>
<path fill="none" stroke="black" d="M1624.74,-221.85C1617.2,-219.84 1609.37,-217.81 1602,-216 1545.78,-202.16 1481.7,-187.98 1434.2,-177.78"/>
<polygon fill="black" stroke="black" points="1434.84,-174.33 1424.33,-175.66 1433.37,-181.18 1434.84,-174.33"/>
</g>
<!-- GatherBQSRReports -->
<g id="node9" class="node">
<title>GatherBQSRReports</title>
<ellipse fill="none" stroke="black" cx="1424" cy="-90" rx="106.68" ry="18"/>
<text text-anchor="middle" x="1424" y="-86.3" font-family="Times,serif" font-size="14.00">GatherBQSRReports</text>
</g>
<!-- BuildDict&#45;&gt;GatherBQSRReports -->
<g id="edge7" class="edge">
<title>BuildDict&#45;&gt;GatherBQSRReports</title>
<path fill="none" stroke="black" d="M1639.66,-218.07C1596.88,-192.87 1510.18,-141.78 1460.73,-112.64"/>
<polygon fill="black" stroke="black" points="1462.34,-109.53 1451.95,-107.47 1458.78,-115.56 1462.34,-109.53"/>
</g>
<!-- ApplyBQSR -->
<g id="node10" class="node">
<title>ApplyBQSR</title>
<ellipse fill="none" stroke="black" cx="1529" cy="-18" rx="64.19" ry="18"/>
<text text-anchor="middle" x="1529" y="-14.3" font-family="Times,serif" font-size="14.00">ApplyBQSR</text>
</g>
<!-- BuildDict&#45;&gt;ApplyBQSR -->
<g id="edge8" class="edge">
<title>BuildDict&#45;&gt;ApplyBQSR</title>
<path fill="none" stroke="black" d="M1669.88,-215.75C1674.18,-197.17 1678.32,-167.16 1668,-144 1647.2,-97.33 1599.42,-60.79 1565.7,-39.57"/>
<polygon fill="black" stroke="black" points="1567.38,-36.49 1557.03,-34.25 1563.72,-42.46 1567.38,-36.49"/>
</g>
<!-- BaseRecalibrator&#45;&gt;MultiQC -->
<g id="edge12" class="edge">
<title>BaseRecalibrator&#45;&gt;MultiQC</title>
<path fill="none" stroke="black" d="M1339.6,-144.6C1307.64,-123.99 1249.17,-89.23 1194,-72 1067.08,-32.36 910.28,-22.21 826.13,-19.71"/>
<polygon fill="black" stroke="black" points="826.08,-16.21 815.99,-19.44 825.89,-23.21 826.08,-16.21"/>
</g>
<!-- BaseRecalibrator&#45;&gt;GatherBQSRReports -->
<g id="edge10" class="edge">
<title>BaseRecalibrator&#45;&gt;GatherBQSRReports</title>
<path fill="none" stroke="black" d="M1378.52,-144.05C1385.71,-135.67 1394.53,-125.38 1402.49,-116.1"/>
<polygon fill="black" stroke="black" points="1405.34,-118.15 1409.19,-108.28 1400.03,-113.59 1405.34,-118.15"/>
</g>
<!-- BaseRecalibrator&#45;&gt;ApplyBQSR -->
<g id="edge11" class="edge">
<title>BaseRecalibrator&#45;&gt;ApplyBQSR</title>
<path fill="none" stroke="black" d="M1450.46,-156.35C1483.94,-149.8 1519.15,-136.04 1540,-108 1553.28,-90.12 1548.29,-64.43 1541.29,-45.24"/>
<polygon fill="black" stroke="black" points="1544.5,-43.86 1537.53,-35.88 1538.01,-46.46 1544.5,-43.86"/>
</g>
<!-- GatherBQSRReports&#45;&gt;MultiQC -->
<g id="edge34" class="edge">
<title>GatherBQSRReports&#45;&gt;MultiQC</title>
<path fill="none" stroke="black" d="M1346.28,-77.6C1331.9,-75.63 1317,-73.67 1303,-72 1129.16,-51.22 922.95,-32.53 824.27,-23.96"/>
<polygon fill="black" stroke="black" points="824.47,-20.46 814.21,-23.09 823.87,-27.44 824.47,-20.46"/>
</g>
<!-- GatherBQSRReports&#45;&gt;ApplyBQSR -->
<g id="edge33" class="edge">
<title>GatherBQSRReports&#45;&gt;ApplyBQSR</title>
<path fill="none" stroke="black" d="M1448.88,-72.41C1463.18,-62.88 1481.29,-50.8 1496.68,-40.55"/>
<polygon fill="black" stroke="black" points="1499,-43.21 1505.37,-34.75 1495.11,-37.38 1499,-43.21"/>
</g>
<!-- BuildFastaFai -->
<g id="node11" class="node">
<title>BuildFastaFai</title>
<ellipse fill="none" stroke="black" cx="396" cy="-234" rx="74.99" ry="18"/>
<text text-anchor="middle" x="396" y="-230.3" font-family="Times,serif" font-size="14.00">BuildFastaFai</text>
</g>
<!-- BuildFastaFai&#45;&gt;MultiQC -->
<g id="edge19" class="edge">
<title>BuildFastaFai&#45;&gt;MultiQC</title>
<path fill="none" stroke="black" d="M392.07,-215.89C385.65,-183.09 377.12,-111.13 415,-72 454.16,-31.55 616.21,-21.84 705.79,-19.6"/>
<polygon fill="black" stroke="black" points="705.9,-23.1 715.81,-19.37 705.74,-16.1 705.9,-23.1"/>
</g>
<!-- BuildFastaFai&#45;&gt;MapReads -->
<g id="edge14" class="edge">
<title>BuildFastaFai&#45;&gt;MapReads</title>
<path fill="none" stroke="black" d="M353.52,-219.17C317.91,-207.58 267.05,-191.02 229.78,-178.88"/>
<polygon fill="black" stroke="black" points="230.72,-175.51 220.13,-175.74 228.55,-182.16 230.72,-175.51"/>
</g>
<!-- BuildFastaFai&#45;&gt;MergeBamMapped -->
<g id="edge15" class="edge">
<title>BuildFastaFai&#45;&gt;MergeBamMapped</title>
<path fill="none" stroke="black" d="M380.93,-216.15C358.59,-191.17 316.55,-144.17 290.84,-115.42"/>
<polygon fill="black" stroke="black" points="293.32,-112.95 284.05,-107.82 288.1,-117.61 293.32,-112.95"/>
</g>
<!-- BuildFastaFai&#45;&gt;BamQC -->
<g id="edge18" class="edge">
<title>BuildFastaFai&#45;&gt;BamQC</title>
<path fill="none" stroke="black" d="M326.69,-227.17C253.76,-219.82 145.04,-205.02 112,-180 91.99,-164.85 80.51,-138.14 74.32,-117.92"/>
<polygon fill="black" stroke="black" points="77.62,-116.72 71.56,-108.04 70.88,-118.61 77.62,-116.72"/>
</g>
<!-- BuildFastaFai&#45;&gt;BaseRecalibrator -->
<g id="edge13" class="edge">
<title>BuildFastaFai&#45;&gt;BaseRecalibrator</title>
<path fill="none" stroke="black" d="M466.39,-227.91C637.68,-215.52 1076.29,-183.81 1269.82,-169.81"/>
<polygon fill="black" stroke="black" points="1270.25,-173.29 1279.97,-169.08 1269.75,-166.31 1270.25,-173.29"/>
</g>
<!-- BuildFastaFai&#45;&gt;GatherBQSRReports -->
<g id="edge16" class="edge">
<title>BuildFastaFai&#45;&gt;GatherBQSRReports</title>
<path fill="none" stroke="black" d="M459.14,-224.28C634.84,-200.01 1129.92,-131.62 1334.16,-103.41"/>
<polygon fill="black" stroke="black" points="1334.83,-106.85 1344.26,-102.01 1333.87,-99.92 1334.83,-106.85"/>
</g>
<!-- BuildFastaFai&#45;&gt;ApplyBQSR -->
<g id="edge17" class="edge">
<title>BuildFastaFai&#45;&gt;ApplyBQSR</title>
<path fill="none" stroke="black" d="M443.07,-219.99C515.67,-200.42 659.58,-163.64 784,-144 964.68,-115.48 1020.02,-164.5 1194,-108 1223.58,-98.39 1224.95,-83.11 1254,-72 1321.04,-46.35 1402.22,-32.66 1458.93,-25.66"/>
<polygon fill="black" stroke="black" points="1459.36,-29.14 1468.87,-24.47 1458.53,-22.19 1459.36,-29.14"/>
</g>
<!-- BuildDbsnpIndex -->
<g id="node12" class="node">
<title>BuildDbsnpIndex</title>
<ellipse fill="none" stroke="black" cx="1224" cy="-234" rx="90.98" ry="18"/>
<text text-anchor="middle" x="1224" y="-230.3" font-family="Times,serif" font-size="14.00">BuildDbsnpIndex</text>
</g>
<!-- BuildDbsnpIndex&#45;&gt;MultiQC -->
<g id="edge23" class="edge">
<title>BuildDbsnpIndex&#45;&gt;MultiQC</title>
<path fill="none" stroke="black" d="M1143.04,-225.75C1009.77,-211.94 753.44,-176.93 699,-108 689.08,-95.44 692.03,-86.4 699,-72 705.55,-58.46 717.42,-47.34 729.37,-38.83"/>
<polygon fill="black" stroke="black" points="731.61,-41.55 738.01,-33.11 727.74,-35.71 731.61,-41.55"/>
</g>
<!-- BuildDbsnpIndex&#45;&gt;BaseRecalibrator -->
<g id="edge20" class="edge">
<title>BuildDbsnpIndex&#45;&gt;BaseRecalibrator</title>
<path fill="none" stroke="black" d="M1255.77,-217.12C1275.58,-207.21 1301.3,-194.35 1322.69,-183.65"/>
<polygon fill="black" stroke="black" points="1324.49,-186.67 1331.87,-179.06 1321.36,-180.41 1324.49,-186.67"/>
</g>
<!-- BuildDbsnpIndex&#45;&gt;GatherBQSRReports -->
<g id="edge21" class="edge">
<title>BuildDbsnpIndex&#45;&gt;GatherBQSRReports</title>
<path fill="none" stroke="black" d="M1227.35,-215.8C1232.12,-195.82 1242.74,-163.18 1264,-144 1284.7,-125.32 1312.16,-113.2 1338.48,-105.35"/>
<polygon fill="black" stroke="black" points="1339.43,-108.72 1348.11,-102.65 1337.54,-101.98 1339.43,-108.72"/>
</g>
<!-- BuildDbsnpIndex&#45;&gt;ApplyBQSR -->
<g id="edge22" class="edge">
<title>BuildDbsnpIndex&#45;&gt;ApplyBQSR</title>
<path fill="none" stroke="black" d="M1223.14,-216C1222.9,-197.36 1224.58,-167.05 1236,-144 1256.08,-103.44 1268.51,-94.11 1308,-72 1354.41,-46.02 1413.22,-32.7 1458.51,-25.92"/>
<polygon fill="black" stroke="black" points="1459.13,-29.36 1468.54,-24.49 1458.14,-22.43 1459.13,-29.36"/>
</g>
<!-- BuildKnownIndelsIndex -->
<g id="node13" class="node">
<title>BuildKnownIndelsIndex</title>
<ellipse fill="none" stroke="black" cx="1472" cy="-234" rx="120.78" ry="18"/>
<text text-anchor="middle" x="1472" y="-230.3" font-family="Times,serif" font-size="14.00">BuildKnownIndelsIndex</text>
</g>
<!-- BuildKnownIndelsIndex&#45;&gt;MultiQC -->
<g id="edge27" class="edge">
<title>BuildKnownIndelsIndex&#45;&gt;MultiQC</title>
<path fill="none" stroke="black" d="M1490.08,-215.83C1521.63,-183.85 1579.76,-114.58 1540,-72 1491.66,-20.24 1000.29,-17.76 826.5,-18.52"/>
<polygon fill="black" stroke="black" points="826.23,-15.02 816.25,-18.57 826.27,-22.02 826.23,-15.02"/>
</g>
<!-- BuildKnownIndelsIndex&#45;&gt;BaseRecalibrator -->
<g id="edge24" class="edge">
<title>BuildKnownIndelsIndex&#45;&gt;BaseRecalibrator</title>
<path fill="none" stroke="black" d="M1446.13,-216.23C1431.73,-206.9 1413.63,-195.17 1398.09,-185.1"/>
<polygon fill="black" stroke="black" points="1399.58,-181.89 1389.28,-179.39 1395.77,-187.76 1399.58,-181.89"/>
</g>
<!-- BuildKnownIndelsIndex&#45;&gt;GatherBQSRReports -->
<g id="edge25" class="edge">
<title>BuildKnownIndelsIndex&#45;&gt;GatherBQSRReports</title>
<path fill="none" stroke="black" d="M1473.19,-215.98C1473.86,-197.59 1473.15,-167.74 1464,-144 1460.14,-134 1453.81,-124.27 1447.3,-115.93"/>
<polygon fill="black" stroke="black" points="1449.9,-113.58 1440.83,-108.1 1444.51,-118.04 1449.9,-113.58"/>
</g>
<!-- BuildKnownIndelsIndex&#45;&gt;ApplyBQSR -->
<g id="edge26" class="edge">
<title>BuildKnownIndelsIndex&#45;&gt;ApplyBQSR</title>
<path fill="none" stroke="black" d="M1525.27,-217.77C1543.68,-209.68 1562.34,-197.62 1573,-180 1599.17,-136.71 1569.18,-77.58 1547.46,-44.36"/>
<polygon fill="black" stroke="black" points="1550.11,-42.03 1541.61,-35.71 1544.31,-45.95 1550.11,-42.03"/>
</g>
<!-- CreateIntervalBeds -->
<g id="node14" class="node">
<title>CreateIntervalBeds</title>
<ellipse fill="none" stroke="black" cx="1838" cy="-234" rx="101.28" ry="18"/>
<text text-anchor="middle" x="1838" y="-230.3" font-family="Times,serif" font-size="14.00">CreateIntervalBeds</text>
</g>
<!-- FastQCFQ -->
<g id="node15" class="node">
<title>FastQCFQ</title>
<ellipse fill="none" stroke="black" cx="766" cy="-90" rx="58.49" ry="18"/>
<text text-anchor="middle" x="766" y="-86.3" font-family="Times,serif" font-size="14.00">FastQCFQ</text>
</g>
<!-- FastQCFQ&#45;&gt;MultiQC -->
<g id="edge28" class="edge">
<title>FastQCFQ&#45;&gt;MultiQC</title>
<path fill="none" stroke="black" d="M766,-71.7C766,-63.98 766,-54.71 766,-46.11"/>
<polygon fill="black" stroke="black" points="769.5,-46.1 766,-36.1 762.5,-46.1 769.5,-46.1"/>
</g>
<!-- MarkDuplicates -->
<g id="node16" class="node">
<title>MarkDuplicates</title>
<ellipse fill="none" stroke="black" cx="927" cy="-90" rx="84.49" ry="18"/>
<text text-anchor="middle" x="927" y="-86.3" font-family="Times,serif" font-size="14.00">MarkDuplicates</text>
</g>
<!-- MarkDuplicates&#45;&gt;MultiQC -->
<g id="edge32" class="edge">
<title>MarkDuplicates&#45;&gt;MultiQC</title>
<path fill="none" stroke="black" d="M891.67,-73.64C866.36,-62.63 832.24,-47.8 805.94,-36.37"/>
<polygon fill="black" stroke="black" points="807.2,-33.1 796.64,-32.32 804.41,-39.52 807.2,-33.1"/>
</g>
<!-- MergeBamRecal -->
<g id="node17" class="node">
<title>MergeBamRecal</title>
<ellipse fill="none" stroke="black" cx="2044" cy="-234" rx="87.18" ry="18"/>
<text text-anchor="middle" x="2044" y="-230.3" font-family="Times,serif" font-size="14.00">MergeBamRecal</text>
</g>
<!-- SamtoolsStats -->
<g id="node18" class="node">
<title>SamtoolsStats</title>
<ellipse fill="none" stroke="black" cx="1107" cy="-90" rx="77.99" ry="18"/>
<text text-anchor="middle" x="1107" y="-86.3" font-family="Times,serif" font-size="14.00">SamtoolsStats</text>
</g>
<!-- SamtoolsStats&#45;&gt;MultiQC -->
<g id="edge35" class="edge">
<title>SamtoolsStats&#45;&gt;MultiQC</title>
<path fill="none" stroke="black" d="M1050.69,-77.44C986.18,-64.2 881.31,-42.67 818.46,-29.77"/>
<polygon fill="black" stroke="black" points="818.87,-26.28 808.37,-27.7 817.46,-33.14 818.87,-26.28"/>
</g>
<!-- Output_documentation -->
<g id="node19" class="node">
<title>Output_documentation</title>
<ellipse fill="none" stroke="black" cx="2266" cy="-234" rx="116.98" ry="18"/>
<text text-anchor="middle" x="2266" y="-230.3" font-family="Times,serif" font-size="14.00">Output_documentation</text>
</g>
</g>
</svg>
